<svg width="128" height="128" viewBox="0 0 128 128" fill="none" xmlns="http://www.w3.org/2000/svg">
<path d="M77.823 12.9955L77.8941 12.9192C78.6295 12.1225 79.292 11.2805 80.0726 10.5195C83.4702 7.20763 88.6807 3.57897 93.3498 2.51637C94.2063 7.42631 93.1736 13.6734 91.658 18.3664C92.6615 18.8009 93.6161 19.2759 94.5725 19.8065C101.219 15.7811 108.367 13.6917 116.152 13.7397C118.305 13.753 120.568 13.8801 122.672 14.3517C120.63 21.3181 114.938 28.2029 109.094 32.3686C117.731 42.8142 121.54 55.0077 120.265 68.52C120.239 68.7715 120.211 69.0228 120.181 69.2738C120.151 69.5249 120.119 69.7757 120.084 70.0262C120.05 70.2767 120.014 70.5269 119.975 70.7767C119.936 71.0266 119.895 71.2762 119.853 71.5253C119.81 71.7745 119.765 72.0233 119.717 72.2717C119.67 72.5201 119.621 72.7681 119.57 73.0156C119.518 73.2632 119.465 73.5103 119.409 73.757C119.353 74.0036 119.296 74.2498 119.236 74.4955C119.176 74.7411 119.114 74.9863 119.05 75.2308C118.986 75.4754 118.92 75.7195 118.851 75.963C118.783 76.2064 118.713 76.4493 118.641 76.6916C118.568 76.9338 118.494 77.1755 118.417 77.4165C118.341 77.6575 118.262 77.8978 118.182 78.1375C118.101 78.3771 118.018 78.6161 117.934 78.8543C117.849 79.0925 117.762 79.33 117.673 79.5667C117.585 79.8035 117.494 80.0395 117.401 80.2747C117.308 80.51 117.214 80.7443 117.117 80.9778C117.02 81.2114 116.921 81.4442 116.82 81.6761C116.72 81.908 116.617 82.139 116.512 82.3691C116.407 82.5993 116.301 82.8285 116.192 83.0568C116.083 83.2852 115.973 83.5125 115.86 83.739C115.748 83.9654 115.633 84.1908 115.517 84.4152C115.4 84.6397 115.282 84.8632 115.162 85.0856C115.042 85.308 114.92 85.5294 114.796 85.7498C114.672 85.9702 114.546 86.1894 114.418 86.4076C114.29 86.6258 114.161 86.8429 114.029 87.0588C113.898 87.2748 113.764 87.4897 113.629 87.7033C113.494 87.9171 113.357 88.1296 113.218 88.341C113.079 88.5523 112.939 88.7625 112.797 88.9715C112.654 89.1804 112.51 89.3881 112.364 89.5946C112.218 89.8011 112.071 90.0063 111.921 90.2103C111.772 90.4142 111.621 90.6169 111.468 90.8183C110.819 91.6717 109.82 93.0897 109.069 93.7822C109.066 95.8967 108.741 97.7727 107.445 99.5015C107.024 100.062 106.517 100.575 106.131 101.158C105.543 102.044 105.274 103.03 104.499 103.804C102.368 105.934 99.305 106.694 96.3753 106.679C95.4645 106.675 94.5092 106.611 93.6327 106.346C90.8605 108.083 87.4151 108.997 84.234 109.615C83.5905 109.74 82.8525 109.933 82.1977 109.94C81.138 110.043 80.0717 110.127 79.0183 110.282C79.004 110.317 78.9931 110.354 78.9753 110.387C78.6037 111.09 77.2247 111.996 76.5997 112.527C75.4882 113.479 74.3565 114.407 73.2045 115.31C72.0525 116.213 70.8813 117.091 69.691 117.943C68.5007 118.795 67.2924 119.62 66.0661 120.42C64.8397 121.219 63.5965 121.991 62.3365 122.736C60.4209 123.882 58.4856 125.045 56.4042 125.869C54.8624 124.383 53.5596 122.821 52.5986 120.889C50.9829 121.386 49.2964 121.775 47.6504 122.159C41.0402 123.698 33.6316 124.842 26.9037 123.456C26.2424 123.32 25.5556 123.197 24.9136 122.987C24.485 122.846 23.8819 122.625 23.6846 122.183C23.2698 121.254 24.0006 118.401 24.3705 117.446C25.5778 114.328 28.3809 112.101 31.7449 111.833C32.634 111.762 33.5131 112.027 34.3187 111.941C35.5987 111.803 39.2169 110.692 40.4635 110.132L40.5471 110.094C39.9305 109.643 39.3345 109.224 38.9059 108.579C38.8087 107.337 38.9062 106.053 39.0271 104.815L38.7345 104.631C38.441 104.447 38.1494 104.259 37.8597 104.069C37.57 103.879 37.2822 103.686 36.9964 103.49C36.7106 103.295 36.4268 103.096 36.145 102.894C35.8632 102.692 35.5834 102.488 35.3057 102.281C35.0281 102.074 34.7525 101.864 34.479 101.651C34.2056 101.438 33.9343 101.222 33.6652 101.004C33.3962 100.786 33.1293 100.565 32.8646 100.341C32.6 100.117 32.3376 99.8911 32.0775 99.6622C31.8174 99.4332 31.5597 99.2016 31.3044 98.9674C31.049 98.7333 30.7959 98.4966 30.5452 98.2573C30.2947 98.0181 30.0465 97.7763 29.8007 97.5319C29.5549 97.2877 29.3116 97.041 29.0709 96.7918C28.8301 96.5427 28.5919 96.2911 28.3561 96.0371C28.1205 95.7831 27.8874 95.5267 27.6569 95.2681C27.4263 95.0094 27.1984 94.7484 26.9731 94.4851C26.7479 94.2218 26.5253 93.9563 26.3054 93.6885C26.0855 93.4207 25.8682 93.1507 25.6537 92.8786C25.4393 92.6064 25.2276 92.3321 25.0186 92.0557C24.8097 91.7793 24.6036 91.5008 24.4003 91.2202C24.197 90.9396 23.9965 90.657 23.7989 90.3725C23.6013 90.0878 23.4066 89.8012 23.2148 89.5126C23.0229 89.2241 22.834 88.9336 22.648 88.6412C22.462 88.3489 22.279 88.0547 22.099 87.7586C21.9189 87.4626 21.7419 87.1647 21.5679 86.8651C21.3938 86.5655 21.2228 86.2642 21.0549 85.9611C20.8869 85.658 20.722 85.3532 20.5603 85.0468C20.3984 84.7404 20.2397 84.4324 20.0841 84.1228C19.9285 83.8132 19.7761 83.5021 19.6268 83.1895C19.4774 82.8767 19.3313 82.5625 19.1883 82.247C19.0453 81.9313 18.9055 81.6143 18.7689 81.2958C18.6323 80.9774 18.4989 80.6576 18.3688 80.3365C18.2387 80.0153 18.1118 79.6929 17.9881 79.3692C16.8331 76.3055 16.0383 73.1276 15.3274 69.9363C15.2501 69.8415 10.1238 68.8367 9.40636 68.6373C8.41471 68.3617 7.27122 68.0371 6.43438 67.418C5.96122 67.068 5.66857 66.6676 5.59216 66.075C5.52766 65.5746 5.67801 65.0942 5.99053 64.7017C7.04031 63.3833 10.0761 62.8216 11.6986 62.6541C10.7797 62.1452 9.73053 61.6607 9.14287 60.746C8.54377 59.8133 8.76917 58.5763 8.99441 57.5575C9.82698 53.7915 11.5971 50.7247 14.9724 48.7083C15.3765 48.467 15.7865 48.2478 16.222 48.0682C16.5738 47.923 17.108 47.8156 17.407 47.6006C17.4218 47.59 17.4345 47.5768 17.4484 47.565C17.8576 45.8482 18.8314 44.151 19.6423 42.5924C23.3963 35.3774 28.3557 29.1177 34.8 24.1126C35.1168 23.8654 35.4363 23.6216 35.7584 23.3812C36.0805 23.1409 36.4051 22.9041 36.7322 22.6707C37.0594 22.4374 37.3891 22.2076 37.7212 21.9814C38.0534 21.7552 38.388 21.5326 38.7249 21.3136C39.0619 21.0946 39.4012 20.8793 39.7427 20.6676C40.0843 20.4559 40.4282 20.248 40.7742 20.0437C41.1203 19.8395 41.4686 19.639 41.819 19.4422C42.1694 19.2455 42.5219 19.0526 42.8765 18.8635C43.2311 18.6743 43.5877 18.489 43.9462 18.3076C44.3048 18.1262 44.6653 17.9487 45.0277 17.775C45.3902 17.6014 45.7544 17.4317 46.1205 17.2659C46.4866 17.1001 46.8544 16.9383 47.224 16.7805C47.5936 16.6227 47.9648 16.4688 48.3376 16.319C48.7105 16.1692 49.085 16.0234 49.4611 15.8816C49.8371 15.7399 50.2146 15.6022 50.5936 15.4686C50.9726 15.335 51.353 15.2055 51.7349 15.0801C52.1167 14.9547 52.4998 14.8335 52.8842 14.7164C53.2687 14.5993 53.6543 14.4863 54.0411 14.3775C54.4279 14.2687 54.8159 14.1642 55.2051 14.0637C55.5942 13.9633 55.9844 13.8671 56.3756 13.7751C56.7668 13.6831 57.1589 13.5954 57.552 13.5119C57.9451 13.4283 58.339 13.349 58.7339 13.274C59.1286 13.199 59.5242 13.1282 59.9205 13.0617C60.3168 12.9952 60.7138 12.933 61.1115 12.8751C61.5091 12.8172 61.9074 12.7636 62.3062 12.7142C62.7051 12.6649 63.1044 12.6199 63.5042 12.5792C63.904 12.5386 64.3041 12.5022 64.7047 12.4701C65.1053 12.4381 65.5062 12.4103 65.9075 12.3869C66.3086 12.3635 66.71 12.3444 67.1116 12.3297C67.5132 12.3149 67.9149 12.3045 68.3167 12.2985C68.7186 12.2924 69.1204 12.2907 69.5222 12.2933C69.9241 12.2959 70.3258 12.3028 70.7276 12.3141C73.0923 12.3755 75.4773 12.6999 77.823 12.9955Z" fill="#53488C"/>
<path d="M106.653 34.0835C107.436 33.4675 108.298 32.967 109.094 32.3686C117.731 42.8142 121.54 55.0077 120.265 68.52C120.239 68.7715 120.211 69.0228 120.181 69.2738C120.151 69.5249 120.119 69.7757 120.084 70.0262C120.05 70.2767 120.014 70.5269 119.975 70.7767C119.936 71.0266 119.896 71.2762 119.853 71.5253C119.81 71.7745 119.765 72.0233 119.717 72.2717C119.67 72.5201 119.621 72.7681 119.57 73.0156C119.518 73.2632 119.465 73.5103 119.409 73.757C119.353 74.0036 119.296 74.2498 119.236 74.4955C119.176 74.7411 119.114 74.9863 119.05 75.2308C118.986 75.4754 118.92 75.7195 118.851 75.963C118.783 76.2064 118.713 76.4493 118.641 76.6916C118.568 76.9338 118.494 77.1755 118.417 77.4165C118.341 77.6575 118.262 77.8978 118.182 78.1375C118.101 78.3771 118.018 78.6161 117.934 78.8543C117.849 79.0925 117.762 79.33 117.673 79.5667C117.585 79.8035 117.494 80.0395 117.401 80.2747C117.308 80.51 117.214 80.7443 117.117 80.9778C117.02 81.2114 116.921 81.4442 116.82 81.6761C116.72 81.908 116.617 82.139 116.512 82.3691C116.407 82.5992 116.301 82.8285 116.192 83.0568C116.083 83.2852 115.973 83.5125 115.86 83.739C115.748 83.9654 115.633 84.1908 115.517 84.4152C115.4 84.6397 115.282 84.8632 115.162 85.0856C115.042 85.308 114.92 85.5294 114.796 85.7498C114.672 85.9702 114.546 86.1894 114.418 86.4076C114.29 86.6258 114.161 86.8429 114.029 87.0588C113.898 87.2748 113.764 87.4897 113.629 87.7033C113.494 87.9171 113.357 88.1296 113.218 88.341C113.08 88.5523 112.939 88.7625 112.797 88.9715C112.654 89.1804 112.51 89.3881 112.364 89.5946C112.218 89.8011 112.071 90.0063 111.921 90.2103C111.772 90.4142 111.621 90.6169 111.468 90.8183C110.819 91.6717 109.82 93.0897 109.069 93.7822C108.958 93.1947 109.016 92.5716 108.89 91.9882C108.837 91.7451 108.787 91.5064 108.565 91.3653C108.549 91.3548 108.459 91.3003 108.443 91.2871C108.066 90.9702 108.022 90.2987 107.934 89.8387C107.325 87.4783 105.92 85.4961 104.055 83.9478C103.468 83.4605 101.367 81.8863 100.634 81.9527C100.373 82.2322 100.618 83.4306 100.597 83.8728C100.581 84.194 100.516 84.5023 100.415 84.8067C99.863 86.4795 98.6213 87.8233 97.5285 89.1667C97.0887 85.5776 96.3715 82.0798 95.2082 78.651C93.4675 73.5201 88.591 63.6908 83.5609 61.2046C83.7536 60.5113 83.9421 59.8169 84.1262 59.1212C84.5339 59.4472 85.1617 60.0683 85.7091 60.0508C85.9033 60.0446 86.0592 59.9578 86.1767 59.8047C86.9226 58.8332 86.4559 56.1627 86.2737 55.0127C86.7302 55.1856 87.43 55.4742 87.896 55.2146C88.0552 55.1258 88.1532 54.978 88.203 54.8071C88.643 53.2937 85.9395 48.8558 85.0941 47.4335C86.1337 46.9757 87.2687 46.4237 87.9272 45.4544C88.9822 43.9015 88.2328 41.4786 87.8956 39.7816C95.0907 38.7884 100.205 37.4807 106.653 34.0835Z" fill="#82E378"/>
<path d="M106.653 34.0835C107.436 33.4675 108.298 32.967 109.094 32.3686C117.731 42.8142 121.54 55.0077 120.265 68.52C120.239 68.7715 120.211 69.0228 120.181 69.2738C120.151 69.5249 120.119 69.7757 120.084 70.0262C120.05 70.2767 120.014 70.5269 119.975 70.7767C119.936 71.0266 119.895 71.2762 119.853 71.5253C119.81 71.7745 119.765 72.0233 119.717 72.2717C119.67 72.5201 119.621 72.7681 119.57 73.0156C119.518 73.2632 119.465 73.5103 119.409 73.757C119.353 74.0036 119.296 74.2498 119.236 74.4955C119.176 74.7411 119.114 74.9863 119.05 75.2308C118.986 75.4754 118.92 75.7195 118.851 75.963C118.783 76.2064 118.713 76.4493 118.641 76.6916C118.568 76.9338 118.494 77.1755 118.417 77.4165C118.341 77.6575 118.262 77.8978 118.182 78.1375C118.101 78.3771 118.018 78.6161 117.934 78.8543C117.849 79.0925 117.762 79.33 117.673 79.5667C117.585 79.8035 117.494 80.0395 117.401 80.2747C117.308 80.51 117.214 80.7443 117.117 80.9778C117.02 81.2114 116.921 81.4442 116.82 81.6761C116.72 81.908 116.617 82.139 116.512 82.3691C116.407 82.5992 116.301 82.8285 116.192 83.0568C116.083 83.2852 115.973 83.5125 115.86 83.739C115.748 83.9654 115.633 84.1908 115.517 84.4152C115.4 84.6397 115.282 84.8632 115.162 85.0856C115.042 85.308 114.92 85.5294 114.796 85.7498C114.672 85.9702 114.546 86.1894 114.418 86.4076C114.29 86.6258 114.161 86.8429 114.029 87.0588C113.898 87.2748 113.764 87.4897 113.629 87.7033C113.494 87.9171 113.357 88.1296 113.218 88.341C113.079 88.5523 112.939 88.7625 112.797 88.9715C112.654 89.1804 112.51 89.3881 112.364 89.5946C112.218 89.8011 112.07 90.0063 111.921 90.2103C111.772 90.4142 111.62 90.6169 111.468 90.8183C110.819 91.6717 109.82 93.0897 109.069 93.7822C108.958 93.1947 109.016 92.5716 108.89 91.9882C108.837 91.7451 108.787 91.5064 108.565 91.3653C108.549 91.3548 108.459 91.3003 108.443 91.2871C108.066 90.9702 108.022 90.2987 107.934 89.8387C108.642 89.2128 109.272 88.5395 109.842 87.785C111.306 85.847 114.065 80.9323 114.774 78.6728C115.26 77.124 115.351 75.476 115.773 73.906C116.304 71.9282 117.061 70.0493 117.323 68.0012C117.723 64.8676 117.318 61.7703 116.903 58.6636C116.67 56.9183 116.758 55.1186 116.395 53.3946C116.034 51.6795 115.261 50.0996 114.615 48.4816C113.996 46.9315 113.593 45.3007 112.894 43.7807C112.274 42.4315 111.412 41.1736 110.616 39.922C109.361 37.9467 108.081 35.9387 106.653 34.0835Z" fill="#048BA8"/>
<path d="M17.4484 47.565C17.8576 45.8482 18.8314 44.151 19.6422 42.5924C23.3962 35.3774 28.3557 29.1177 34.8 24.1126C35.1168 23.8654 35.4363 23.6216 35.7584 23.3812C36.0804 23.1409 36.4051 22.9041 36.7322 22.6707C37.0594 22.4374 37.3891 22.2076 37.7212 21.9814C38.0534 21.7552 38.3879 21.5326 38.7249 21.3136C39.0619 21.0946 39.4011 20.8793 39.7427 20.6676C40.0843 20.4559 40.4281 20.248 40.7742 20.0437C41.1203 19.8395 41.4686 19.639 41.819 19.4422C42.1694 19.2455 42.5219 19.0526 42.8765 18.8635C43.2311 18.6743 43.5876 18.489 43.9462 18.3076C44.3048 18.1262 44.6653 17.9487 45.0277 17.775C45.3901 17.6014 45.7544 17.4317 46.1205 17.2659C46.4866 17.1001 46.8544 16.9383 47.224 16.7805C47.5936 16.6227 47.9648 16.4688 48.3376 16.319C48.7105 16.1692 49.085 16.0234 49.4611 15.8816C49.8371 15.7399 50.2146 15.6022 50.5936 15.4686C50.9726 15.335 51.353 15.2055 51.7348 15.0801C52.1167 14.9547 52.4998 14.8335 52.8842 14.7164C53.2686 14.5993 53.6543 14.4863 54.0411 14.3775C54.4279 14.2687 54.8159 14.1642 55.2051 14.0637C55.5942 13.9633 55.9843 13.8671 56.3756 13.7751C56.7668 13.6831 57.1589 13.5954 57.552 13.5119C57.9451 13.4283 58.339 13.349 58.7338 13.274C59.1286 13.199 59.5241 13.1282 59.9205 13.0617C60.3168 12.9952 60.7138 12.933 61.1115 12.8751C61.5091 12.8172 61.9074 12.7636 62.3062 12.7142C62.7051 12.6649 63.1044 12.6199 63.5042 12.5792C63.904 12.5386 64.3041 12.5022 64.7047 12.4701C65.1053 12.4381 65.5062 12.4103 65.9075 12.3869C66.3086 12.3635 66.71 12.3444 67.1116 12.3297C67.5132 12.3149 67.9149 12.3045 68.3167 12.2985C68.7185 12.2924 69.1204 12.2907 69.5222 12.2933C69.924 12.2959 70.3258 12.3028 70.7276 12.3141C73.0923 12.3755 75.4773 12.6999 77.823 12.9955C77.0962 14.0137 76.3988 15.0456 75.6956 16.0799C74.6681 17.8809 73.7556 19.682 73.0746 21.6437C70.831 20.7959 68.3707 20.0476 66.049 21.0881C65.0566 21.5327 64.1572 22.3114 63.7646 23.3465C63.3421 24.4602 63.5743 25.643 64.0533 26.6942C64.2616 27.1511 64.5217 27.5947 64.7982 28.0135C62.6311 27.4416 56.3692 25.6695 54.405 26.812C54.1117 26.9826 53.8911 27.2302 53.8061 27.5634C53.6558 28.1519 53.9583 28.816 54.2711 29.3036C55.3971 31.0594 57.2137 32.6119 58.8952 33.8226C56.253 35.5175 54.6237 37.6927 53.3815 40.5476C53.0752 41.2512 52.9203 42.1254 52.4632 42.7447C52.103 43.2326 51.5593 43.604 51.0856 43.9762C49.9783 42.9215 47.3511 40.976 45.7501 41.0019C45.6124 41.0041 45.5842 41.0037 45.477 41.0949C45.5867 41.4417 48.3777 42.8615 48.926 43.2262C49.4777 43.5935 49.9812 44.006 50.4806 44.4404C50.1627 44.7299 49.829 45.0122 49.5268 45.3175C48.3303 44.7814 47.2667 44.4524 45.9435 44.4787C45.6427 44.4847 45.2751 44.4855 44.9943 44.5997C44.8916 44.6415 44.8992 44.6406 44.8206 44.6905L44.8065 44.8012C45.179 45.2237 47.2142 45.3319 47.8235 45.4431C48.2811 45.528 48.7296 45.6476 49.1687 45.8017C48.9192 46.2184 48.6695 46.6291 48.4663 47.0707C47.5662 47.0417 46.6187 47.0411 45.9064 47.6884C45.8359 47.7532 45.7673 47.8199 45.7003 47.8884C46.5598 47.8909 47.3976 47.7356 48.244 47.6021C47.6683 50.1736 47.8187 51.9062 49.247 54.178C51.2615 57.382 54.5462 59.292 57.97 60.6625C59.228 61.1661 60.594 61.6125 61.7653 62.2952C61.5791 62.759 61.4027 63.4725 61.0955 63.862C60.5903 64.5023 59.6983 64.9846 59.0572 65.5022C57.5072 66.7537 55.9946 68.0542 54.4315 69.2891C53.5182 70.0105 52.5428 70.6691 51.65 71.413C52.038 71.8916 52.3718 72.3676 52.6423 72.9225C50.2186 73.9551 47.6776 73.5948 45.2815 72.6222C43.9545 72.0835 42.6486 71.3367 41.6094 70.3418C44.1954 69.9696 50.096 69.197 51.7373 67.0645C52.0961 66.5985 52.2777 65.9963 52.1815 65.4105C52.0818 64.8045 51.6708 64.3526 51.1788 64.0152C50.3483 63.4455 49.3553 63.1253 48.403 62.8266C47.1316 59.7917 45.2077 57.157 42.0696 55.869C40.779 55.3393 38.2741 54.6723 36.9201 55.2253C36.1001 55.5603 35.6655 56.4493 35.3582 57.2276C34.7486 58.7716 34.4494 60.4122 33.9475 61.9901C33.0889 62.0588 32.2159 62.1918 31.3564 62.2103L31.582 61.3762C32.3767 60.9148 33.1484 60.4191 33.391 59.4663C33.8162 57.7972 32.3151 53.8448 31.4436 52.4414C29.8094 49.8094 27.3302 47.9292 24.2952 47.2395C23.3215 47.0181 22.3427 46.925 21.3466 46.8857C20.8921 46.9612 17.5699 47.5939 17.4484 47.565Z" fill="#82E378"/>
<path d="M17.4484 47.565C17.8576 45.8482 18.8314 44.151 19.6422 42.5924C23.3962 35.3774 28.3557 29.1177 34.8 24.1126C35.1168 23.8654 35.4363 23.6216 35.7584 23.3812C36.0804 23.1409 36.4051 22.9041 36.7322 22.6707C37.0594 22.4374 37.3891 22.2076 37.7212 21.9814C38.0534 21.7552 38.3879 21.5326 38.7249 21.3136C39.0619 21.0946 39.4011 20.8793 39.7427 20.6676C40.0843 20.456 40.4281 20.248 40.7742 20.0437C41.1203 19.8395 41.4686 19.639 41.819 19.4422C42.1694 19.2455 42.5219 19.0526 42.8765 18.8635C43.2311 18.6743 43.5876 18.489 43.9462 18.3076C44.3048 18.1262 44.6653 17.9487 45.0277 17.775C45.3901 17.6014 45.7544 17.4317 46.1205 17.2659C46.4866 17.1001 46.8544 16.9383 47.224 16.7805C47.5936 16.6227 47.9648 16.4688 48.3376 16.319C48.7105 16.1692 49.085 16.0234 49.4611 15.8816C49.8371 15.7399 50.2146 15.6022 50.5936 15.4686C50.9726 15.335 51.353 15.2055 51.7348 15.0801C52.1167 14.9547 52.4998 14.8335 52.8842 14.7164C53.2686 14.5993 53.6543 14.4863 54.0411 14.3775C54.4279 14.2687 54.8159 14.1642 55.2051 14.0637C55.5942 13.9633 55.9843 13.8671 56.3756 13.7751C56.7668 13.6831 57.1589 13.5954 57.552 13.5119C57.9451 13.4283 58.339 13.349 58.7338 13.274C59.1286 13.199 59.5241 13.1282 59.9205 13.0617C60.3168 12.9952 60.7138 12.933 61.1115 12.8751C61.5091 12.8172 61.9074 12.7636 62.3062 12.7142C62.7051 12.6649 63.1044 12.6199 63.5042 12.5792C63.904 12.5386 64.3041 12.5022 64.7047 12.4701C65.1053 12.4381 65.5062 12.4103 65.9075 12.3869C66.3086 12.3635 66.71 12.3444 67.1116 12.3297C67.5132 12.3149 67.9149 12.3045 68.3167 12.2985C68.7185 12.2924 69.1204 12.2907 69.5222 12.2933C69.924 12.2959 70.3258 12.3028 70.7276 12.3141C73.0923 12.3755 75.4773 12.6999 77.823 12.9955C77.0962 14.0137 76.3988 15.0456 75.6956 16.0799C73.4122 15.8154 71.1365 15.6235 68.8353 15.6252C68.4732 15.6253 68.111 15.6292 67.749 15.6369C67.3869 15.6445 67.0249 15.6558 66.6631 15.671C66.3013 15.6862 65.9396 15.7051 65.5782 15.7279C65.2167 15.7505 64.8556 15.777 64.4947 15.8072C64.1338 15.8374 63.7733 15.8714 63.4131 15.9091C63.0529 15.9468 62.6932 15.9882 62.3338 16.0334C61.9745 16.0786 61.6157 16.1276 61.2573 16.1802C60.899 16.2329 60.5413 16.2893 60.1842 16.3494C59.8271 16.4095 59.4706 16.4733 59.1148 16.5409C58.759 16.6084 58.4039 16.6796 58.0496 16.7545C57.6953 16.8294 57.3418 16.908 56.9891 16.9902C56.6364 17.0725 56.2846 17.1585 55.9337 17.2481C55.5828 17.3377 55.2329 17.4309 54.884 17.5277C54.535 17.6247 54.1871 17.7252 53.8402 17.8292C53.4933 17.9333 53.1476 18.041 52.803 18.1524C52.4583 18.2637 52.1148 18.3786 51.7726 18.497C51.4303 18.6155 51.0894 18.7375 50.7497 18.863C50.4101 18.9886 50.0717 19.1177 49.7347 19.2502C49.3976 19.3828 49.062 19.5189 48.7278 19.6585C48.3937 19.7981 48.061 19.9411 47.7298 20.0876C47.3986 20.2341 47.0689 20.384 46.7408 20.5374C46.4128 20.6908 46.0863 20.8475 45.7615 21.0076C45.4367 21.1678 45.1136 21.3313 44.7922 21.4982C44.4708 21.6651 44.1511 21.8352 43.8332 22.0087C43.5153 22.1823 43.1993 22.3592 42.8851 22.5392C42.5709 22.7193 42.2586 22.9027 41.9482 23.0894C41.6379 23.2759 41.3295 23.4657 41.023 23.6587C40.7166 23.8517 40.4122 24.0479 40.1099 24.2474C39.8075 24.4467 39.5073 24.6492 39.2091 24.8547C38.911 25.0603 38.6151 25.269 38.3212 25.4807C38.0275 25.6926 37.7359 25.9074 37.4466 26.1251C37.1573 26.3429 36.8702 26.5638 36.5855 26.7876C36.2716 27.0324 35.9608 27.281 35.653 27.5334C35.3451 27.7858 35.0404 28.0419 34.7387 28.3016C34.4371 28.5614 34.1387 28.8247 33.8435 29.0917C33.5482 29.3587 33.2563 29.6293 32.9677 29.9034C32.6791 30.1774 32.3938 30.455 32.1119 30.736C31.8299 31.017 31.5514 31.3014 31.2764 31.5891C31.0014 31.8769 30.7299 32.1679 30.462 32.4624C30.194 32.7567 29.9296 33.0542 29.6689 33.355C29.4082 33.6558 29.1512 33.9597 28.8977 34.2667C28.6444 34.5737 28.3948 34.8838 28.149 35.1969C27.9032 35.5099 27.6612 35.8259 27.423 36.1449C27.1848 36.4638 26.9506 36.7856 26.7202 37.1102C26.4899 37.4348 26.2635 37.7622 26.0411 38.0924C25.8187 38.4224 25.6003 38.7552 25.386 39.0906C25.1717 39.426 24.9614 39.764 24.7552 40.1046C24.5492 40.4451 24.3472 40.7881 24.1494 41.1335C23.1066 42.9945 22.2219 44.9417 21.3466 46.8857C20.8921 46.9612 17.5699 47.5939 17.4484 47.565Z" fill="#048BA8"/>
<path d="M15.3274 69.9363C15.7544 69.7842 17.9289 70.1663 18.4549 70.2883C19.8963 70.4985 21.3546 70.5853 22.8071 70.6853C25.5198 70.8788 28.2359 70.9783 30.9554 70.9836C31.3336 72.0625 31.745 73.1141 32.299 74.118C34.34 77.8168 37.7881 80.855 41.578 82.6821C42.6612 83.1975 43.7707 83.648 44.9066 84.0336C41.9963 88.2366 39.9343 96.2215 39.3956 101.3C39.2748 102.472 39.1665 103.646 39.0271 104.815L38.7345 104.631C38.441 104.447 38.1494 104.259 37.8598 104.069C37.57 103.879 37.2822 103.686 36.9964 103.49C36.7106 103.295 36.4268 103.096 36.145 102.894C35.8632 102.692 35.5834 102.488 35.3058 102.281C35.0281 102.074 34.7525 101.864 34.479 101.651C34.2056 101.438 33.9343 101.222 33.6653 101.004C33.3962 100.786 33.1293 100.565 32.8646 100.341C32.6 100.117 32.3376 99.8911 32.0775 99.6622C31.8174 99.4332 31.5597 99.2016 31.3044 98.9674C31.049 98.7333 30.7959 98.4966 30.5453 98.2573C30.2947 98.0181 30.0465 97.7763 29.8008 97.5319C29.5549 97.2877 29.3116 97.041 29.0709 96.7918C28.8301 96.5427 28.5919 96.2911 28.3561 96.0371C28.1205 95.7831 27.8874 95.5267 27.6569 95.2681C27.4263 95.0094 27.1984 94.7484 26.9731 94.4851C26.7479 94.2218 26.5253 93.9563 26.3054 93.6885C26.0855 93.4207 25.8683 93.1507 25.6538 92.8786C25.4393 92.6064 25.2276 92.3321 25.0186 92.0557C24.8097 91.7793 24.6036 91.5008 24.4003 91.2202C24.197 90.9396 23.9966 90.657 23.7989 90.3725C23.6013 90.0878 23.4066 89.8012 23.2148 89.5126C23.0229 89.2241 22.834 88.9336 22.648 88.6412C22.462 88.3489 22.279 88.0547 22.099 87.7586C21.9189 87.4626 21.7419 87.1647 21.5679 86.8651C21.3938 86.5655 21.2228 86.2642 21.0549 85.9611C20.8869 85.658 20.722 85.3532 20.5603 85.0468C20.3984 84.7404 20.2397 84.4324 20.0841 84.1228C19.9286 83.8132 19.7761 83.5021 19.6268 83.1895C19.4774 82.8767 19.3313 82.5625 19.1883 82.247C19.0453 81.9313 18.9055 81.6142 18.7689 81.2958C18.6323 80.9774 18.4989 80.6576 18.3688 80.3365C18.2387 80.0153 18.1118 79.6929 17.9881 79.3692C16.8331 76.3055 16.0383 73.1276 15.3274 69.9363Z" fill="#82E378"/>
<path d="M15.3274 69.9363C15.7544 69.7842 17.9289 70.1663 18.4549 70.2883C20.9943 80.3707 24.837 88.364 32.3773 95.6682C34.5461 97.7692 36.8204 99.7147 39.3956 101.3C39.2748 102.472 39.1665 103.646 39.0271 104.815L38.7345 104.631C38.441 104.447 38.1494 104.259 37.8598 104.069C37.57 103.879 37.2822 103.686 36.9964 103.49C36.7106 103.295 36.4268 103.096 36.145 102.894C35.8632 102.692 35.5834 102.488 35.3058 102.281C35.0281 102.074 34.7525 101.864 34.479 101.651C34.2056 101.438 33.9343 101.222 33.6653 101.004C33.3962 100.786 33.1293 100.565 32.8646 100.341C32.6 100.117 32.3376 99.8911 32.0775 99.6622C31.8174 99.4332 31.5597 99.2016 31.3044 98.9674C31.049 98.7333 30.7959 98.4966 30.5453 98.2573C30.2947 98.0181 30.0465 97.7763 29.8008 97.5319C29.5549 97.2877 29.3116 97.041 29.0709 96.7918C28.8301 96.5427 28.5919 96.2911 28.3561 96.0371C28.1205 95.7831 27.8874 95.5267 27.6569 95.2681C27.4263 95.0094 27.1984 94.7484 26.9731 94.4851C26.7479 94.2218 26.5253 93.9563 26.3054 93.6885C26.0855 93.4207 25.8683 93.1507 25.6538 92.8786C25.4393 92.6064 25.2276 92.3321 25.0186 92.0557C24.8097 91.7793 24.6036 91.5008 24.4003 91.2202C24.197 90.9396 23.9966 90.657 23.7989 90.3725C23.6013 90.0878 23.4066 89.8012 23.2148 89.5126C23.0229 89.2241 22.834 88.9336 22.648 88.6412C22.462 88.3489 22.279 88.0547 22.099 87.7586C21.9189 87.4626 21.7419 87.1647 21.5679 86.8651C21.3938 86.5655 21.2228 86.2642 21.0549 85.9611C20.8869 85.658 20.722 85.3532 20.5603 85.0468C20.3984 84.7404 20.2397 84.4324 20.0841 84.1228C19.9286 83.8132 19.7761 83.5021 19.6268 83.1895C19.4774 82.8767 19.3313 82.5625 19.1883 82.247C19.0453 81.9313 18.9055 81.6142 18.7689 81.2958C18.6323 80.9774 18.4989 80.6576 18.3688 80.3365C18.2387 80.0153 18.1118 79.6929 17.9881 79.3692C16.8331 76.3055 16.0383 73.1276 15.3274 69.9363Z" fill="#048BA8"/>
<path d="M91.4268 105.507C92.1468 105.818 92.9022 106.058 93.6327 106.346C90.8604 108.083 87.4151 108.997 84.2339 109.615C83.5904 109.74 82.8524 109.933 82.1977 109.94C81.1379 110.043 80.0717 110.127 79.0183 110.282C79.0482 110.209 79.0844 110.1 79.1324 110.035C79.4459 109.605 81.1106 109.774 81.6558 109.701C81.6812 109.698 81.7064 109.694 81.7318 109.69C82.6164 109.443 83.5468 109.4 84.4353 109.169C86.2556 108.696 88.0954 107.841 89.6551 106.795C90.2614 106.389 90.8254 105.922 91.4268 105.507Z" fill="#048BA8"/>
<path d="M91.6579 18.3664C92.6614 18.8009 93.616 19.2759 94.5724 19.8065C92.9223 20.7942 91.2357 21.957 89.7427 23.1684C90.4859 21.6095 91.1243 20.0089 91.6579 18.3664Z" fill="#048BA8"/>
<path d="M114.846 15.2774C116.819 15.1824 118.888 15.2926 120.857 15.4371C117.4 24.3105 109.007 31.2475 100.384 34.8295C97.5878 35.9909 94.638 36.7564 91.7013 37.4661C86.8801 38.6314 81.6522 39.1527 77.2015 41.4675C80.7207 43.9646 85.2617 49.6611 86.5138 53.7319C85.5458 53.1725 84.6306 52.5476 83.5767 52.1562C84.215 54.3275 85.0051 55.5105 85.1368 57.9518C84.2055 57.2637 83.2829 56.564 82.3691 55.8527C82.5422 57.1702 82.6455 59.0597 82.0466 60.2643C81.4783 59.9517 81.0998 59.5315 80.6682 59.0565C78.7728 62.8321 74.2946 60.8541 71.1215 60.6778C70.7332 60.6562 70.1717 60.6185 69.8056 60.7626C69.6402 60.8278 69.5529 60.9055 69.4891 61.0687C69.6769 61.4785 69.9497 61.267 70.2089 61.5185C70.1589 61.564 66.8151 62.6685 66.3074 62.86C65.9171 62.6548 65.5649 62.3447 65.1997 62.0957C64.5446 61.6436 63.8559 61.2501 63.1339 60.915C60.0124 59.4517 56.6405 58.5056 53.7645 56.5512C51.6509 55.1148 49.652 52.9717 49.1831 50.375C48.8415 48.4827 49.523 46.4225 51.1832 45.3612C52.0807 44.7876 52.9641 44.5827 53.5864 43.6349C54.766 41.8384 55.2169 39.586 56.4464 37.8135C58.1159 35.4066 61.3836 34.249 64.1419 33.7512C67.7096 35.575 70.8857 39.4959 75.2248 39.2986C75.7371 39.2754 76.2778 39.1989 76.7022 38.889C77.7036 38.1576 79.1497 35.8287 79.9671 34.7499C80.5892 33.9285 81.2703 33.1394 81.966 32.3799C84.2372 29.8999 86.5568 27.4456 89.1248 25.2686C96.482 19.0316 105.214 15.6939 114.846 15.2774Z" fill="#F1C453"/>
<path d="M113.151 18.6556C113.985 18.6525 114.821 18.6701 115.656 18.6789C114.94 19.9525 113.855 21.077 112.872 22.1486C106.61 28.9709 97.6615 31.8804 89.1617 34.8374C86.4902 35.7667 83.7914 36.6927 81.2061 37.8445C80.604 38.1346 79.9938 38.4064 79.3755 38.66C81.6747 36.5351 83.7574 34.2039 86.0171 32.0387C93.7901 24.5917 102.069 18.9549 113.151 18.6556Z" fill="#53488C"/>
<path d="M113.415 19.4624C113.649 19.4169 113.919 19.4202 114.159 19.401C106.891 27.7835 95.9463 30.94 85.954 34.792L85.2985 35.0465C86.6122 33.6572 88.1781 32.3875 89.6326 31.1481C96.4571 25.3332 104.345 20.4941 113.415 19.4624Z" fill="#F29E4D"/>
<path d="M52.1806 45.694C53.4759 45.6915 54.7787 46.2035 55.7786 47.0207C56.1967 47.3624 56.6321 47.8289 56.6702 48.395C56.6925 48.725 56.5656 49.0174 56.3351 49.2499C55.597 49.9944 54.3116 49.9969 53.3422 50.0117C53.2502 50.7034 53.1471 51.3855 53.407 52.0585C53.4222 52.0972 53.4384 52.1356 53.4556 52.1736C53.4727 52.2115 53.4907 52.249 53.5097 52.2861C53.5286 52.3232 53.5485 52.3598 53.5694 52.3958C53.5901 52.432 53.6117 52.4676 53.6342 52.5026C53.6567 52.5377 53.6801 52.5722 53.7042 52.6061C53.7284 52.64 53.7534 52.6733 53.7792 52.706C53.8051 52.7386 53.8316 52.7706 53.859 52.802C53.8864 52.8334 53.9146 52.8641 53.9435 52.8941C53.9723 52.9241 54.0019 52.9534 54.0322 52.982C54.0626 53.0105 54.0936 53.0383 54.1252 53.0654C54.1569 53.0924 54.1892 53.1186 54.2222 53.1441C54.2552 53.1695 54.2887 53.1941 54.3229 53.218C54.357 53.2418 54.3918 53.2648 54.4271 53.2869C54.4624 53.3089 54.4981 53.3302 54.5345 53.3506C54.5708 53.3709 54.6076 53.3904 54.645 53.409C54.6822 53.4276 54.7199 53.4452 54.7581 53.4619C55.7282 53.8905 56.663 53.6636 57.5921 53.284C57.6354 52.8567 57.6644 52.5429 57.9432 52.1984C58.1532 52.1517 58.353 52.1205 58.569 52.1326C58.7641 52.1436 58.9912 52.2184 59.1101 52.3854C59.2385 52.5657 59.247 52.7735 59.192 52.9807C59.043 53.5411 58.4831 54.0361 57.9864 54.2918C57.0615 54.768 55.8572 54.8572 54.8656 54.5516C54.0144 54.2892 53.2785 53.7126 52.8805 52.9087C52.4069 51.9517 52.4949 50.9201 52.8244 49.9407C52.494 49.659 52.2345 49.3681 52.0121 48.9955C51.6094 48.3204 51.2279 47.2994 51.45 46.5166C51.5719 46.0875 51.8009 45.9005 52.1806 45.694Z" fill="#53488C"/>
<path d="M64.8549 42.3001C64.9672 42.3086 65.0549 42.3267 65.1606 42.3655C65.4714 42.4794 65.725 42.7371 65.862 43.035C66.3151 44.0209 65.9901 45.4371 65.6114 46.3976C65.1797 47.4921 64.5736 48.3703 63.4697 48.857C63.385 48.8467 63.3009 48.8377 63.2177 48.8168C63.1783 48.8068 63.1395 48.7947 63.1012 48.7807C63.0631 48.7667 63.0256 48.7508 62.989 48.7331C62.9523 48.7153 62.9167 48.6958 62.882 48.6746C62.8473 48.6533 62.8138 48.6303 62.7814 48.6056C62.7489 48.581 62.7179 48.5549 62.6881 48.5271C62.6583 48.4994 62.6299 48.4702 62.6031 48.4396C62.5762 48.4091 62.5509 48.3773 62.5272 48.3441C62.5036 48.311 62.4816 48.2769 62.4612 48.2416C62.0572 47.544 62.2724 46.4495 62.4781 45.7111C62.8704 44.3027 63.5514 43.0341 64.8549 42.3001Z" fill="#53488C"/>
<path d="M56.4287 40.1211C56.5463 40.1177 56.6667 40.113 56.784 40.1242C56.9865 40.1436 57.1682 40.266 57.2917 40.4234C57.5453 40.7465 57.5478 41.1925 57.5096 41.5815C57.3637 43.0645 56.68 44.9796 55.503 45.9457C55.4271 45.9432 55.3513 45.9402 55.2758 45.9315C55.2437 45.9277 55.2118 45.9224 55.1803 45.9154C55.1488 45.9084 55.1176 45.8998 55.0868 45.8896C55.0562 45.8794 55.026 45.8677 54.9965 45.8545C54.967 45.8412 54.9382 45.8265 54.9102 45.8104C54.8822 45.7942 54.8551 45.7766 54.8288 45.7577C54.8026 45.7388 54.7774 45.7186 54.7532 45.6971C54.729 45.6756 54.706 45.6529 54.6842 45.6291C54.6623 45.6053 54.6417 45.5804 54.6223 45.5545C54.3651 45.2122 54.3712 44.7484 54.4157 44.3426C54.5847 42.803 55.1868 41.1091 56.4287 40.1211Z" fill="#53488C"/>
<path d="M61.3956 49.2187C65.5256 48.8046 70.9946 50.3103 74.2933 52.7807C73.7333 52.6062 73.1862 52.395 72.6371 52.1893C70.3294 51.3188 67.9819 50.5765 65.5402 50.1921C63.8453 49.9253 62.1862 49.8493 60.4733 49.8602C60.1773 49.8621 59.7798 49.8886 59.5154 49.7438L59.5074 49.6622C59.8541 49.2855 60.9174 49.2625 61.3956 49.2187Z" fill="#53488C"/>
<path d="M60.0139 50.4616C62.0755 50.273 65.3185 51.355 67.1172 52.3388C68.668 53.187 71.2869 55.0823 71.8107 56.8507C71.0916 56.5796 70.0454 55.3365 69.4235 54.813C68.8221 54.3072 68.1907 53.8423 67.5292 53.4181C66.0577 52.4796 64.4212 51.8521 62.737 51.4116C62.0204 51.2242 61.2749 51.0962 60.5712 50.8668C60.2929 50.7761 60.151 50.7303 60.0139 50.4616Z" fill="#53488C"/>
<path d="M60.2396 51.3782C61.243 51.3147 62.416 52.0673 63.2229 52.5848C64.6954 53.5292 66.9689 55.1813 67.3686 57.0033C66.8124 56.9141 66.0056 55.9463 65.5943 55.5386C64.8139 54.7652 64.0464 53.9955 63.1596 53.3413C62.3275 52.7276 60.8427 52.1445 60.2396 51.3782Z" fill="#53488C"/>
<path d="M66.5897 38.3237C66.6746 38.3237 66.7591 38.329 66.8432 38.3396C66.9274 38.3502 67.0106 38.366 67.0929 38.387C67.175 38.408 67.2556 38.4341 67.3345 38.4652C67.4134 38.4964 67.4901 38.5324 67.5645 38.5731C68.2527 38.9464 68.7034 39.695 68.9114 40.4339C68.9989 40.7447 69.0594 41.2249 68.9009 41.5171L68.7961 41.5399L68.6507 41.4102C67.9079 39.9572 67.3936 39.2651 65.821 38.6599C66.0741 38.5205 66.315 38.4135 66.5897 38.3237Z" fill="#53488C"/>
<path d="M58.7945 36.3207C59.1489 36.2837 59.4512 36.2684 59.7787 36.4311C60.0937 36.5877 60.3897 36.8204 60.5096 37.1592C60.46 37.3221 60.4685 37.2835 60.3324 37.3572C60.0216 37.3744 59.7357 37.2112 59.4556 37.0906C58.9484 36.9555 58.1887 37.2526 57.646 37.2501C57.6227 37.1724 57.5931 37.1424 57.6321 37.0635C57.817 36.6892 58.4152 36.4432 58.7945 36.3207Z" fill="#53488C"/>
<path d="M73.3706 86.6152C74.2383 86.7678 75.7933 87.4002 76.6601 87.7185C78.5509 88.425 80.4477 89.115 82.3506 89.7886C84.8754 90.6732 87.4607 91.5177 90.0662 92.1277C91.6163 92.4906 93.2041 92.7301 94.7676 93.0376C94.5841 95.8446 93.7214 98.6648 92.1229 100.997C89.5136 104.803 85.4261 106.715 81.0146 107.55C80.1424 107.684 79.2658 107.777 78.3848 107.827C74.7468 102.28 70.1941 96.7905 64.9325 92.7153C63.3031 91.4533 61.5457 90.3673 59.8167 89.2493C64.985 89.4667 68.7155 88.9956 73.3706 86.6152Z" fill="#048BA8"/>
<path d="M82.4711 62.1252C82.9426 62.3411 83.3896 62.6908 83.7831 63.0245C85.8316 64.7615 87.3004 67.1012 88.6114 69.4138C91.8176 75.0697 94.1032 81.1762 94.6451 87.6968C89.8529 87.3092 85.7792 85.8868 81.4631 83.8133C83.761 80.6633 85.7056 77.2571 86.2226 73.3273C86.6301 71.7323 86.3591 69.6097 85.7671 68.09C85.7584 69.5552 85.605 70.998 85.2109 72.4126C84.3 75.6817 82.1275 78.9292 79.8179 81.3994C79.7847 81.3198 79.7511 81.2403 79.717 81.161C77.7741 76.6446 74.2842 73.5128 69.7452 71.714C71.4852 69.2083 73.3409 66.4856 75.9821 64.8497C78.2282 63.4586 80.5634 63.2925 83.0894 63.89C82.6304 63.3997 82.1368 62.9474 81.6084 62.533C81.9016 62.4106 82.1855 62.2645 82.4711 62.1252Z" fill="#FBF0C3"/>
<path d="M50.577 88.0102C50.9365 87.9921 51.2887 88.0063 51.6467 88.0396C53.3905 88.2016 55.3005 88.5983 56.903 89.2966C61.619 91.3514 68.7605 97.9806 72.0709 101.934C70.6312 103.73 69.1061 105.181 67.0931 106.324C65.2812 107.283 63.3246 107.814 61.3362 108.26C61.202 108.197 61.0727 108.128 60.9427 108.057C56.6367 105.694 49.0976 98.3468 47.7374 93.5592C47.3856 92.3211 47.3989 90.9798 48.044 89.8366C48.6052 88.8423 49.4985 88.3026 50.577 88.0102Z" fill="#048BA8"/>
<path d="M92.029 4.30357C92.1397 4.30386 92.0773 4.29342 92.2098 4.35997C92.2442 4.48427 92.2651 4.59335 92.269 4.72305C92.4522 10.8755 90.8655 16.89 88.0606 22.3324C87.4981 23.424 86.9366 24.5649 86.2113 25.5591C85.6982 26.2627 85.0545 26.857 84.4498 27.4805C83.6416 28.3156 82.8391 29.1562 82.0425 30.0022C81.1202 28.4929 80.0977 27.1335 78.8831 25.8465C77.512 24.4656 76.051 23.2637 74.4048 22.2257C74.7168 21.2566 75.0558 20.3019 75.4795 19.3751C78.6321 12.4778 84.9705 6.93267 92.029 4.30357Z" fill="#F1C453"/>
<path d="M68.348 76.7931C71.1066 78.2946 73.5381 80.3814 74.9481 83.2296C70.2499 86.9802 62.8275 88.0401 56.9944 87.2434C55.1006 86.9848 52.4657 86.2416 50.6109 86.5518C49.5669 86.7264 48.9256 87.4056 47.99 87.7572C47.8567 87.6947 47.864 87.6871 47.8022 87.5513C47.8135 87.3025 47.9429 87.0713 48.0664 86.86C48.9975 85.2668 50.6076 84.5857 52.3244 84.1265C52.5385 84.0596 52.7535 84.0146 52.8882 83.8222L52.8502 83.7158C52.3379 83.4297 51.5155 83.6007 50.9687 83.7429C49.1412 84.2186 48.1651 85.3082 47.2387 86.8903C47.0811 86.1348 47.1167 85.4487 47.4597 84.745C48.0491 83.5352 49.4609 82.752 50.72 82.4341C51.2665 82.2962 51.8856 82.2465 52.4126 82.0552C52.5295 82.0128 52.5732 82.0102 52.626 81.8932C52.5636 81.8472 52.5535 81.8351 52.4709 81.8016C51.8381 81.5448 50.6809 81.6684 50.0576 81.9386C49.2685 82.2807 48.5675 82.6171 47.8604 83.1097C48.0357 82.9017 48.2138 82.6961 48.3946 82.4929C50.6 80.0206 52.6772 80.4032 55.6616 80.8711C56.9756 81.077 58.301 81.2192 59.6327 81.139C63.4026 80.9116 65.8674 79.5862 68.348 76.7931Z" fill="#F1C453"/>
<path d="M45.8415 85.098C46.0794 85.3643 45.9311 85.9576 45.9354 86.3022C45.9462 87.2041 46.3041 87.7103 46.9145 88.3233C46.13 89.4799 45.5629 90.5631 45.5606 91.9908C45.5534 96.5847 50.617 101.852 53.6985 104.917C53.5033 106.54 53.4853 108.226 53.4396 109.86C52.2792 110.151 51.013 110.176 49.8232 110.237C46.7954 110.13 43.1767 109.88 40.5477 108.255C40.584 101.528 41.7125 94.7297 44.2482 88.4801C44.7096 87.3431 45.1411 86.1125 45.8415 85.098Z" fill="#048BA8"/>
<path d="M102.281 84.5071C103.764 85.1592 105.282 87.423 105.85 88.8928C106.488 90.544 106.376 91.9408 105.688 93.5452C106.554 93.4463 106.976 93.3685 107.63 92.7633C107.588 95.3038 106.711 97.852 104.847 99.6365C103.905 100.538 102.768 101.087 101.576 101.582L103.373 102.307C101.18 104.278 97.9444 105.156 95.0339 104.996C94.2097 104.951 93.45 104.745 92.7534 104.294C92.999 104.006 93.2471 103.72 93.4978 103.436C93.632 103.273 93.7634 103.108 93.8918 102.94C94.0201 102.773 94.1455 102.603 94.2678 102.431C94.39 102.259 94.5092 102.084 94.6253 101.908C94.7413 101.732 94.8541 101.553 94.9638 101.373C95.0734 101.192 95.1797 101.01 95.2829 100.826C95.386 100.642 95.4858 100.456 95.5823 100.268C95.6787 100.08 95.7718 99.8907 95.8614 99.6996C95.9511 99.5084 96.0373 99.3157 96.12 99.1216C96.2029 98.9273 96.2822 98.7317 96.3579 98.5347C96.4337 98.3376 96.5059 98.1392 96.5745 97.9396C96.6431 97.74 96.7082 97.5392 96.7697 97.3372C96.8311 97.1352 96.8889 96.9322 96.943 96.7282C96.9973 96.5241 97.0478 96.3192 97.0947 96.1133C97.1415 95.9075 97.1846 95.7009 97.224 95.4935C97.2635 95.286 97.2992 95.078 97.3312 94.8693C97.3632 94.6607 97.3914 94.4515 97.4159 94.2418C97.5075 93.4147 97.3133 92.4858 97.6779 91.7126C97.9412 91.1542 98.5354 90.7572 98.9605 90.3213C100.376 88.8695 101.992 86.5475 102.281 84.5071Z" fill="#F1C453"/>
<path d="M102.281 84.5071C103.764 85.1592 105.282 87.423 105.85 88.8928C106.488 90.544 106.376 91.9408 105.688 93.5452C106.554 93.4463 106.976 93.3685 107.63 92.7633C107.588 95.3038 106.711 97.852 104.847 99.6365C103.905 100.538 102.768 101.087 101.576 101.582L103.373 102.307C101.18 104.278 97.9444 105.156 95.0339 104.996C94.2097 104.951 93.45 104.745 92.7534 104.294C92.999 104.006 93.2471 103.72 93.4978 103.436C95.4258 104.164 99.1233 102.916 100.936 102.102C100.498 101.616 100.027 101.178 99.5174 100.767C100.287 100.399 101.099 100.071 101.839 99.6488C103.752 98.5591 104.889 96.7727 105.974 94.9223C104.949 95.0008 103.927 95.1157 102.91 95.2668C105.58 92.272 104.856 89.6836 103.119 86.4008C102.801 85.7985 102.313 85.2117 102.281 84.5071Z" fill="#FBF0C3"/>
<path d="M11.6406 54.373C12.9867 51.7296 15.1974 49.8615 18.0216 48.9551C20.8081 48.0608 23.8586 48.2128 26.4689 49.5787C28.8672 50.8336 30.489 53.116 31.2922 55.6691C31.3599 55.884 31.4281 56.1193 31.3545 56.3367C31.1804 56.4451 31.0097 56.5008 30.8147 56.5618C29.9512 56.7677 29.0962 56.9981 28.221 57.1516C27.0449 57.3578 25.8297 57.4657 24.6409 57.5717C19.9696 57.9886 15.2694 57.888 10.7273 56.6312C10.9416 55.8578 11.1878 55.044 11.6406 54.373Z" fill="#F29E4D"/>
<path d="M11.6406 54.373C12.9867 51.7296 15.1974 49.8615 18.0216 48.9551C20.8081 48.0608 23.8586 48.2128 26.4689 49.5787C28.8672 50.8336 30.489 53.116 31.2922 55.6691C31.3599 55.884 31.4281 56.1193 31.3545 56.3367C31.1804 56.4451 31.0097 56.5008 30.8147 56.5618L30.7419 56.2918C30.0484 53.7595 28.6515 51.3485 26.3091 50.0255C22.5127 47.8813 17.3511 48.8176 14.1894 51.6681C13.7071 52.1028 13.2435 52.5782 12.8371 53.0851C12.5197 53.4807 12.2321 53.9426 11.8613 54.2877C11.7987 54.3461 11.7219 54.3507 11.6406 54.373Z" fill="#82E378"/>
<path d="M19.6523 51.5123C19.9795 51.4977 20.3004 51.4617 20.5838 51.6532C20.6544 51.7895 20.6744 51.8216 20.6113 51.9773C20.4598 52.3515 19.9694 52.5597 19.6315 52.7222C19.4368 52.7733 19.1621 52.8625 18.96 52.8092C18.7749 52.7606 18.7479 52.7163 18.6428 52.5692C18.6305 52.4152 18.6389 52.3116 18.7123 52.1718C18.919 51.778 19.2495 51.6455 19.6523 51.5123Z" fill="#53488C"/>
<path d="M24.7447 53.7481C24.9747 53.7622 25.2647 53.8123 25.4296 53.984C25.4577 54.0898 25.4826 54.1193 25.4476 54.2286C25.3032 54.6782 24.6486 54.9897 24.2581 55.1942C24.1121 55.194 23.929 55.1663 23.7935 55.1115C23.643 55.0505 23.5995 54.971 23.54 54.8292C23.548 54.734 23.5575 54.6498 23.6041 54.5641C23.8454 54.1212 24.2837 53.892 24.7447 53.7481Z" fill="#53488C"/>
<path d="M15.2179 53.6181C15.2665 53.6357 15.3149 53.6541 15.363 53.6735C15.5451 53.7475 15.6764 53.8181 15.7476 54.0135C15.7995 54.156 15.7539 54.2913 15.6811 54.4181C15.4632 54.7973 14.9732 55.0136 14.5784 55.1375C14.4617 55.1175 14.2931 55.0673 14.2002 54.9891C14.1006 54.905 14.05 54.8102 14.0749 54.6782C14.1655 54.198 14.8175 53.8226 15.2179 53.6181Z" fill="#53488C"/>
<path d="M22.8511 49.88C23.4514 49.862 24.2074 49.935 24.7369 50.2531C24.8564 50.3248 24.9183 50.3578 24.9515 50.4993C24.8413 50.6461 24.7723 50.6643 24.6084 50.7391C24.0646 50.7602 23.2125 50.8083 22.7229 50.5456C22.5794 50.4685 22.5449 50.4148 22.5075 50.2615C22.5731 50.0674 22.6936 49.9952 22.8511 49.88Z" fill="#53488C"/>
<path d="M26.655 51.7438C27.1741 51.7345 27.8997 51.7947 28.2982 52.1637C28.4885 52.34 28.5105 52.4942 28.5139 52.7452C28.0346 52.7575 27.1686 52.8178 26.8216 52.428C26.6234 52.2053 26.6371 52.0238 26.655 51.7438Z" fill="#53488C"/>
<path d="M17.386 50.0617C17.6531 50.055 17.8939 50.0403 18.1326 50.1725C18.2346 50.3148 18.2311 50.3068 18.2104 50.481C17.9728 50.8378 17.7214 50.938 17.3315 51.0865C17.1146 51.1562 16.9048 51.1955 16.6903 51.1027C16.6069 50.957 16.587 50.932 16.6349 50.7591C16.738 50.3873 17.0685 50.2187 17.386 50.0617Z" fill="#53488C"/>
<path d="M38.8079 70.5885L39.4647 70.5503C40.6207 71.8481 41.9259 72.9128 43.4728 73.7156C46.9576 75.5242 49.8188 75.6677 53.5186 74.494C54.1216 75.6445 54.7145 76.8003 55.2974 77.9611C55.0509 78.4673 54.8423 78.999 54.6184 79.5161C54.3154 79.4438 54.0101 79.3698 53.7001 79.3358C51.5888 79.1038 49.8139 79.809 48.1823 81.1045C47.6701 81.6132 47.2251 82.1882 46.7677 82.7458C45.8389 82.5346 44.9295 82.259 44.0397 81.9191C38.8641 79.9192 34.5441 76.0381 32.2831 70.94C34.4655 70.8693 36.6316 70.7676 38.8079 70.5885Z" fill="#F1C453"/>
<path d="M68.3153 22.463C68.9486 22.4129 69.6262 22.4907 70.2495 22.6012C75.0778 23.4567 78.1313 27.7075 80.7358 31.4494C79.6148 32.759 78.5832 34.0994 77.614 35.5249L77.5335 35.5876C77.4152 35.5802 77.3516 35.5465 77.2613 35.4745C76.6622 34.997 76.1447 34.239 75.612 33.6759C74.6985 32.7104 73.6297 31.8621 72.5253 31.1255C71.6727 30.5567 70.7663 30.0132 69.8382 29.579C68.8755 29.1286 67.7282 28.831 66.8902 28.1661C66.0438 27.4945 65.4126 26.2966 65.329 25.2229C65.278 24.5675 65.4458 23.9064 65.8821 23.4036C66.5095 22.6806 67.4162 22.5356 68.3153 22.463Z" fill="#048BA8"/>
<path d="M32.7402 63.5891C33.0249 63.5577 33.3221 63.5642 33.6089 63.5545C33.4909 63.939 33.3512 64.332 33.2717 64.7263C33.2026 65.0695 33.2157 65.4103 33.4214 65.705C34.2219 66.8526 37.0142 67.5245 38.307 67.7582C38.8716 67.8603 39.5054 67.9705 40.0804 67.9165C41.4946 67.7836 47.1612 66.3975 48.2007 65.6202C48.6152 65.3103 48.6514 64.8521 48.7234 64.3785C49.3845 64.537 50.1104 64.6755 50.6886 65.0508C50.8684 65.1675 51.0761 65.3506 51.0951 65.5802C51.1115 65.7775 50.9864 65.961 50.8517 66.0912C50.0194 66.8961 48.2865 67.1812 47.1904 67.4382C40.4904 69.0088 33.4576 69.3886 26.5936 69.1442C25.3961 69.1242 24.1996 69.079 23.004 69.0085C21.8084 68.9379 20.6148 68.8421 19.4232 68.7212C18.2317 68.6002 17.0433 68.4541 15.8579 68.283C14.6725 68.1119 13.4913 67.9158 12.3142 67.6947C10.9149 67.4227 9.47816 67.15 8.12031 66.7075C7.67248 66.5615 7.19106 66.3866 6.96895 65.9432C6.96578 65.769 6.96361 65.6791 7.07253 65.5362C7.64316 64.7875 10.7803 64.2761 11.7719 64.083C11.877 64.6823 12.0212 65.3387 12.3355 65.8667C12.5285 66.191 12.7609 66.413 13.133 66.5057C14.5671 66.8628 16.2851 66.6702 17.7637 66.698C19.9177 66.7425 22.072 66.7613 24.2265 66.7546C25.3792 66.7563 26.5592 66.8088 27.7081 66.725C28.209 66.6883 28.9586 66.6393 29.3886 66.3656C30.3362 65.7623 30.4396 64.7728 30.6591 63.7672C31.3494 63.671 32.0452 63.6348 32.7402 63.5891Z" fill="#048BA8"/>
<path d="M45.3 111.902C47.95 112.48 50.366 112.4 53.0204 112.036C52.8984 113.886 52.5735 115.799 52.0895 117.588C49.8574 118.372 47.3244 118.652 44.998 119.047C43.1835 119.375 41.347 119.606 39.5189 119.844C39.3219 118.393 38.8684 117.215 38.0709 115.988C38.5871 115.867 39.1185 115.624 39.6541 115.619C40.123 115.615 40.7212 115.888 41.1662 115.72C41.5494 115.576 41.7446 115.15 41.9094 114.805C42.2049 114.821 42.5025 114.842 42.7922 114.769C43.4446 114.605 45.1471 113.983 45.4541 113.411C45.7046 112.944 45.4469 112.36 45.3 111.902Z" fill="#048BA8"/>
<path d="M32.2156 113.085C33.2077 112.933 34.3477 113.342 35.1497 113.907C37.1172 115.293 37.8967 117.726 38.2981 119.988C37.3399 120.058 36.386 120.197 35.4274 120.268C34.0943 120.361 32.7597 120.394 31.4236 120.369C29.3155 120.19 27.2832 119.973 25.2401 119.398C25.4779 118.151 25.917 117.013 26.6944 115.999C28.0821 114.189 30.0077 113.384 32.2156 113.085Z" fill="#FBF0C3"/>
<path d="M65.0164 109.316L65.0822 109.284C65.8439 108.917 66.6487 108.643 67.4169 108.287C69.8625 107.154 71.7065 105.594 73.4174 103.536C74.4459 104.977 75.4452 106.499 76.5952 107.845C75.1102 108.851 73.7399 109.986 72.3211 111.081L66.0302 115.863C64.6319 114.617 63.2981 113.881 61.4979 113.354C60.3152 113.105 59.1837 113.033 57.9794 112.991C58.2032 112.767 58.4461 112.566 58.6874 112.361C59.7873 112.698 60.9031 112.969 62.0347 113.176C62.5931 113.233 63.3899 113.365 63.8626 112.981C64.1207 112.772 64.2339 112.485 64.247 112.159C64.2526 112.021 64.249 111.883 64.2456 111.746C64.8657 111.759 65.6422 111.813 66.1167 111.326C66.2747 111.164 66.3615 110.944 66.3422 110.717C66.3104 110.34 66.0265 109.992 65.7367 109.769C65.5137 109.597 65.2621 109.452 65.0164 109.316Z" fill="#048BA8"/>
<path d="M75.1969 63.1136C75.658 63.0962 76.1372 63.2093 76.5924 63.2852C76.2702 63.4535 75.9532 63.6311 75.6415 63.818C75.3297 64.0049 75.0237 64.2007 74.7235 64.4055C74.4232 64.6103 74.1292 64.8237 73.8415 65.0457C73.5537 65.2678 73.2727 65.4981 72.9985 65.7366C72.7242 65.9751 72.4571 66.2214 72.1972 66.4756C71.9374 66.7297 71.6852 66.9912 71.4407 67.2601C71.1962 67.529 70.9598 67.8049 70.7315 68.0877C70.5032 68.3705 70.2833 68.6597 70.0719 68.9553C69.5332 69.7195 69.0839 70.5588 68.6035 71.3611L67.8894 71.1621C66.9331 72.0226 65.6751 73.438 65.4585 74.7588C65.3171 75.6208 65.7666 76.2355 66.2529 76.8847C66.073 77.0792 65.8892 77.27 65.7015 77.4572C63.2214 79.8916 60.0138 79.9667 56.7446 79.9352C57.0918 78.8491 57.697 77.8307 58.1803 76.7976C59.0145 75.0177 59.8096 73.2206 60.5656 71.4062C61.6196 68.8245 62.4399 67.2237 64.4869 65.2543C63.8661 66.681 60.5755 73.7136 61.0759 74.9535C61.1936 75.2451 61.6046 75.3997 61.8774 75.497C62.3961 75.6818 63.2859 75.8917 63.7958 75.6361C64.9406 75.0621 66.096 69.4548 66.5387 68.0672C66.7952 68.5123 67.0964 68.9106 67.4381 69.2928C70.1457 67.4248 72.5842 65.1296 75.1969 63.1136Z" fill="#048BA8"/>
<path d="M58.1063 113.9C58.135 113.895 58.1635 113.89 58.1921 113.887C60.7793 113.619 63.2616 115.051 65.1458 116.675C63.2167 118.014 61.2315 119.24 59.2193 120.448C58.084 121.144 56.9249 121.798 55.7421 122.411C54.7712 121.516 54.0598 120.33 53.9092 119.002C53.7641 117.723 54.2067 116.407 55.0162 115.416C55.8295 114.42 56.8588 114.031 58.1063 113.9Z" fill="#FBF0C3"/>
<path d="M55.4786 27.639C59.6735 27.4695 65.6715 28.9616 69.4266 30.8841C69.9915 31.1738 70.5377 31.4953 71.0652 31.8486C71.5926 32.2019 72.0978 32.5847 72.5806 32.997C73.2795 33.5949 76.4462 36.6839 76.3961 37.3747C76.38 37.597 76.264 37.6802 76.1258 37.8376C75.6257 37.9586 75.0452 37.897 74.544 37.8027C70.995 37.1352 67.2215 33.7339 64.2418 31.7331C63.0175 30.911 61.7241 30.2232 60.3926 29.592C59.4392 29.14 58.453 28.7299 57.4326 28.4551C56.8876 28.3085 56.297 28.2316 55.7685 28.0372C55.5952 27.9735 55.4958 27.928 55.3921 27.7747L55.4786 27.639Z" fill="#048BA8"/>
<path d="M38.889 56.9925C38.8077 56.83 38.7121 56.7397 38.7665 56.5597C39.185 56.3876 40.843 56.9962 41.2845 57.1801C43.7326 58.2001 45.6221 60.0351 46.6327 62.4975C46.7927 62.8875 47.3901 64.164 47.2217 64.5126C47.1687 64.6221 46.9737 64.69 46.8637 64.7428C46.2314 64.8492 45.5421 65.2316 44.9114 65.4163C43.49 65.8327 42.013 66.1171 40.5655 66.4307C40.5546 63.117 40.0949 60.0858 38.889 56.9925Z" fill="#F29E4D"/>
<path d="M38.889 56.9925C38.8077 56.83 38.7121 56.7397 38.7665 56.5597C39.185 56.3876 40.843 56.9962 41.2845 57.1801C43.7326 58.2001 45.6221 60.0351 46.6327 62.4975C46.7927 62.8875 47.3901 64.164 47.2217 64.5126C47.1687 64.6221 46.9737 64.69 46.8637 64.7428C46.6235 64.3698 46.5219 63.7251 46.3759 63.287C46.3098 63.0904 46.2377 62.8961 46.1596 62.7041C46.0815 62.512 45.9974 62.3226 45.9075 62.1357C45.8176 61.9489 45.7219 61.7651 45.6205 61.5842C45.5192 61.4033 45.4122 61.2258 45.2997 61.0516C45.1873 60.8773 45.0696 60.7068 44.9465 60.54C44.8235 60.3731 44.6954 60.2102 44.5621 60.0513C44.429 59.8924 44.291 59.7378 44.1481 59.5875C44.0053 59.4372 43.8579 59.2915 43.706 59.1503C42.385 57.9085 40.7447 56.9381 38.889 56.9925Z" fill="#82E378"/>
<path d="M44.0469 60.2628C44.2894 60.3293 44.4651 60.4012 44.6506 60.5775C44.864 60.7803 45.0154 61.0355 45.0098 61.3377C45.0049 61.5992 44.8821 61.7252 44.7099 61.9026C44.5288 61.868 44.3344 61.8342 44.1761 61.7351C43.9764 61.6101 43.8184 61.4125 43.7729 61.178C43.7021 60.8137 43.8538 60.5571 44.0469 60.2628Z" fill="#53488C"/>
<path d="M41.4882 62.425C41.6021 62.4742 41.7366 62.5285 41.8341 62.6067C41.9571 62.7055 42.036 62.8337 42.0416 62.9945C42.0483 63.1891 41.8818 63.3526 41.7643 63.4901C41.6236 63.4656 41.4645 63.435 41.3497 63.3425C41.2701 63.2783 41.2142 63.1967 41.1992 63.0963C41.157 62.8131 41.3233 62.6316 41.4882 62.425Z" fill="#53488C"/>
<path d="M41.5159 58.5252C41.6543 58.5425 41.8089 58.5783 41.9224 58.665C42.0521 58.7638 42.1209 58.8942 42.1255 59.0587C42.131 59.2536 41.9946 59.3931 41.8753 59.5283C41.7364 59.5128 41.5784 59.4878 41.4606 59.4057C41.3699 59.3423 41.3056 59.2635 41.2838 59.156C41.2295 58.8887 41.3679 58.7272 41.5159 58.5252Z" fill="#53488C"/>
<path d="M10.3733 57.9488C16.3116 60.644 25.5864 59.6735 31.6891 57.9311C31.8203 58.3118 31.8868 58.69 31.9533 59.0857C31.6903 59.5422 31.3485 60.157 30.797 60.2896C30.1124 60.4541 29.5449 59.759 29.012 59.4341L28.9374 59.3893C28.6638 59.6337 28.4615 59.8802 28.2589 60.1832C27.8675 60.8433 27.3841 61.5115 26.6091 61.7406C24.8021 62.2748 24.051 60.3607 23.0459 59.8132C22.3501 59.8093 21.928 61.6178 20.8575 62.2122C20.0913 62.6376 19.0936 62.6151 18.2674 62.3758C17.1608 62.0552 16.7645 61.2981 16.2686 60.3623C16.096 60.0366 15.9196 59.6972 15.5464 59.5837C15.0273 59.7195 14.6424 60.764 14.1418 61.1043C13.664 61.4291 13.0606 61.5022 12.502 61.3937C11.7672 61.251 10.9106 60.7651 10.4901 60.1296C10.0278 59.4311 10.2155 58.7057 10.3733 57.9488Z" fill="#048BA8"/>
<path d="M80.7632 84.6646C81.1051 84.8026 81.4518 85.0367 81.7785 85.2131C82.5128 85.6098 83.2522 86.0048 84.0153 86.3441C87.6841 87.9752 90.7945 88.5891 94.7537 89.1061C94.7685 89.9445 94.7678 90.7829 94.7516 91.6213L92.6378 91.3079C87.6998 90.7582 82.8521 88.8837 78.2775 87.0372C79.1413 86.2758 79.9555 85.4851 80.7632 84.6646Z" fill="#048BA8"/>
<path d="M29.127 61.352L29.9756 61.597C29.6129 62.7083 29.4042 64.0201 28.7854 65.0178C26.6085 65.7637 16.286 65.2703 13.5152 65.1207C13.1674 64.3855 12.9282 63.5978 12.685 62.8231C13.7914 62.6956 14.5571 62.586 15.3637 61.7532C15.7552 62.2451 16.1426 62.719 16.6554 63.0907C17.6576 63.8173 19.0247 64.0183 20.2281 63.8248C21.5752 63.6082 22.4142 62.8735 23.1941 61.8021C23.4396 62.0461 23.683 62.2917 23.9665 62.4921C24.0152 62.5268 24.0648 62.5602 24.1152 62.5923C24.1656 62.6245 24.2167 62.6554 24.2687 62.6851C24.3207 62.7148 24.3733 62.7431 24.4266 62.7701C24.4799 62.7971 24.5339 62.8228 24.5886 62.8472C24.6432 62.8716 24.6984 62.8945 24.7541 62.9161C24.8099 62.9377 24.8662 62.9579 24.923 62.9767C24.9797 62.9955 25.0369 63.0128 25.0946 63.0288C25.1522 63.0448 25.2102 63.0593 25.2686 63.0723C25.3269 63.0854 25.3856 63.0971 25.4445 63.1072C25.5034 63.1174 25.5626 63.1261 25.622 63.1333C25.6813 63.1405 25.7408 63.1463 25.8005 63.1506C25.8602 63.1548 25.9199 63.1576 25.9796 63.1588C26.0394 63.1602 26.0992 63.16 26.159 63.1583C26.2187 63.1566 26.2784 63.1534 26.3381 63.1488C26.3977 63.1442 26.4572 63.1381 26.5165 63.1305C26.5758 63.1228 26.6349 63.1137 26.6937 63.1032C27.8179 62.9065 28.4975 62.2421 29.127 61.352Z" fill="#F29E4D"/>
<path d="M68.2504 72.2885C68.857 72.4992 69.4572 72.7267 70.0511 72.971C74.1239 74.6898 77.3287 78.2368 78.9716 82.2946C78.5263 82.8251 78.0796 83.3495 77.6077 83.8567C76.9334 82.6975 76.5058 81.451 75.7263 80.3323C73.7451 77.4892 70.3324 74.5982 66.8463 73.9692C67.2714 73.3701 67.7447 72.8205 68.2504 72.2885Z" fill="#FBF0C3"/>
<path d="M37.2817 56.5303C37.3709 56.5605 37.424 56.5893 37.4928 56.6588C37.902 57.0713 38.0981 57.8928 38.2535 58.4332C39.0326 61.1418 39.3138 63.8382 39.3131 66.6518L37.0316 66.0742C36.1707 65.8053 35.1295 65.4976 34.3967 64.9622C34.9421 63.156 36.3151 57.7027 37.2817 56.5303Z" fill="#FBF0C3"/>
<path d="M51.894 118.763C51.9391 118.77 51.9124 118.762 51.972 118.808C52.1601 118.953 52.1894 119.517 52.2197 119.753C43.2369 121.856 34.3245 124.037 25.1391 121.763C25.0579 121.723 24.9795 121.705 24.9299 121.625C24.7614 121.351 24.9077 120.881 24.962 120.582C30.5712 122.26 36.1849 121.678 41.8817 120.783C45.2546 120.285 48.592 119.611 51.894 118.763Z" fill="#FBF0C3"/>
<path d="M77.2711 109.053C77.4822 109.281 77.6097 109.553 77.7539 109.826C76.4646 111.039 75.0544 112.127 73.6741 113.233C68.6825 117.234 62.5024 121.697 56.7049 124.325L56.0209 123.531C57.8995 122.679 59.6824 121.58 61.4425 120.51C63.2192 119.446 64.9632 118.332 66.6745 117.166C68.3858 116 70.0615 114.784 71.7014 113.52C73.5794 112.061 75.356 110.46 77.2711 109.053Z" fill="#FBF0C3"/>
<path d="M85.6369 40.3959C85.7457 40.3734 85.8386 40.356 85.9507 40.3591C86.0522 40.362 86.0757 40.378 86.1379 40.4621C86.301 40.6831 86.3504 41.1151 86.4144 41.3826C86.612 42.2094 86.939 43.0652 86.7471 43.9275C86.4905 45.0806 85.2199 45.7292 84.2911 46.2954C83.8072 45.7391 83.3314 45.1759 82.8637 44.6058C81.9929 43.5502 80.9547 42.5877 79.9591 41.6529C81.7645 40.9826 83.7461 40.7037 85.6369 40.3959Z" fill="#048BA8"/>
<path d="M72.6444 62.3143C73.0098 62.35 73.3742 62.473 73.7284 62.5671C72.8703 63.3181 71.8891 63.9325 71.0271 64.6846C69.9529 65.6217 68.6118 67.1187 67.4776 67.8673C66.8386 66.7598 66.5157 65.5251 66.2261 64.2907C68.3133 63.5241 70.5151 62.9611 72.6444 62.3143Z" fill="#FBF0C3"/>
<path d="M55.9007 106.532C57.1645 107.539 58.4695 108.489 59.8157 109.383C59.5145 109.727 59.2327 110.096 58.922 110.43C57.8231 111.564 56.5257 112.62 55.1972 113.473C55.4455 111.921 55.5905 110.339 55.7591 108.776C55.7653 108.045 55.7723 107.251 55.9007 106.532Z" fill="#FBF0C3"/>
<path d="M55.9007 106.532C57.1645 107.539 58.4695 108.489 59.8157 109.383C59.5145 109.727 59.2327 110.096 58.922 110.43C57.801 109.978 56.7815 109.415 55.7591 108.776C55.7653 108.045 55.7723 107.251 55.9007 106.532Z" fill="#048BA8"/>
<path d="M60.1877 66.6206L60.236 66.6698C60.4836 67.6953 58.0629 72.2273 57.4774 73.3801C57.2234 72.9749 56.9714 72.5684 56.7216 72.1606C56.3526 71.5652 55.9337 71.0513 55.4589 70.5367C57.1096 69.3216 58.5331 67.83 60.1877 66.6206Z" fill="#FBF0C3"/>
<path d="M65.2492 66.0306C65.552 66.3887 65.7333 66.895 65.9298 67.32C65.6764 67.6668 65.4485 68.0297 65.246 68.4086C65.0435 68.7875 64.8686 69.1787 64.7212 69.5822C64.376 70.5202 63.6272 74.1031 63.1718 74.5863L63.0466 74.5816C62.7562 74.4842 62.4752 74.3471 62.1946 74.2245C62.8312 71.6928 64.0166 68.3316 65.2492 66.0306Z" fill="#FBF0C3"/>
<path d="M54.5367 71.119C55.2306 71.4406 56.4867 74.073 56.8353 74.8286C56.6965 75.09 56.5425 75.4575 56.3273 75.6561C56.2271 75.7488 56.2027 75.7468 56.0746 75.7435L55.9431 75.5771C55.1736 74.2612 54.2957 72.9478 53.2046 71.8791C53.6397 71.6135 54.0936 71.3715 54.5367 71.119Z" fill="#FBF0C3"/>
<path d="M62.9932 62.907C63.666 63.1752 64.2831 63.5616 64.8982 63.9393C64.1589 64.4665 63.4332 65.0118 62.7211 65.5751C62.3551 65.8683 62.0387 66.1971 61.7328 66.5513C62.0046 65.2611 62.3216 64.0515 62.9932 62.907Z" fill="#FBF0C3"/>
<path d="M61.1307 109.498C62.399 109.469 64.0942 109.718 65.1307 110.512C65.2558 110.608 65.3071 110.659 65.333 110.819C65.1953 110.949 65.0396 110.938 64.8616 110.951C63.4156 110.553 61.9838 110.211 60.4938 110.024C60.7005 109.843 60.9183 109.673 61.1307 109.498Z" fill="#FBF0C3"/>
<path d="M37.9782 111.708C38.0152 111.719 38.0525 111.73 38.089 111.743C38.7725 111.983 40.5925 113.828 40.868 114.508C40.9445 114.697 40.8858 114.791 40.8207 114.969C40.1222 114.8 38.3257 112.825 37.899 112.193C37.849 111.994 37.9033 111.887 37.9782 111.708Z" fill="#FBF0C3"/>
<path d="M42.1427 110.349C42.3634 110.395 42.5569 110.465 42.7424 110.595C43.3251 111.003 44.4527 112.078 44.5402 112.816C44.5635 113.012 44.4694 113.123 44.3607 113.273C43.5537 112.497 42.6044 111.663 41.965 110.744C41.9416 110.55 42.0289 110.501 42.1427 110.349Z" fill="#FBF0C3"/>
<path d="M36.2863 112.488C36.3026 112.495 36.3193 112.5 36.3351 112.508C36.8665 112.777 38.2877 114.36 38.4768 114.933C38.372 115.092 38.1848 115.141 38.0158 115.212C37.5712 115.029 36.1921 113.279 35.8088 112.812C35.9311 112.663 36.1192 112.582 36.2863 112.488Z" fill="#FBF0C3"/>
<path d="M40.2 111.282C40.2908 111.291 40.3806 111.298 40.4698 111.318C41.1969 111.483 42.247 112.72 42.6119 113.347C42.7613 113.604 42.8129 113.748 42.7368 114.039C42.686 114.027 42.6349 114.017 42.5849 114.003C42.2029 113.891 40.3351 112.019 40.1469 111.599C40.101 111.497 40.1674 111.385 40.2 111.282Z" fill="#FBF0C3"/>
<path d="M59.9337 111.17C60.0386 111.172 60.1435 111.176 60.2483 111.182C60.8431 111.215 62.9108 111.553 63.2531 112.072C63.356 112.228 63.3305 112.279 63.2982 112.451C62.3575 112.207 60.6333 112.115 59.857 111.609C59.8113 111.427 59.8706 111.344 59.9337 111.17Z" fill="#FBF0C3"/>
</svg>
