<svg width="160" height="160" viewBox="0 0 160 160" fill="none" xmlns="http://www.w3.org/2000/svg">
<path d="M42.5031 21.1363C45.7663 18.8517 49.9097 16.8825 53.6089 15.3971C66.3319 10.288 79.268 8.78938 92.8027 11.18C93.3488 11.2793 93.8937 11.3851 94.4372 11.4975C94.9808 11.6099 95.5229 11.7288 96.0636 11.8543C96.6044 11.9797 97.1435 12.1117 97.681 12.2501C98.2186 12.3886 98.7544 12.5335 99.2883 12.6849C99.8224 12.8363 100.355 12.9941 100.885 13.1583C101.415 13.3225 101.943 13.4931 102.469 13.67C102.995 13.8469 103.519 14.0302 104.041 14.2198C104.563 14.4094 105.082 14.6052 105.599 14.8073C106.116 15.0094 106.63 15.2177 107.142 15.4322C107.654 15.6467 108.164 15.8674 108.67 16.0942C109.177 16.321 109.681 16.5539 110.182 16.7928C110.683 17.0317 111.181 17.2766 111.676 17.5277C112.171 17.7786 112.663 18.0355 113.152 18.2983C113.641 18.5611 114.127 18.8298 114.609 19.1042C115.091 19.3788 115.571 19.6591 116.046 19.9452C116.522 20.2312 116.994 20.523 117.463 20.8205C117.931 21.1179 118.396 21.4209 118.858 21.7297C119.319 22.0383 119.776 22.3525 120.23 22.6722C120.684 22.9919 121.134 23.317 121.58 23.6477C122.026 23.9782 122.468 24.3141 122.905 24.6553C123.343 24.9965 123.777 25.3429 124.206 25.6945C124.636 26.0462 125.061 26.403 125.482 26.765C125.903 27.1269 126.319 27.4938 126.731 27.8658C127.143 28.2378 127.55 28.6146 127.953 28.9964C128.356 29.3782 128.755 29.7647 129.148 30.1561C129.542 30.5476 129.931 30.9437 130.315 31.3444C130.699 31.7452 131.078 32.1506 131.452 32.5605C131.826 32.9704 132.196 33.3847 132.56 33.8034C132.924 34.2223 133.283 34.6455 133.638 35.073C133.992 35.5004 134.34 35.932 134.684 36.368C135.028 36.8039 135.366 37.2439 135.699 37.6878C136.032 38.1319 136.36 38.5799 136.682 39.0319C139.157 42.5714 141.373 46.2017 143.229 50.1081C143.418 50.5033 143.604 50.9004 143.785 51.2992C143.966 51.6981 144.144 52.0986 144.317 52.5008C144.491 52.903 144.661 53.3068 144.826 53.7123C144.992 54.1179 145.154 54.5249 145.312 54.9334C145.47 55.3421 145.624 55.7522 145.775 56.1637C145.925 56.5753 146.071 56.9883 146.213 57.4026C146.355 57.817 146.494 58.2327 146.628 58.6497C146.762 59.0668 146.892 59.485 147.018 59.9045C147.145 60.3241 147.267 60.7448 147.385 61.1667C147.503 61.5886 147.617 62.0116 147.727 62.4356C147.837 62.8597 147.943 63.2847 148.045 63.7108C148.146 64.1369 148.244 64.564 148.338 64.992C148.431 65.4199 148.521 65.8487 148.606 66.2784C148.691 66.7082 148.773 67.1387 148.85 67.57C148.927 68.0012 149 68.4332 149.068 68.8658C149.137 69.2985 149.202 69.7318 149.262 70.1658C149.323 70.5996 149.379 71.034 149.431 71.469C149.483 71.904 149.531 72.3395 149.575 72.7755C149.618 73.2113 149.658 73.6475 149.693 74.0842C149.728 74.5209 149.76 74.9578 149.787 75.3951C149.813 75.8324 149.836 76.2699 149.855 76.7076C149.873 77.1453 149.887 77.5832 149.898 78.0212C149.908 78.4591 149.914 78.8972 149.915 79.3353C149.917 79.7734 149.914 80.2115 149.908 80.6495C149.901 81.0875 149.89 81.5254 149.875 81.9633C149.86 82.4011 149.84 82.8387 149.817 83.2762C149.793 83.7137 149.765 84.1509 149.733 84.5878C149.701 85.0248 149.665 85.4614 149.625 85.8976C149.584 86.3338 149.54 86.7696 149.491 87.205C149.442 87.6404 149.389 88.0752 149.332 88.5095C149.275 88.9439 149.214 89.3777 149.148 89.8109C149.083 90.244 149.013 90.6765 148.94 91.1084C148.664 92.6069 148.343 94.0957 147.976 95.5746C147.609 97.0536 147.198 98.52 146.741 99.9739C146.285 101.428 145.784 102.866 145.24 104.289C144.696 105.713 144.109 107.118 143.479 108.505C143.212 109.092 142.732 110.354 142.319 110.789C142.239 110.832 142.146 110.857 142.078 110.917C141.91 111.067 141.783 111.437 141.68 111.646C140.974 113.072 140.166 114.488 139.266 115.801C138.238 117.299 137.063 118.503 135.811 119.801L135.768 119.772L135.633 119.972C135.612 119.865 135.595 119.772 135.591 119.662C134.052 121.881 132.405 124.017 130.651 126.07C130.064 126.757 128.658 127.968 128.271 128.605C128.121 129.106 127.578 129.223 127.459 129.661L127.509 129.626L127.55 129.642C127.826 129.394 128.072 129.126 128.371 128.904C128.731 128.636 129.057 128.306 129.521 128.374C130.618 127.632 131.469 125.729 132.716 125.32C131.835 126.581 130.545 127.79 129.458 128.878C125.143 133.2 121.052 136.512 115.825 139.649C114.659 140.349 113.486 141.101 112.255 141.682C111.118 142.629 104.127 145.737 102.776 145.915C101.839 146.315 100.837 146.609 99.8658 146.916C95.9574 148.15 92.0135 148.905 87.946 149.381C86.6991 149.526 85.3877 149.702 84.1316 149.697C83.3922 149.987 75.1685 149.757 74.0447 149.534C73.411 149.543 72.7266 149.419 72.0961 149.347C68.9839 148.99 65.9591 148.361 62.9305 147.572C61.7597 147.267 60.5496 146.981 59.423 146.537C58.1797 146.343 55.6699 145.279 54.4136 144.774C53.5341 144.42 52.6623 144.048 51.798 143.658C50.9338 143.268 50.078 142.861 49.2305 142.436C48.3831 142.011 47.5448 141.568 46.7155 141.109C45.8863 140.649 45.0669 140.173 44.2572 139.679C43.4476 139.186 42.6485 138.676 41.8599 138.15C41.0712 137.624 40.2937 137.082 39.5274 136.523C38.7611 135.965 38.0066 135.391 37.2638 134.802C36.5211 134.213 35.7908 133.609 35.073 132.989C33.6903 131.784 32.3955 130.489 31.103 129.189C29.5853 127.663 28.0225 126.124 26.7427 124.386C26.4325 124.152 26.1099 123.645 25.8644 123.334C24.8773 122.069 23.9339 120.773 23.0342 119.445C22.1344 118.118 21.2803 116.761 20.4719 115.376C11.2683 99.2462 7.92724 80.4119 12.8723 62.3408C16.5398 48.9381 23.3895 37.8497 33.418 28.3113C36.0083 25.8477 39.3935 22.9116 42.5031 21.1363Z" fill="#06AD79"/>
<path d="M42.5031 21.1363C45.7662 18.8517 49.9097 16.8825 53.6089 15.3971C66.3318 10.288 79.2679 8.78938 92.8026 11.18C93.3487 11.2793 93.8936 11.3851 94.4371 11.4975C94.9807 11.6099 95.5228 11.7288 96.0635 11.8543C96.6043 11.9797 97.1434 12.1117 97.6809 12.2501C98.2185 12.3886 98.7543 12.5335 99.2882 12.6849C99.8223 12.8363 100.354 12.9941 100.885 13.1583C101.415 13.3225 101.943 13.4931 102.469 13.67C102.995 13.847 103.519 14.0302 104.041 14.2198C104.563 14.4094 105.082 14.6052 105.599 14.8073C106.116 15.0094 106.63 15.2177 107.142 15.4322C107.654 15.6467 108.164 15.8674 108.67 16.0942C109.177 16.321 109.681 16.5539 110.182 16.7928C110.683 17.0317 111.181 17.2766 111.676 17.5277C112.171 17.7786 112.663 18.0355 113.152 18.2983C113.641 18.5611 114.126 18.8298 114.609 19.1042C115.091 19.3788 115.57 19.6591 116.046 19.9452C116.522 20.2312 116.994 20.523 117.462 20.8205C117.931 21.1179 118.396 21.421 118.857 21.7297C119.319 22.0384 119.776 22.3525 120.23 22.6722C120.684 22.9919 121.134 23.3171 121.58 23.6477C122.026 23.9782 122.467 24.3141 122.905 24.6553C123.343 24.9965 123.777 25.3429 124.206 25.6946C124.635 26.0462 125.061 26.403 125.482 26.765C125.902 27.1269 126.319 27.4938 126.731 27.8658C127.143 28.2378 127.55 28.6147 127.953 28.9964C128.356 29.3782 128.754 29.7648 129.148 30.1561C129.542 30.5476 129.93 30.9437 130.314 31.3444C130.698 31.7452 131.078 32.1506 131.452 32.5605C131.826 32.9704 132.196 33.3847 132.56 33.8035C132.924 34.2223 133.283 34.6455 133.637 35.073C133.991 35.5004 134.34 35.9321 134.684 36.368C135.028 36.8039 135.366 37.2439 135.699 37.6878C136.032 38.1319 136.36 38.5799 136.682 39.0319C139.157 42.5714 141.373 46.2018 143.229 50.1082C143.418 50.5034 143.603 50.9004 143.785 51.2993C143.966 51.6981 144.143 52.0986 144.317 52.5008C144.491 52.903 144.66 53.3069 144.826 53.7124C144.992 54.1179 145.154 54.5249 145.312 54.9335C145.47 55.3421 145.624 55.7522 145.774 56.1638C145.925 56.5754 146.071 56.9883 146.213 57.4027C146.355 57.8171 146.493 58.2328 146.628 58.6497C146.762 59.0668 146.892 59.4851 147.018 59.9046C147.144 60.3242 147.267 60.7449 147.385 61.1668C147.503 61.5886 147.617 62.0116 147.727 62.4357C147.837 62.8597 147.943 63.2848 148.044 63.7108C148.146 64.137 148.244 64.5641 148.338 64.9921C148.431 65.42 148.52 65.8488 148.606 66.2785C148.691 66.7083 148.772 67.1388 148.849 67.5701C148.927 68.0013 148.999 68.4332 149.068 68.8658C149.137 69.2985 149.202 69.7319 149.262 70.1658C149.322 70.5997 149.379 71.0341 149.431 71.4691C149.483 71.9041 149.531 72.3396 149.574 72.7755C149.618 73.2114 149.658 73.6476 149.693 74.0843C149.728 74.5209 149.759 74.9579 149.786 75.3952C149.813 75.8325 149.836 76.27 149.855 76.7077C149.873 77.1454 149.887 77.5833 149.897 78.0213C149.907 78.4592 149.913 78.8972 149.915 79.3354C149.917 79.7735 149.914 80.2116 149.908 80.6496C149.901 81.0876 149.89 81.5255 149.875 81.9633C149.859 82.4012 149.84 82.8388 149.817 83.2763C149.793 83.7138 149.765 84.151 149.733 84.5879C149.701 85.0249 149.665 85.4615 149.625 85.8977C149.584 86.3339 149.54 86.7696 149.491 87.2051C149.442 87.6405 149.389 88.0753 149.332 88.5096C149.275 88.944 149.214 89.3778 149.148 89.811C149.083 90.2441 149.013 90.6766 148.94 91.1085C148.664 92.607 148.342 94.0958 147.976 95.5747C147.609 97.0537 147.197 98.5201 146.741 99.974C146.285 101.428 145.784 102.866 145.24 104.289C144.696 105.713 144.109 107.118 143.478 108.505C143.212 109.092 142.732 110.354 142.319 110.79C142.238 110.832 142.146 110.857 142.078 110.918C141.91 111.067 141.783 111.437 141.68 111.646C140.974 113.072 140.166 114.488 139.265 115.801C138.238 117.299 137.062 118.503 135.811 119.801L135.768 119.772L135.633 119.972C135.612 119.865 135.595 119.772 135.591 119.662C136.693 118.044 137.819 116.47 138.829 114.788C140.476 112.048 141.846 109.11 143.082 106.165C146.542 97.9258 148.689 88.3283 148.726 79.3883C148.725 78.3756 148.699 77.3635 148.65 76.3521C148.601 75.3406 148.527 74.3309 148.431 73.3229C148.334 72.3148 148.213 71.3097 148.068 70.3074C147.924 69.305 147.756 68.3066 147.564 67.3122C147.137 65.0836 146.58 62.2782 145.722 60.1824C144.802 56.7625 141.966 49.1394 139.957 46.4782C139.463 45.7739 139.066 44.9836 138.601 44.2569C137.041 41.816 135.456 39.3377 133.706 37.0275C130.578 32.8961 127.319 29.9613 123.369 26.6716C119.937 23.8139 116.369 21.0833 112.388 19.0266C111.153 18.388 109.84 17.8975 108.57 17.3291C106.516 16.4094 104.49 15.4982 102.362 14.755C101.671 14.5183 100.976 14.2926 100.278 14.0782C99.5797 13.8637 98.8782 13.6605 98.1735 13.4685C97.4687 13.2766 96.7611 13.096 96.0506 12.9268C95.34 12.7576 94.627 12.5998 93.9115 12.4535C93.1959 12.3071 92.4781 12.1723 91.7582 12.049C91.0382 11.9257 90.3165 11.814 89.5931 11.7139C88.8695 11.6138 88.1446 11.5254 87.4182 11.4485C86.6919 11.3717 85.9645 11.3065 85.236 11.253C84.5076 11.1996 83.7785 11.1578 83.0487 11.1277C82.3189 11.0977 81.5889 11.0793 80.8585 11.0727C80.1281 11.0661 79.3978 11.0712 78.6676 11.088C77.9374 11.1048 77.2077 11.1334 76.4784 11.1736C75.7491 11.2139 75.0206 11.2658 74.2929 11.3295C73.5653 11.3931 72.8389 11.4684 72.1137 11.5554C71.3885 11.6423 70.6649 11.7409 69.9429 11.8511C69.2208 11.9613 68.5007 12.0831 67.7826 12.2164C63.7217 12.9648 59.6833 14.1727 55.754 15.4288C54.9404 15.8272 53.9937 16.1886 53.1308 16.4581L52.9986 16.5263C51.8458 17.1147 50.6395 17.5711 49.4934 18.1899C48.2215 18.8766 46.9994 19.7403 45.7008 20.3611L45.5934 20.3083C46.2039 19.8999 46.8176 19.5839 47.4458 19.2172C48.8044 18.4239 50.1745 17.5875 51.6353 16.9914C51.3009 16.9942 50.9747 16.9939 50.6409 16.9752C49.2812 16.8989 43.212 21.1317 42.5031 21.1363Z" fill="url(#paint0_linear_2_2)"/>
<path d="M53.1307 16.4581C53.8145 15.752 54.7498 15.5654 55.6532 15.321L55.754 15.4288C54.9404 15.8272 53.9937 16.1886 53.1307 16.4581Z" fill="#E2DFD9"/>
<path d="M42.5031 21.1363C43.2121 21.1317 49.2813 16.8989 50.641 16.9752C50.9747 16.9939 51.301 16.9942 51.6353 16.9914C50.1746 17.5875 48.8044 18.4239 47.4458 19.2172C46.8177 19.5839 46.2039 19.8999 45.5935 20.3083L45.7008 20.3611L45.6441 20.4035C44.5538 21.2049 43.3458 21.8713 42.22 22.6255C40.3214 23.8974 38.4019 25.3458 36.6546 26.8228C24.258 37.301 14.8998 53.2121 12.3666 69.2938C10.6137 80.4212 11.9389 90.9753 15.3397 101.651C16.3194 104.182 17.2752 106.702 18.4069 109.171C19.117 110.72 19.9478 112.206 20.6805 113.741C21.9797 115.679 23.078 117.739 24.4186 119.661C25.1411 120.676 25.8865 121.674 26.6547 122.654C27.0022 123.107 27.4231 123.57 27.7153 124.056C27.586 123.979 27.4761 123.914 27.3338 123.861L27.2828 123.905L27.1999 123.921L27.1261 124.038C27.255 124.51 27.6383 125.031 28.0313 125.322L28.023 125.41L28.1264 125.526L27.9953 125.578C27.4635 125.219 27.5585 124.756 26.7427 124.387C26.4325 124.152 26.1099 123.645 25.8644 123.334C24.8773 122.069 23.9339 120.773 23.0342 119.446C22.1344 118.118 21.2803 116.761 20.4719 115.376C11.2683 99.2464 7.92724 80.412 12.8723 62.3408C16.5399 48.9382 23.3895 37.8497 33.418 28.3113C36.0083 25.8477 39.3935 22.9116 42.5031 21.1363Z" fill="#C7B7B5"/>
<path d="M20.6805 113.741C20.5461 113.842 20.622 113.812 20.452 113.828C20.3534 113.743 20.2919 113.673 20.2408 113.552C19.8903 112.723 19.3762 111.927 18.9686 111.117C18.1991 109.587 17.5489 108.024 16.8719 106.452C16.4633 105.503 15.9637 104.514 15.6812 103.522L15.808 103.473L15.7587 103.399L15.6322 103.411L15.6144 103.234C15.6981 103.339 15.6816 103.298 15.7189 103.41C15.795 103.64 15.9119 103.864 15.9778 104.092C16.1327 104.626 16.4023 105.142 16.628 105.651L16.7139 105.582L16.692 105.679C16.7034 105.422 15.4342 102.284 15.2594 101.748L15.3396 101.651C16.3194 104.181 17.2752 106.702 18.4069 109.171C19.117 110.719 19.9478 112.206 20.6805 113.741Z" fill="#F5F3F4"/>
<path d="M129.521 128.374C130.618 127.632 131.469 125.729 132.715 125.32C131.835 126.581 130.545 127.79 129.458 128.878C125.143 133.2 121.052 136.512 115.825 139.649C114.659 140.349 113.485 141.101 112.255 141.682C111.118 142.629 104.127 145.737 102.776 145.915C101.839 146.315 100.837 146.609 99.8658 146.916C95.9574 148.15 92.0134 148.905 87.9459 149.381C86.6991 149.526 85.3877 149.702 84.1316 149.698C83.3922 149.987 75.1684 149.757 74.0447 149.534C75.1758 149.41 76.3214 149.43 77.4627 149.288C76.8125 149.177 76.0883 149.196 75.4261 149.16C73.6083 149.062 71.5447 148.984 69.795 148.46C69.423 148.084 67.2759 147.847 66.7047 147.741C64.051 147.251 61.2366 146.684 58.7091 145.733L59.0397 145.661C59.912 145.956 61.3092 146.496 62.22 146.349C65.0581 147.023 67.9325 147.669 70.8219 148.082C76.1852 148.849 81.8481 148.897 87.238 148.349C88.027 148.151 88.9242 148.1 89.7328 147.974C91.3245 147.726 92.9075 147.432 94.4817 147.091C97.2155 146.487 99.9994 145.729 102.64 144.792C104.454 144.148 106.228 143.383 108.027 142.697C110.179 141.778 112.183 140.678 114.212 139.516C115.172 138.949 116.116 138.358 117.046 137.744C117.671 137.335 118.292 136.87 118.956 136.528C121.205 134.98 123.302 133.327 125.313 131.473C126.322 130.541 127.258 129.532 128.271 128.605C128.12 129.106 127.578 129.223 127.459 129.661L127.509 129.626L127.55 129.642C127.826 129.394 128.072 129.126 128.37 128.904C128.731 128.636 129.057 128.306 129.521 128.374Z" fill="#C7B7B5"/>
<path d="M99.4112 146.498C100.398 146.137 101.43 145.871 102.428 145.534C104.531 144.831 106.609 144.057 108.659 143.211C109.278 142.956 111.94 141.683 112.255 141.682C111.118 142.629 104.127 145.737 102.776 145.915C101.839 146.316 100.837 146.609 99.8657 146.916C95.9573 148.15 92.0134 148.906 87.9459 149.381C86.699 149.526 85.3876 149.702 84.1315 149.698C83.3921 149.987 75.1684 149.757 74.0446 149.534C75.1757 149.41 76.3213 149.43 77.4626 149.288C78.3074 149.213 79.223 149.293 80.0774 149.284C81.6322 149.259 83.1863 149.212 84.7398 149.142L86.0687 149.053C89.1081 148.882 92.2818 148.299 95.2393 147.584C96.5823 147.259 97.9159 146.799 99.2671 146.526L99.4112 146.498Z" fill="#BA5927"/>
<path d="M128.271 128.605C128.121 129.106 127.578 129.223 127.459 129.661L127.509 129.626L127.55 129.641C127.826 129.394 128.072 129.126 128.371 128.904C128.731 128.636 129.057 128.306 129.521 128.374C128.963 129.036 128.119 129.562 127.468 130.146C126.318 131.177 124.833 132.879 123.604 133.684C122.538 134.758 121.18 135.73 119.892 136.512C118.799 137.175 117.695 137.725 116.75 138.601C116.005 138.705 114.715 139.673 114.212 139.516C115.172 138.948 116.116 138.358 117.046 137.744C117.671 137.335 118.292 136.87 118.956 136.528C121.205 134.98 123.302 133.327 125.313 131.473C126.322 130.541 127.258 129.532 128.271 128.605Z" fill="#F5F3F4"/>
<path d="M114.212 139.516C114.715 139.673 116.005 138.705 116.75 138.601C116.353 138.873 115.887 139.064 115.467 139.307C113.753 140.298 110.408 142.394 108.549 142.663C108.351 142.691 108.231 142.726 108.027 142.697C110.179 141.778 112.183 140.678 114.212 139.516Z" fill="#E9C7C1"/>
<path d="M26.7426 124.386C27.5584 124.756 27.4634 125.219 27.9953 125.578L28.1264 125.526L28.0229 125.41L28.0312 125.322C27.6383 125.031 27.255 124.509 27.1261 124.038L27.1998 123.921L27.2828 123.905L27.3337 123.861C27.4761 123.914 27.5859 123.978 27.7153 124.056C28.4545 124.664 29.4939 126.136 30.1975 126.913C31.8158 128.7 33.5204 130.349 35.3283 131.946C35.7789 132.344 39.9736 135.648 40.0128 135.713L39.9636 135.89C40.6115 136.725 41.9186 137.418 42.7998 138.003C43.4889 138.46 44.1203 139.004 44.8239 139.437C49.1309 142.089 53.9223 144.135 58.7091 145.733C61.2366 146.684 64.0509 147.251 66.7047 147.741C67.2759 147.847 69.423 148.084 69.795 148.46C71.5447 148.984 73.6083 149.062 75.4261 149.16C76.0883 149.196 76.8125 149.177 77.4627 149.288C76.3214 149.43 75.1758 149.41 74.0447 149.534C73.4109 149.543 72.7266 149.419 72.0961 149.347C68.9839 148.99 65.9591 148.361 62.9305 147.572C61.7597 147.267 60.5495 146.981 59.423 146.537C58.1797 146.343 55.6698 145.279 54.4136 144.774C53.5341 144.42 52.6622 144.048 51.798 143.658C50.9338 143.268 50.078 142.861 49.2305 142.436C48.3831 142.011 47.5447 141.568 46.7155 141.109C45.8863 140.649 45.0669 140.173 44.2572 139.679C43.4476 139.186 42.6485 138.676 41.8598 138.15C41.0712 137.624 40.2937 137.082 39.5273 136.523C38.7611 135.965 38.0065 135.391 37.2637 134.802C36.521 134.213 35.7908 133.609 35.0729 132.989C33.6903 131.784 32.3954 130.489 31.1029 129.19C29.5853 127.663 28.0225 126.124 26.7426 124.386Z" fill="url(#paint1_linear_2_2)"/>
<path d="M59.423 146.537C60.5327 146.71 61.6349 147.042 62.7363 147.271C64.2646 147.59 65.8141 147.829 67.3537 148.087C68.1471 148.221 68.994 148.424 69.7951 148.459C71.5447 148.984 73.6083 149.061 75.4261 149.16C76.0883 149.196 76.8125 149.177 77.4627 149.288C76.3215 149.429 75.1758 149.41 74.0447 149.534C73.411 149.543 72.7266 149.419 72.0962 149.347C68.984 148.99 65.9591 148.361 62.9305 147.572C61.7598 147.267 60.5496 146.981 59.423 146.537Z" fill="#995435"/>
<path d="M40.0128 135.713C43.0415 137.763 46.1001 139.755 49.3758 141.397C51.3051 142.364 53.2981 143.139 55.2558 144.034L55.2351 144.142C55.498 144.307 55.8072 144.366 56.0926 144.485C57.0733 144.893 58.0375 145.306 59.0397 145.661L58.7091 145.733C53.9223 144.136 49.1309 142.089 44.8239 139.437C44.1203 139.004 43.4889 138.46 42.7998 138.003C41.9186 137.418 40.6115 136.725 39.9636 135.89L40.0128 135.713Z" fill="#C7B7B5"/>
<path d="M139.957 46.4781C141.966 49.1394 144.802 56.7625 145.722 60.1824C145.637 60.1224 145.673 60.1517 145.584 60.0661C145.553 60.0355 145.523 60.0032 145.49 59.9738C145.342 59.8399 145.275 59.7532 145.194 59.5708C144.41 57.7982 143.829 55.9039 143.086 54.1049C142.685 53.1325 142.226 52.1857 141.821 51.2163C141.577 50.6344 141.402 50.0246 141.153 49.4461C140.887 48.8299 140.52 48.251 140.294 47.6174C140.162 47.2497 140.076 46.853 139.957 46.4781Z" fill="#0EBB91"/>
<path d="M55.2557 144.034C56.446 144.447 57.622 144.903 58.8195 145.295C59.9468 145.664 61.0973 145.969 62.22 146.349C61.3092 146.496 59.912 145.956 59.0396 145.661C58.0375 145.305 57.0732 144.893 56.0926 144.485C55.8071 144.366 55.4979 144.307 55.2351 144.142L55.2557 144.034Z" fill="#E9C7C1"/>
<path d="M51.4436 35.1294C53.4402 33.94 55.498 32.7744 57.6085 31.7996C57.9096 31.659 58.212 31.5213 58.5157 31.3863C58.8193 31.2513 59.1242 31.1191 59.4302 30.9899C59.7363 30.8605 60.0436 30.734 60.3521 30.6103C60.6605 30.4867 60.97 30.3659 61.2807 30.248C61.5913 30.13 61.903 30.0149 62.2158 29.9028C62.5286 29.7907 62.8424 29.6813 63.1572 29.5749C63.472 29.4685 63.7878 29.3651 64.1046 29.2646C64.4212 29.164 64.7388 29.0664 65.0574 28.9717C65.3759 28.8771 65.6953 28.7853 66.0155 28.6966C66.3357 28.6078 66.6567 28.522 66.9785 28.4391C67.3004 28.3563 67.6229 28.2764 67.9461 28.1996C68.2694 28.1227 68.5933 28.0488 68.918 27.978C69.2427 27.9071 69.568 27.8391 69.8938 27.7742C70.2197 27.7093 70.5462 27.6475 70.8733 27.5886C71.2003 27.5298 71.5279 27.474 71.856 27.4213C72.184 27.3685 72.5126 27.3187 72.8416 27.2719C73.1706 27.2252 73.4999 27.1816 73.8297 27.141C74.1595 27.1003 74.4897 27.0627 74.8202 27.0281C75.1507 26.9936 75.4815 26.9621 75.8126 26.9338C76.1436 26.9053 76.4749 26.88 76.8065 26.8577C77.138 26.8354 77.4697 26.8161 77.8016 26.7999C78.1335 26.7837 78.4655 26.7706 78.7977 26.7606C79.1299 26.7506 79.4621 26.7437 79.7943 26.7397C80.1266 26.7359 80.4589 26.735 80.7911 26.7372C81.1234 26.7395 81.4557 26.7449 81.7879 26.7533C82.1201 26.7616 82.4521 26.773 82.7841 26.7875C83.1161 26.8021 83.4479 26.8197 83.7796 26.8403C84.1113 26.861 84.4427 26.8847 84.774 26.9116C85.1051 26.9384 85.436 26.9681 85.7668 27.001C86.0974 27.0339 86.4277 27.0699 86.7577 27.1089C87.0877 27.1479 87.4173 27.1899 87.7465 27.235C88.0757 27.2801 88.4045 27.3283 88.7329 27.3794C90.4615 27.6592 92.1807 28.0764 93.8782 28.505C94.3025 28.6093 94.7254 28.7188 95.1469 28.8335C95.5685 28.9483 95.9886 29.0682 96.4073 29.1933C96.8258 29.3184 97.2428 29.4486 97.6582 29.5839C98.0736 29.7194 98.4873 29.8599 98.8991 30.0055C99.3111 30.1511 99.7212 30.3017 100.129 30.4574C100.538 30.6131 100.944 30.7739 101.348 30.9397C101.752 31.1054 102.154 31.2761 102.554 31.4517C102.954 31.6275 103.352 31.808 103.748 31.9935C104.143 32.179 104.537 32.3694 104.927 32.5646C105.318 32.7598 105.707 32.9598 106.093 33.1646C106.479 33.3694 106.862 33.5789 107.243 33.7932C107.623 34.0074 108.001 34.2263 108.377 34.4499C108.752 34.6734 109.125 34.9016 109.494 35.1344C109.864 35.3672 110.231 35.6045 110.595 35.8463C110.959 36.0882 111.319 36.3345 111.677 36.5852C112.035 36.8359 112.39 37.091 112.741 37.3505C113.093 37.61 113.441 37.8738 113.786 38.1419C114.131 38.41 114.472 38.6823 114.811 38.9588C115.149 39.2353 115.484 39.516 115.815 39.8008C116.146 40.0856 116.474 40.3745 116.798 40.6674C117.123 40.9602 117.443 41.257 117.76 41.5579C118.077 41.8586 118.39 42.1632 118.699 42.4718C119.009 42.7803 119.314 43.0926 119.616 43.4086C119.917 43.7247 120.215 44.0444 120.509 44.3679C120.802 44.6913 121.092 45.0183 121.378 45.3488C121.664 45.6793 121.945 46.0134 122.223 46.351C122.5 46.6885 122.773 47.0294 123.042 47.3736C123.311 47.7178 123.576 48.0653 123.836 48.4161C124.097 48.767 124.353 49.1209 124.605 49.478C124.856 49.8351 125.104 50.1953 125.346 50.5585C125.589 50.9217 125.827 51.2879 126.061 51.6569C126.295 52.026 126.524 52.3979 126.749 52.7727C130.794 59.5719 133.43 68.6618 133.956 76.5552C134.303 81.7545 133.706 88.5024 132.413 93.5534C132.301 93.9957 132.184 94.4364 132.061 94.8757C131.937 95.3149 131.808 95.7524 131.674 96.1882C131.539 96.6241 131.398 97.058 131.252 97.4901C131.106 97.9222 130.954 98.3523 130.796 98.7804C130.639 99.2085 130.476 99.6345 130.307 100.058C130.138 100.482 129.964 100.903 129.784 101.323C129.604 101.742 129.418 102.159 129.227 102.573C129.036 102.987 128.84 103.399 128.638 103.808C128.436 104.217 128.229 104.623 128.016 105.027C127.804 105.431 127.586 105.831 127.363 106.229C127.14 106.627 126.911 107.022 126.678 107.414C126.444 107.806 126.206 108.194 125.962 108.58C125.718 108.966 125.469 109.348 125.215 109.727C124.961 110.106 124.703 110.481 124.439 110.854C124.175 111.226 123.906 111.594 123.633 111.959C123.359 112.324 123.081 112.686 122.798 113.043C121.962 114.098 121.084 115.117 120.166 116.1C119.633 116.675 118.998 117.245 118.534 117.872C116.95 119.26 115.593 120.86 113.862 122.092C113.141 122.841 112.179 123.334 111.394 124.009C111.04 124.551 110.622 125.122 109.987 125.352C109.488 126.044 108.203 126.305 107.461 126.743C107.195 126.9 107.13 127.266 106.838 127.365C106.044 127.636 104.05 129.235 103.589 129.922L103.484 129.967C102.401 130.449 101.447 131.107 100.398 131.641C99.904 131.892 99.3629 132.087 98.8471 132.292C96.8362 133.092 94.7008 133.768 92.6016 134.303C91.8841 134.486 91.1523 134.603 90.4344 134.782C89.5908 134.992 88.7723 135.273 87.919 135.449C79.3076 137.232 70.5479 136.4 62.1952 133.794C61.5141 133.581 60.8565 133.302 60.1814 133.072C59.2379 132.834 58.228 132.77 57.3146 132.423C56.2978 132.037 55.3908 131.337 54.3693 130.948C53.7394 130.707 53.0691 130.657 52.4561 130.326C51.6747 129.903 51.0235 129.234 50.2332 128.789L50.2549 128.834C49.8402 128.607 47.0374 126.568 46.8586 126.248C46.041 125.884 45.7203 125.125 45.0761 124.594C44.3255 123.975 43.4099 123.434 42.618 122.853L42.5586 122.971C42.5272 122.96 42.4932 122.955 42.4642 122.939C42.1214 122.742 41.7738 122.184 41.4786 121.889C41.1667 121.578 40.7336 121.422 40.4078 121.13C40.2338 120.974 40.2077 120.769 40.0652 120.594C39.7203 120.173 39.235 119.792 38.813 119.451C38.2682 119.01 37.1132 118.561 36.8191 117.94L36.911 117.907C37.3003 118.029 37.598 118.471 37.9772 118.669C38.0642 118.366 37.5875 118.032 37.4372 117.719C37.4266 117.697 37.4169 117.675 37.4067 117.653C36.753 117.251 34.8388 115.934 34.2886 115.413L34.3506 115.399C34.4266 115.448 34.5072 115.495 34.58 115.549C35.0506 115.894 35.5928 116.027 36.0771 116.342C36.0974 116.356 36.1174 116.37 36.1377 116.383C35.9897 116.018 35.03 114.236 34.7889 113.971C34.7719 113.953 34.7539 113.935 34.7364 113.917C34.3299 113.573 34.0111 113.194 33.6811 112.777C33.2403 112.221 32.575 112.053 32.0581 111.589C31.9802 111.422 31.9522 111.344 31.978 111.16C32.1905 111.202 32.4258 111.565 32.6528 111.696C32.5808 111.545 32.5 111.4 32.4208 111.252C32.1853 110.815 31.723 110.831 31.4066 110.501C31.1044 110.185 30.6119 108.534 30.441 108.033L30.4985 108.144C30.2831 107.339 29.9485 106.602 29.6977 105.812C29.57 105.373 28.6739 103.32 28.4211 103.012C28.298 102.863 28.0235 102.772 27.945 102.607C27.7992 102.302 27.9255 101.78 27.7246 101.509C27.5674 101.297 27.425 101.272 27.3825 100.992C27.5005 100.956 27.4513 100.988 27.5314 100.898C27.5628 99.5995 26.123 98.1204 26.0405 96.6493C26.0381 96.6074 26.0371 96.5654 26.0353 96.5234C25.8069 96.5145 25.6211 96.5312 25.4366 96.3756C25.3277 96.082 25.4952 95.7368 25.5497 95.4281C25.6733 94.7282 25.426 94.4596 25.0453 93.9132C24.9833 92.2006 24.3849 90.5784 24.0999 88.9134C23.9685 88.1446 23.9445 87.3362 23.8624 86.5599C23.8114 86.078 23.662 85.5604 23.6855 85.0774C23.7102 84.5662 23.911 84.0624 23.9303 83.5551C23.9458 83.1481 23.7916 82.7504 23.8017 82.3307C23.8041 82.2316 23.8224 82.277 23.7556 82.2037L23.5485 82.4765C23.4038 82.0312 23.8613 79.9487 23.9847 79.4026C24.0442 79.1388 24.1752 78.8773 24.2106 78.6127C24.2574 78.2657 24.1847 77.9032 24.2258 77.5566C24.247 77.3779 24.3205 77.2201 24.3352 77.0362C24.3761 76.5244 24.3349 76.0038 24.3525 75.4901C24.3649 75.1265 24.195 73.2452 24.2895 73.0521C24.3816 72.8641 24.6491 72.7659 24.7152 72.5365C24.8802 71.9632 24.9025 71.301 25.016 70.7107C25.2139 69.6813 25.5045 68.6801 25.6522 67.6391L25.7961 67.3983L25.5385 67.4205L25.4764 67.3574L25.678 67.1524L25.8322 67.2196C26.226 66.5569 26.3808 65.618 26.6653 64.888C26.723 64.7399 26.6502 64.5012 26.628 64.3408C26.7141 64.1677 26.7171 64.1477 26.8852 64.0571C27.2274 63.6344 27.4275 62.8543 27.6428 62.3351C28.5139 60.2349 29.6716 58.349 30.7838 56.3755C30.9792 56.0286 30.9933 55.6279 31.1903 55.2858C31.7442 54.3243 32.4111 53.4729 32.9325 52.4771L32.8913 52.3966L32.9046 52.3849C32.7703 52.5483 32.7202 52.6541 32.5169 52.7222L32.4796 52.5933C32.5978 52.2018 32.9371 52.0249 33.1552 51.6949C33.2796 51.5063 33.3897 51.233 33.6074 51.1688L33.7205 51.2871L33.5933 51.544C33.8592 51.414 34.1928 51.1722 34.3799 50.9388C34.8757 50.3197 35.235 49.5843 35.7611 48.9655C36.1678 48.4871 36.8428 48.0499 37.146 47.5168C37.5024 46.8899 37.8985 46.2758 38.5016 45.8582C38.7866 45.661 39.1497 45.4711 39.3841 45.2158C41.0736 43.3752 42.7871 41.5805 44.6778 39.9407C45.1753 39.5093 45.6693 39.0382 46.2118 38.666L46.3372 38.726C48.0035 37.4641 49.6119 36.1524 51.4436 35.1294Z" fill="#DAD5A7"/>
<path d="M26.8852 64.057C27.2274 63.6344 27.4275 62.8542 27.6428 62.335C28.5139 60.2348 29.6716 58.3489 30.7838 56.3755C30.9792 56.0286 30.9933 55.6278 31.1903 55.2858C31.7442 54.3242 32.4111 53.4728 32.9325 52.477L32.8913 52.3965L32.9045 52.3848C32.7703 52.5483 32.7202 52.654 32.5169 52.7222L32.4795 52.5933C32.5978 52.2017 32.937 52.0248 33.1552 51.6948C33.2795 51.5062 33.3897 51.233 33.6074 51.1687L33.7205 51.287L33.5933 51.5439C33.8592 51.4139 34.1928 51.1722 34.3799 50.9387C34.8756 50.3197 35.235 49.5842 35.7611 48.9654C36.1678 48.487 36.8428 48.0498 37.1459 47.5167C37.5024 46.8898 37.8985 46.2758 38.5016 45.8581C38.7866 45.6609 39.1497 45.4711 39.3841 45.2158C41.0736 43.3751 42.787 41.5804 44.6778 39.9406C45.1753 39.5092 45.6692 39.0381 46.2117 38.6659L46.3372 38.7259L46.2589 38.8051C45.3353 39.7289 44.2391 40.5248 43.2675 41.4043C41.9111 42.632 40.6186 44.0537 39.4136 45.4287C39.1555 45.7255 38.9006 46.0251 38.6491 46.3276C38.3975 46.6301 38.1494 46.9354 37.9047 47.2434C37.66 47.5513 37.4187 47.862 37.1808 48.1753C36.943 48.4887 36.7087 48.8047 36.4778 49.1233C36.247 49.4418 36.0198 49.7628 35.7961 50.0864C35.5724 50.41 35.3523 50.7361 35.136 51.0645C34.9195 51.3931 34.7067 51.7239 34.4975 52.057C34.2885 52.3902 34.0831 52.7258 33.8814 53.0636C33.6798 53.4013 33.4819 53.7412 33.2878 54.0834C33.0937 54.4256 32.9033 54.7699 32.7169 55.1162C32.5304 55.4627 32.3478 55.8111 32.1691 56.1615C31.9904 56.512 31.8156 56.8644 31.6447 57.2187C31.4739 57.573 31.3069 57.9292 31.1439 58.2872C30.9809 58.6452 30.8219 59.005 30.6669 59.3666C30.5119 59.7281 30.361 60.0913 30.2141 60.4562C30.0671 60.8212 29.9242 61.1878 29.7855 61.5558C29.6466 61.9239 29.5119 62.2935 29.3814 62.6645C29.2508 63.0357 29.1243 63.4082 29.002 63.782C28.8798 64.1559 28.7616 64.5311 28.6477 64.9077C28.5336 65.2841 28.4238 65.6618 28.3183 66.0408C28.2127 66.4197 28.1113 66.7998 28.0141 67.1811C27.917 67.5622 27.8241 67.9445 27.7355 68.3278C27.6467 68.711 27.5623 69.0952 27.4822 69.4803C27.4021 69.8654 27.3263 70.2514 27.2547 70.6383C27.1831 71.0251 27.1159 71.4126 27.053 71.8009C26.99 72.1893 26.9313 72.5782 26.877 72.9678C26.8227 73.3575 26.7727 73.7477 26.727 74.1384C26.6814 74.5292 26.6401 74.9203 26.6031 75.3119C26.5662 75.7036 26.5336 76.0956 26.5053 76.488C26.4771 76.8804 26.4532 77.273 26.4336 77.666C26.414 78.0588 26.3989 78.4518 26.3881 78.845C26.3773 79.2383 26.3708 79.6317 26.3688 80.025C26.3653 80.4691 26.3674 80.9131 26.3749 81.357C26.3825 81.8011 26.3955 82.245 26.4141 82.6886C26.4326 83.1324 26.4566 83.5757 26.4861 84.0188C26.5157 84.4619 26.5507 84.9045 26.5911 85.3467C26.6316 85.789 26.6776 86.2307 26.7291 86.6717C26.7804 87.1129 26.8373 87.5533 26.8997 87.993C26.962 88.4326 27.0297 88.8714 27.1028 89.3094C27.1761 89.7474 27.2547 90.1845 27.3386 90.6205C27.4227 91.0565 27.5121 91.4915 27.6069 91.9253C27.7017 92.3592 27.8018 92.7918 27.9072 93.2232C28.0127 93.6545 28.1236 94.0845 28.2397 94.5131C28.3558 94.9418 28.4773 95.3689 28.6039 95.7946C28.7307 96.2201 28.8627 96.644 28.9999 97.0664C29.137 97.4887 29.2795 97.9093 29.4272 98.3282C29.5748 98.747 29.7276 99.1639 29.8855 99.5789C30.0434 99.9939 30.2065 100.407 30.3747 100.818C30.5428 101.229 30.7161 101.638 30.8944 102.045C31.0727 102.451 31.2561 102.856 31.4444 103.258C31.6326 103.66 31.8258 104.06 32.0241 104.457C32.2223 104.855 32.4254 105.249 32.6335 105.642C32.8415 106.034 33.0543 106.424 33.2719 106.811C33.4895 107.198 33.7119 107.582 33.9391 107.964C34.1663 108.346 34.3981 108.724 34.6345 109.1C34.8711 109.476 35.1123 109.849 35.3581 110.219C35.6039 110.588 35.8542 110.955 36.1091 111.319C36.3639 111.683 36.6231 112.043 36.8869 112.4C37.1506 112.757 37.4188 113.111 37.6914 113.462C37.9639 113.813 38.2407 114.16 38.5219 114.504C38.803 114.847 39.0884 115.188 39.378 115.524C39.6675 115.861 39.9611 116.194 40.2589 116.523C40.5567 116.853 40.8586 117.178 41.1645 117.5C41.4704 117.822 41.7802 118.14 42.0939 118.455C42.8239 119.188 43.5742 119.9 44.3447 120.591C45.1152 121.282 45.9047 121.951 46.7131 122.597C47.5217 123.243 48.3479 123.865 49.1919 124.464C50.0357 125.063 50.8959 125.638 51.7725 126.188C52.3939 126.578 53.0864 127.08 53.7555 127.372C54.41 127.371 60.2156 130.839 61.8545 131.081C63.037 131.32 64.1884 131.774 65.3556 132.09C68.1688 132.85 71.1423 133.503 74.0503 133.76C74.9616 133.845 75.8794 133.878 76.7883 133.982C77.1664 133.981 77.5488 133.968 77.9261 133.993C78.9089 134.157 79.9456 134.179 80.9409 134.2C81.3502 134.209 81.7916 134.17 82.1948 134.226L82.4983 134.225C83.0814 134.231 83.6548 134.191 84.2358 134.144C86.8311 134.102 92.7631 133.007 95.1123 132.007C96.1534 131.864 99.3777 130.542 100.406 130.046C102.005 129.735 105.65 127.519 107.234 126.675C107.907 126.694 109.276 125.43 110.017 125.152L109.987 125.352C109.487 126.044 108.203 126.305 107.461 126.743C107.195 126.9 107.13 127.266 106.838 127.365C106.043 127.636 104.05 129.235 103.589 129.922L103.484 129.967C102.401 130.449 101.447 131.107 100.398 131.641C99.9039 131.892 99.3628 132.087 98.847 132.292C96.8361 133.092 94.7008 133.768 92.6016 134.303C91.8841 134.486 91.1522 134.603 90.4344 134.782C89.5908 134.992 88.7722 135.273 87.9189 135.449C79.3075 137.232 70.5478 136.4 62.1952 133.794C61.5141 133.581 60.8564 133.302 60.1814 133.072C59.2378 132.834 58.228 132.769 57.3145 132.423C56.2978 132.037 55.3908 131.337 54.3692 130.948C53.7394 130.707 53.0691 130.657 52.4561 130.326C51.6747 129.903 51.0234 129.234 50.2331 128.789L50.2549 128.834C49.8402 128.606 47.0374 126.568 46.8586 126.248C46.0409 125.884 45.7203 125.125 45.0761 124.594C44.3255 123.975 43.4099 123.434 42.618 122.853L42.5586 122.971C42.5272 122.96 42.4931 122.955 42.4642 122.939C42.1214 122.742 41.7738 122.184 41.4786 121.889C41.1667 121.578 40.7336 121.422 40.4078 121.13C40.2338 120.974 40.2077 120.769 40.0652 120.594C39.7203 120.173 39.235 119.792 38.813 119.451C38.2681 119.01 37.1131 118.561 36.8191 117.94L36.911 117.907C37.3003 118.028 37.598 118.471 37.9772 118.669C38.0642 118.366 37.5875 118.032 37.4372 117.719C37.4266 117.697 37.4169 117.675 37.4067 117.653C36.753 117.251 34.8388 115.934 34.2886 115.413L34.3506 115.399C34.4266 115.448 34.5072 115.495 34.58 115.549C35.0506 115.894 35.5928 116.027 36.077 116.342C36.0974 116.356 36.1174 116.37 36.1377 116.383C35.9897 116.018 35.03 114.236 34.7889 113.971C34.7719 113.953 34.7539 113.935 34.7364 113.917C34.3299 113.573 34.0111 113.194 33.6811 112.777C33.2403 112.221 32.575 112.053 32.0581 111.589C31.9802 111.422 31.9522 111.343 31.978 111.16C32.1905 111.202 32.4258 111.565 32.6528 111.696C32.5808 111.545 32.5 111.4 32.4208 111.252C32.1853 110.815 31.723 110.831 31.4066 110.501C31.1044 110.185 30.6119 108.534 30.441 108.033L30.4985 108.144C30.2831 107.339 29.9485 106.602 29.6977 105.812C29.57 105.373 28.6739 103.32 28.4211 103.012C28.298 102.863 28.0235 102.772 27.945 102.607C27.7992 102.302 27.9255 101.78 27.7245 101.509C27.5674 101.297 27.425 101.272 27.3825 100.992C27.5005 100.956 27.4513 100.988 27.5314 100.898C27.5628 99.5994 26.123 98.1203 26.0405 96.6492C26.0381 96.6074 26.037 96.5653 26.0353 96.5233C25.8069 96.5144 25.6211 96.5311 25.4366 96.3755C25.3277 96.0819 25.4952 95.7368 25.5497 95.428C25.6733 94.7282 25.426 94.4596 25.0453 93.9132C24.9833 92.2005 24.3849 90.5783 24.0999 88.9133C23.9685 88.1446 23.9445 87.3361 23.8624 86.5599C23.8114 86.078 23.662 85.5603 23.6855 85.0774C23.7102 84.5661 23.911 84.0624 23.9303 83.555C23.9458 83.148 23.7916 82.7503 23.8017 82.3306C23.8041 82.2316 23.8224 82.2769 23.7556 82.2036L23.5485 82.4764C23.4038 82.0311 23.8613 79.9486 23.9847 79.4025C24.0442 79.1388 24.1752 78.8772 24.2106 78.6127C24.2574 78.2656 24.1847 77.9031 24.2258 77.5566C24.247 77.3778 24.3205 77.22 24.3352 77.0361C24.3761 76.5244 24.3349 76.0038 24.3525 75.49C24.3649 75.1264 24.195 73.2452 24.2895 73.052C24.3816 72.8641 24.6491 72.7658 24.7152 72.5364C24.8802 71.9631 24.9025 71.3009 25.016 70.7106C25.2139 69.6813 25.5045 68.68 25.6522 67.6391L25.7961 67.3983L25.5385 67.4205L25.4764 67.3573L25.678 67.1523L25.8322 67.2195C26.226 66.5569 26.3808 65.618 26.6653 64.888C26.723 64.7398 26.6502 64.5011 26.628 64.3408C26.7141 64.1677 26.717 64.1477 26.8852 64.057Z" fill="url(#paint2_linear_2_2)"/>
<path d="M25.6522 67.6391L25.8852 67.631C26.1883 68.121 25.5478 70.5266 25.4245 71.2255C25.0099 73.5763 24.4431 76.2068 24.3608 78.5772C24.3181 79.8052 24.3444 81.0769 24.4094 82.3041C24.4449 82.9716 24.5314 83.6568 24.5174 84.3238C24.6125 85.6443 24.83 86.9024 25.0222 88.2079C25.1458 89.0464 25.1983 89.8969 25.3349 90.7333C25.4725 91.576 25.7255 92.4103 25.9155 93.243C26.1219 94.1479 26.2739 95.0832 26.5285 95.9739C26.8105 96.9611 27.301 97.8943 27.5616 98.8872L27.523 99.6272C28.0058 101.193 28.5609 102.766 29.4422 104.158C29.972 105.119 29.9894 106.182 30.5659 107.212L30.5181 107.205C30.2292 106.794 30.0297 106.133 29.6977 105.812C29.57 105.373 28.6739 103.32 28.4211 103.012C28.298 102.863 28.0235 102.772 27.945 102.607C27.7992 102.302 27.9255 101.78 27.7245 101.509C27.5674 101.297 27.425 101.272 27.3825 100.992C27.5005 100.956 27.4513 100.988 27.5314 100.898C27.5628 99.5994 26.123 98.1203 26.0405 96.6493C26.0381 96.6074 26.037 96.5654 26.0353 96.5233C25.8069 96.5144 25.6211 96.5311 25.4366 96.3755C25.3277 96.0819 25.4952 95.7368 25.5497 95.428C25.6733 94.7282 25.426 94.4596 25.0453 93.9132C24.9833 92.2005 24.3849 90.5783 24.0999 88.9133C23.9685 88.1446 23.9445 87.3361 23.8624 86.5599C23.8114 86.078 23.662 85.5603 23.6855 85.0774C23.7102 84.5661 23.911 84.0624 23.9303 83.555C23.9458 83.148 23.7916 82.7503 23.8017 82.3307C23.8041 82.2316 23.8224 82.2769 23.7556 82.2036L23.5485 82.4764C23.4038 82.0311 23.8613 79.9486 23.9847 79.4025C24.0442 79.1388 24.1752 78.8772 24.2106 78.6127C24.2574 78.2657 24.1847 77.9032 24.2258 77.5566C24.247 77.3778 24.3205 77.22 24.3352 77.0361C24.3761 76.5244 24.3349 76.0038 24.3525 75.49C24.3649 75.1264 24.195 73.2452 24.2895 73.0521C24.3816 72.8641 24.6491 72.7658 24.7152 72.5364C24.8802 71.9632 24.9025 71.301 25.016 70.7107C25.2139 69.6813 25.5045 68.68 25.6522 67.6391Z" fill="#04785B"/>
<path d="M27.523 99.6272C27.2673 99.1545 27.0404 98.6684 26.8422 98.1689C26.644 97.6694 26.4758 97.16 26.3378 96.6406C26.0922 95.7173 25.9389 94.8078 25.5827 93.9159C25.6184 93.8463 25.6811 93.7338 25.6969 93.6592C25.7342 93.4833 25.7008 93.3961 25.6073 93.2542L25.478 93.3239L25.3936 93.2547C25.2625 92.807 24.7694 90.1458 24.798 89.7827L24.9637 89.832C24.9098 89.1658 24.9334 88.3264 24.7223 87.6953C24.4142 86.7739 24.2136 85.2503 24.5173 84.3237C24.6125 85.6442 24.83 86.9023 25.0222 88.2078C25.1458 89.0464 25.1983 89.8969 25.3348 90.7333C25.4725 91.5759 25.7255 92.4103 25.9155 93.243C26.1219 94.1478 26.2739 95.0831 26.5284 95.9739C26.8105 96.9611 27.3009 97.8942 27.5616 98.8872L27.523 99.6272Z" fill="#06604B"/>
<path d="M46.0027 124.872L46.3247 125.024C46.5153 125.206 46.6968 125.387 46.8713 125.586C47.343 126.122 48.0453 126.381 48.7203 126.558C49.0003 126.744 49.5919 127.037 49.78 127.285C50.0849 127.459 50.4385 127.721 50.7661 127.832C52.0718 128.434 53.2628 129.203 54.5307 129.872C56.1918 130.748 57.6568 131.259 59.2499 132.361C59.5636 132.578 59.9247 132.789 60.1814 133.072C59.2378 132.833 58.228 132.769 57.3146 132.423C56.2978 132.037 55.3908 131.337 54.3693 130.947C53.7394 130.707 53.0691 130.657 52.4561 130.325C51.6747 129.902 51.0235 129.234 50.2332 128.789L50.2549 128.834C49.8402 128.606 47.0374 126.568 46.8586 126.248C46.8491 125.851 46.1571 125.326 46.0027 124.872Z" fill="url(#paint3_linear_2_2)"/>
<path d="M49.78 127.285C50.0848 127.459 50.4384 127.721 50.7661 127.832C50.9267 128.047 51.0825 128.288 51.3173 128.425C51.4701 128.515 51.5544 128.591 51.6739 128.722L51.6172 128.791C51.5222 128.785 51.4397 128.78 51.3489 128.748C50.8201 128.563 49.9176 127.97 49.6814 127.463L49.78 127.285Z" fill="#06604B"/>
<path d="M34.7364 113.917C34.6695 113.767 34.7011 113.824 34.6205 113.694C34.4638 113.441 34.3305 113.201 34.2142 112.927L34.3099 112.881C34.7186 113.657 35.313 114.351 35.9672 114.933C36.5942 115.432 37.201 115.95 37.685 116.594C38.0099 117.026 38.3035 117.553 38.6788 117.938C38.9606 118.226 39.3342 118.426 39.6313 118.703C40.583 119.592 41.9842 121.001 42.6525 122.08C43.662 123.109 44.9228 123.906 46.0027 124.872C46.157 125.326 46.8491 125.851 46.8586 126.248C46.0409 125.884 45.7203 125.125 45.0761 124.594C44.3255 123.975 43.4099 123.434 42.618 122.853L42.5586 122.971C42.5272 122.96 42.4931 122.955 42.4642 122.939C42.1214 122.742 41.7738 122.184 41.4786 121.889C41.1667 121.578 40.7336 121.422 40.4078 121.129C40.2338 120.974 40.2077 120.769 40.0652 120.594C39.7203 120.173 39.235 119.792 38.813 119.45C38.2681 119.01 37.1131 118.561 36.8191 117.94L36.911 117.907C37.3003 118.028 37.598 118.471 37.9772 118.669C38.0642 118.365 37.5875 118.032 37.4372 117.719C37.4266 117.697 37.4169 117.674 37.4067 117.652C36.753 117.251 34.8388 115.934 34.2886 115.413L34.3506 115.399C34.4266 115.448 34.5072 115.495 34.58 115.549C35.0506 115.894 35.5928 116.027 36.077 116.342C36.0974 116.356 36.1174 116.37 36.1377 116.383C35.9897 116.018 35.03 114.236 34.7889 113.971C34.7719 113.953 34.7539 113.935 34.7364 113.917Z" fill="#04785B"/>
<path d="M35.9672 114.933C36.5942 115.432 37.2009 115.95 37.685 116.594C38.0099 117.026 38.3034 117.553 38.6788 117.938C38.9606 118.226 39.3342 118.426 39.6313 118.703C40.583 119.592 41.9842 121.001 42.6525 122.08C42.5861 122.053 42.5199 122.025 42.4549 121.996C41.0009 121.327 37.8697 117.979 36.877 116.606C36.4961 116.079 36.1973 115.541 35.9672 114.933Z" fill="#06604B"/>
<path d="M29.4975 103.983C30.2537 104.891 30.9333 106.626 31.5206 107.719C32.4304 109.412 33.6 111.095 34.3098 112.881L34.2142 112.927C34.3304 113.201 34.4637 113.441 34.6204 113.694C34.7011 113.824 34.6695 113.767 34.7364 113.917C34.3298 113.573 34.0111 113.194 33.6811 112.777C33.2403 112.221 32.575 112.053 32.0581 111.589C31.9801 111.422 31.9522 111.343 31.9779 111.16C32.1904 111.202 32.4258 111.565 32.6528 111.696C32.5808 111.545 32.5 111.4 32.4208 111.252C32.1853 110.815 31.7229 110.831 31.4065 110.5C31.1044 110.185 30.6119 108.534 30.4409 108.033L30.4984 108.144C30.2831 107.339 29.9484 106.602 29.6976 105.812C30.0297 106.132 30.2292 106.794 30.5181 107.205L30.5659 107.212C29.9894 106.182 29.972 105.119 29.4422 104.158L29.4975 103.983Z" fill="url(#paint4_linear_2_2)"/>
<path d="M53.7555 127.372C54.41 127.371 60.2156 130.839 61.8545 131.081C63.037 131.32 64.1884 131.774 65.3556 132.09C68.1687 132.85 71.1423 133.503 74.0503 133.76C74.9615 133.845 75.8794 133.878 76.7883 133.982C77.1664 133.981 77.5487 133.968 77.9261 133.993C78.9089 134.157 79.9456 134.179 80.9409 134.2C81.3501 134.209 81.7915 134.17 82.1948 134.226C80.7969 134.405 79.1867 134.378 77.7839 134.294C76.7228 134.406 75.5445 134.233 74.4792 134.139C68.5611 133.675 62.6897 131.885 57.3598 129.32C56.1467 128.736 54.8678 128.134 53.7555 127.372Z" fill="#7E9082"/>
<path d="M27.5615 98.8871C28.132 100.12 29.0687 101.708 29.2731 103.03C29.3234 103.355 29.4317 103.662 29.4975 103.983L29.4422 104.158C28.5609 102.766 28.0058 101.193 27.5229 99.6271L27.5615 98.8871Z" fill="#06604B"/>
<path d="M25.7961 67.3983L25.5384 67.4205L25.4764 67.3573L25.678 67.1523L25.8322 67.2195C26.2259 66.5569 26.3808 65.618 26.6653 64.888C26.723 64.7398 26.6501 64.5011 26.628 64.3408C26.7141 64.1677 26.717 64.1477 26.8851 64.057L26.8753 64.1319C26.8528 64.3153 26.8459 64.4619 26.8708 64.6445C26.9528 65.2466 26.6748 66.7803 26.2739 67.2463C26.1862 67.3478 26.0681 67.4011 25.9503 67.4592L25.7961 67.3983Z" fill="#04785B"/>
<path d="M46.3246 125.024C47.1982 125.337 48.2317 125.71 48.7203 126.558C48.0453 126.381 47.3429 126.122 46.8712 125.586C46.6967 125.387 46.5153 125.206 46.3246 125.024Z" fill="#06604B"/>
<path d="M51.4436 35.1294C53.4401 33.94 55.4979 32.7744 57.6084 31.7996C57.9096 31.659 58.212 31.5213 58.5156 31.3863C58.8192 31.2513 59.1241 31.1191 59.4301 30.9899C59.7363 30.8605 60.0436 30.734 60.352 30.6103C60.6604 30.4867 60.97 30.3659 61.2806 30.248C61.5912 30.13 61.9029 30.0149 62.2158 29.9028C62.5286 29.7907 62.8424 29.6813 63.1572 29.5749C63.472 29.4685 63.7877 29.3651 64.1045 29.2646C64.4212 29.164 64.7388 29.0664 65.0573 28.9717C65.3759 28.8771 65.6952 28.7853 66.0154 28.6966C66.3357 28.6078 66.6566 28.522 66.9784 28.4391C67.3003 28.3563 67.6228 28.2764 67.9461 28.1996C68.2693 28.1227 68.5933 28.0488 68.9179 27.978C69.2426 27.9071 69.5679 27.8391 69.8937 27.7742C70.2197 27.7093 70.5462 27.6475 70.8733 27.5886C71.2002 27.5298 71.5278 27.474 71.8559 27.4213C72.1839 27.3685 72.5125 27.3187 72.8415 27.2719C73.1705 27.2252 73.4999 27.1816 73.8297 27.141C74.1595 27.1003 74.4896 27.0627 74.8201 27.0281C75.1506 26.9936 75.4814 26.9621 75.8125 26.9338C76.1435 26.9053 76.4748 26.88 76.8064 26.8577C77.1379 26.8354 77.4697 26.8161 77.8015 26.7999C78.1334 26.7837 78.4654 26.7706 78.7976 26.7606C79.1298 26.7506 79.462 26.7437 79.7942 26.7397C80.1265 26.7359 80.4588 26.735 80.7911 26.7372C81.1234 26.7395 81.4556 26.7449 81.7878 26.7533C82.12 26.7616 82.4521 26.773 82.784 26.7875C83.116 26.8021 83.4478 26.8197 83.7795 26.8403C84.1112 26.861 84.4426 26.8847 84.7739 26.9116C85.105 26.9384 85.436 26.9681 85.7667 27.001C86.0973 27.0339 86.4276 27.0699 86.7576 27.1089C87.0876 27.1479 87.4172 27.1899 87.7464 27.235C88.0757 27.2801 88.4045 27.3283 88.7328 27.3794C90.4614 27.6592 92.1806 28.0764 93.8781 28.505C94.3024 28.6093 94.7253 28.7188 95.1468 28.8335C95.5684 28.9483 95.9885 29.0682 96.4072 29.1933C96.8257 29.3184 97.2427 29.4486 97.6581 29.5839C98.0735 29.7193 98.4872 29.8599 98.899 30.0055C99.311 30.1511 99.7211 30.3017 100.129 30.4574C100.537 30.6131 100.944 30.7739 101.348 30.9397C101.752 31.1054 102.154 31.2761 102.554 31.4517C102.954 31.6275 103.352 31.808 103.748 31.9935C104.143 32.179 104.536 32.3693 104.927 32.5646C105.318 32.7598 105.707 32.9598 106.092 33.1646C106.478 33.3693 106.862 33.5789 107.242 33.7932C107.623 34.0074 108.001 34.2263 108.377 34.4499C108.752 34.6734 109.125 34.9016 109.494 35.1344C109.864 35.3672 110.231 35.6045 110.595 35.8463C110.959 36.0882 111.319 36.3345 111.677 36.5852C112.035 36.8359 112.39 37.091 112.741 37.3505C113.093 37.61 113.441 37.8738 113.786 38.1419C114.131 38.41 114.472 38.6823 114.811 38.9588C115.149 39.2353 115.484 39.516 115.815 39.8008C116.146 40.0856 116.474 40.3745 116.798 40.6674C117.122 40.9602 117.443 41.257 117.76 41.5578C118.077 41.8586 118.39 42.1632 118.699 42.4717C119.008 42.7803 119.314 43.0926 119.616 43.4086C119.917 43.7247 120.215 44.0444 120.509 44.3678C120.802 44.6913 121.092 45.0183 121.378 45.3488C121.663 45.6793 121.945 46.0134 122.222 46.351C122.5 46.6885 122.773 47.0294 123.042 47.3736C123.311 47.7178 123.576 48.0653 123.836 48.4161C124.097 48.767 124.353 49.1209 124.604 49.478C124.856 49.8351 125.103 50.1952 125.346 50.5585C125.589 50.9217 125.827 51.2878 126.061 51.6569C126.295 52.026 126.524 52.3979 126.749 52.7727C130.794 59.5719 133.43 68.6618 133.956 76.5552C134.303 81.7544 133.706 88.5024 132.413 93.5533C132.301 93.9956 132.184 94.4364 132.06 94.8757C131.937 95.3148 131.808 95.7523 131.673 96.1882C131.539 96.624 131.398 97.058 131.252 97.49C131.106 97.9221 130.954 98.3522 130.796 98.7803C130.639 99.2085 130.475 99.6344 130.307 100.058C130.138 100.482 129.963 100.903 129.784 101.323C129.604 101.742 129.418 102.159 129.227 102.573C129.036 102.987 128.84 103.399 128.638 103.808C128.436 104.217 128.229 104.623 128.016 105.027C127.804 105.431 127.586 105.831 127.363 106.229C127.14 106.627 126.911 107.022 126.678 107.414C126.444 107.806 126.206 108.194 125.962 108.58C125.718 108.966 125.469 109.348 125.215 109.727C124.961 110.106 124.702 110.481 124.439 110.853C124.175 111.226 123.906 111.594 123.632 111.959C123.359 112.324 123.081 112.686 122.797 113.043C121.962 114.098 121.084 115.117 120.165 116.1C119.633 116.675 118.998 117.245 118.534 117.872C116.95 119.26 115.593 120.86 113.862 122.092C113.868 121.911 113.932 121.865 114.03 121.717C113.951 121.557 113.981 121.531 113.804 121.468L113.452 121.723L113.315 121.683C114.24 120.861 115.245 120.13 116.147 119.281C120.578 115.109 123.815 110.755 126.743 105.44C129.444 100.537 131.58 93.0361 132.391 87.5016C133.187 82.0582 133.301 74.5411 131.754 69.2464C131.352 68.8822 130.992 67.6602 130.725 67.1238L130.569 67.1938C129.542 62.9771 127.705 58.8858 125.602 55.1052C123.174 50.1971 119.48 46.0236 115.503 42.3117C114.523 41.3969 113.411 40.5871 112.46 39.6566C112.437 39.635 112.417 39.6124 112.395 39.5903C111.838 39.2767 111.307 38.7941 110.793 38.4103C110.003 37.8123 109.184 37.2558 108.338 36.7407C104.385 34.2828 100.468 32.515 96.1161 30.9058L96.2073 30.8146C95.7475 30.3061 94.4872 30.3675 93.957 29.8036C93.2223 29.476 92.3201 29.2799 91.5483 29.0222C89.5268 28.3819 87.3956 28.0792 85.2937 27.8589C75.11 26.7919 64.4778 29.16 55.4303 33.8525C54.7187 34.2216 53.9987 34.6497 53.2639 34.9667L53.1565 34.9197C54.194 34.2892 55.334 33.7033 56.4351 33.1869C57.1609 32.8466 57.9609 32.5721 58.6265 32.1236L58.712 32.0672C58.729 32.0558 58.7458 32.0439 58.7626 32.0322L58.4512 32.0946L58.3926 32.036C58.7179 31.6594 62.3128 30.3535 63.0329 30.0796C62.6579 29.9196 61.2561 30.4314 60.8386 30.6C58.2062 31.6627 55.7369 32.8403 53.2647 34.2399C52.9601 34.4122 51.8854 35.143 51.6123 35.1846C51.5537 35.1935 51.4998 35.1477 51.4436 35.1294Z" fill="url(#paint5_linear_2_2)"/>
<path d="M93.9571 29.8036C94.6288 29.9406 95.2817 30.1489 95.9299 30.37C97.651 30.2519 99.0265 31.349 100.551 31.9654C101.584 32.3833 102.511 32.6353 103.595 32.8589C104.531 33.2609 105.679 33.8667 106.497 34.4719C107.393 34.942 108.271 35.4247 109.143 35.9378C109.665 36.2965 112.383 38.0404 112.672 38.4486C113.274 39.4167 114.315 40.1333 115.156 40.8944C115.865 41.5348 116.516 42.2364 117.221 42.88C117.8 43.4083 118.437 43.8906 118.983 44.4522C119.646 45.1333 121.892 47.9939 122.542 48.2883C123.485 49.3239 124.284 50.6672 125.011 51.8623C127.509 55.9651 129.526 60.1253 130.845 64.7625C131.233 66.1268 131.604 67.3283 131.662 68.7614L131.754 69.2464C131.352 68.8822 130.992 67.6601 130.726 67.1237L130.569 67.1937C129.542 62.977 127.705 58.8858 125.602 55.1051C123.174 50.197 119.481 46.0236 115.504 42.3117C114.523 41.3969 113.411 40.587 112.46 39.6565C112.438 39.635 112.417 39.6123 112.395 39.5903C111.839 39.2767 111.308 38.794 110.793 38.4103C110.003 37.8123 109.184 37.2557 108.338 36.7406C104.385 34.2828 100.468 32.515 96.1162 30.9058L96.2074 30.8145C95.7476 30.3061 94.4873 30.3675 93.9571 29.8036Z" fill="#F8CAB2"/>
<path d="M93.9571 29.8036C94.6288 29.9406 95.2816 30.1489 95.9299 30.37C98.117 31.125 100.191 32.0078 102.301 32.9517C103.109 33.3128 103.931 33.8048 104.755 34.1039C106.655 35.1697 110.361 37.3179 111.865 38.7783C112.674 39.3508 113.483 39.9303 114.243 40.5667C114.835 41.0619 115.397 41.62 116.005 42.0901C116.968 43.0679 118.01 43.9644 118.961 44.9564C120.677 46.7469 122.136 48.7253 123.523 50.7756C124.147 51.6981 124.835 52.6423 125.284 53.6668C125.305 54.2293 125.774 54.4472 125.602 55.1051C123.174 50.197 119.481 46.0236 115.504 42.3117C114.523 41.3969 113.411 40.587 112.46 39.6565C112.438 39.635 112.417 39.6123 112.395 39.5903C111.839 39.2767 111.308 38.794 110.793 38.4103C110.003 37.8123 109.184 37.2557 108.338 36.7406C104.385 34.2828 100.468 32.515 96.1162 30.9058L96.2074 30.8145C95.7476 30.3061 94.4873 30.3675 93.9571 29.8036Z" fill="#DD9963"/>
<path d="M125.284 53.6669C125.83 54.3111 126.255 55.143 126.661 55.8803C128.897 59.9444 130.255 64.3625 131.662 68.7614L131.754 69.2464C131.352 68.8822 130.992 67.6602 130.726 67.1238L130.569 67.1938C129.542 62.9771 127.705 58.8858 125.602 55.1052C125.774 54.4472 125.305 54.2294 125.284 53.6669Z" fill="#81FCCF"/>
<path d="M91.5482 29.0222C91.8812 28.988 92.2026 28.9606 92.5371 28.9981C94.8115 29.252 101.788 31.5819 103.595 32.8589C102.511 32.6353 101.584 32.3833 100.551 31.9655C99.0263 31.3491 97.6508 30.2519 95.9297 30.37C95.2815 30.1489 94.6287 29.9406 93.9569 29.8036C93.2223 29.4759 92.3201 29.2798 91.5482 29.0222Z" fill="#E9C7C1"/>
<path d="M112.672 38.4486C113.517 38.954 114.308 39.6726 115.056 40.3122C117.327 42.2533 119.402 44.2564 121.263 46.5929C121.701 47.1428 122.172 47.6911 122.542 48.2883C121.892 47.9939 119.646 45.1333 118.983 44.4522C118.437 43.8906 117.8 43.4083 117.221 42.88C116.516 42.2364 115.865 41.5348 115.157 40.8944C114.315 40.1333 113.274 39.4167 112.672 38.4486Z" fill="#E9C7C1"/>
<path d="M51.4436 35.1294C51.4999 35.1476 51.5538 35.1934 51.6124 35.1845C51.8855 35.1429 52.9602 34.4122 53.2647 34.2398C55.7369 32.8403 58.2063 31.6626 60.8386 30.6C61.2561 30.4314 62.658 29.9195 63.033 30.0795C62.3128 30.3534 58.718 31.6594 58.3927 32.0359L58.4513 32.0945L58.7627 32.0322C58.7458 32.0439 58.7291 32.0558 58.7121 32.0672L58.6266 32.1236C57.961 32.572 57.161 32.8465 56.4352 33.1869C55.3341 33.7033 54.1941 34.2892 53.1566 34.9197L53.2639 34.9667C51.2289 36.3219 49.1291 37.5244 47.1983 39.0372C45.7849 40.1447 44.4803 41.392 43.1981 42.6464C39.8972 45.8754 37.0135 49.277 34.6255 53.2445C34.1242 54.0773 33.5256 54.9922 33.1691 55.8925L33.2294 56.0423C33.1577 56.2017 33.0843 56.3602 33.0091 56.5179C33.0694 56.6475 33.021 56.6003 33.1586 56.6554C32.8888 57.1911 32.5699 57.7398 32.386 58.3103C30.1524 62.8564 28.647 67.9903 27.9992 73.0143C27.751 74.94 27.6767 76.8618 27.4913 78.7883C27.5727 83.1623 27.6522 87.0289 28.715 91.3161C29.0566 92.9454 29.4136 94.727 30.03 96.2736C30.3085 97.029 30.5622 97.8147 30.8766 98.5547C31.822 99.2351 32.1002 100.885 32.4625 101.949C32.4055 102.057 32.3605 102.172 32.2741 102.259C33.2174 104.677 35.2105 108.266 36.7558 110.379C37.4405 111.433 38.2202 112.405 38.9767 113.407C40.403 115.07 41.8058 116.784 43.3783 118.312C44.5111 119.412 45.7675 120.394 46.9325 121.462C47.1552 121.629 47.4035 121.866 47.6503 121.987C48.3238 122.574 50.8364 124.165 51.1931 124.621C52.8042 125.571 54.3816 126.559 56.0152 127.472C55.9594 127.61 55.9192 127.695 55.8285 127.815C54.8917 127.343 52.8875 125.918 52.1206 125.701C52.355 126.11 53.2858 126.525 53.7094 126.778C57.8483 129.242 62.2888 130.919 66.9258 132.174C68.1323 132.506 69.351 132.786 70.5819 133.011C71.8129 133.237 73.0515 133.408 74.2975 133.525C75.7471 133.655 77.2338 133.627 78.6724 133.835L78.6496 133.872C77.9021 133.982 77.1819 133.744 76.4457 133.823C76.0861 133.862 75.6216 133.757 75.256 133.731C72.2333 133.51 69.2792 132.911 66.3399 132.198C65.0739 131.891 63.7628 131.602 62.5624 131.092C62.3878 131.018 62.2275 131.009 62.041 130.998L61.8546 131.081C60.2156 130.839 54.41 127.371 53.7555 127.372C53.0864 127.08 52.3939 126.578 51.7725 126.188C50.896 125.638 50.0358 125.063 49.1919 124.464C48.3479 123.865 47.5217 123.243 46.7131 122.597C45.9047 121.951 45.1152 121.282 44.3447 120.591C43.5742 119.9 42.8239 119.188 42.0939 118.455C41.7802 118.14 41.4704 117.822 41.1645 117.5C40.8586 117.178 40.5567 116.853 40.2589 116.523C39.9612 116.194 39.6676 115.861 39.378 115.524C39.0884 115.188 38.803 114.847 38.5219 114.504C38.2407 114.16 37.9639 113.813 37.6914 113.462C37.4188 113.111 37.1506 112.757 36.8869 112.4C36.6231 112.043 36.3638 111.683 36.1089 111.319C35.8541 110.955 35.6039 110.588 35.3581 110.219C35.1123 109.849 34.8711 109.476 34.6345 109.1C34.3981 108.724 34.1663 108.345 33.9391 107.964C33.7119 107.582 33.4895 107.198 33.2719 106.811C33.0543 106.424 32.8415 106.034 32.6335 105.642C32.4254 105.249 32.2223 104.855 32.0241 104.457C31.8258 104.06 31.6326 103.66 31.4444 103.258C31.2561 102.856 31.0727 102.451 30.8944 102.045C30.7161 101.638 30.5428 101.229 30.3747 100.818C30.2065 100.407 30.0434 99.9939 29.8855 99.5789C29.7276 99.1639 29.5748 98.7469 29.4272 98.3281C29.2795 97.9092 29.137 97.4887 28.9999 97.0664C28.8627 96.644 28.7307 96.22 28.6039 95.7943C28.4773 95.3688 28.3558 94.9417 28.2397 94.5131C28.1236 94.0844 28.0127 93.6544 27.9072 93.2231C27.8018 92.7917 27.7017 92.3591 27.6069 91.9253C27.5121 91.4914 27.4227 91.0565 27.3386 90.6204C27.2546 90.1844 27.1761 89.7474 27.1028 89.3094C27.0297 88.8713 26.962 88.4325 26.8997 87.9929C26.8373 87.5533 26.7804 87.1128 26.7291 86.6717C26.6776 86.2306 26.6316 85.789 26.5911 85.3467C26.5507 84.9045 26.5157 84.4618 26.4861 84.0187C26.4566 83.5757 26.4326 83.1323 26.4141 82.6886C26.3955 82.2449 26.3825 81.8011 26.3749 81.357C26.3674 80.913 26.3653 80.469 26.3688 80.025C26.3708 79.6316 26.3773 79.2383 26.3881 78.845C26.3989 78.4517 26.414 78.0587 26.4336 77.6659C26.4532 77.273 26.4771 76.8803 26.5053 76.4879C26.5336 76.0955 26.5662 75.7035 26.6031 75.3118C26.6401 74.9203 26.6814 74.5291 26.727 74.1384C26.7727 73.7477 26.8227 73.3575 26.877 72.9678C26.9313 72.5782 26.99 72.1892 27.053 71.8009C27.1159 71.4126 27.1831 71.025 27.2547 70.6383C27.3263 70.2514 27.4021 69.8654 27.4822 69.4803C27.5623 69.0952 27.6467 68.711 27.7355 68.3278C27.8241 67.9445 27.917 67.5622 28.0141 67.1811C28.1113 66.7998 28.2127 66.4197 28.3183 66.0408C28.4238 65.6618 28.5336 65.2841 28.6477 64.9076C28.7616 64.5311 28.8798 64.1559 29.002 63.782C29.1243 63.4081 29.2508 63.0357 29.3814 62.6645C29.5119 62.2935 29.6466 61.9239 29.7855 61.5558C29.9242 61.1877 30.0671 60.8212 30.2141 60.4562C30.361 60.0913 30.5119 59.7281 30.6669 59.3665C30.8219 59.005 30.9809 58.6452 31.1439 58.2872C31.3069 57.9291 31.4739 57.573 31.6447 57.2187C31.8156 56.8644 31.9904 56.512 32.1691 56.1615C32.3478 55.8111 32.5304 55.4627 32.7169 55.1162C32.9033 54.7699 33.0937 54.4256 33.2878 54.0834C33.4819 53.7412 33.6798 53.4013 33.8814 53.0636C34.0831 52.7258 34.2885 52.3902 34.4975 52.057C34.7067 51.7239 34.9195 51.393 35.136 51.0645C35.3523 50.7361 35.5724 50.41 35.7961 50.0864C36.0198 49.7628 36.247 49.4418 36.4778 49.1233C36.7087 48.8047 36.943 48.4887 37.1808 48.1753C37.4187 47.862 37.66 47.5513 37.9047 47.2434C38.1494 46.9354 38.3975 46.6301 38.6491 46.3276C38.9006 46.0251 39.1555 45.7255 39.4136 45.4287C40.6186 44.0537 41.9111 42.632 43.2675 41.4044C44.2391 40.5248 45.3353 39.7289 46.2589 38.8051L46.3372 38.7259C48.0035 37.464 49.6119 36.1523 51.4436 35.1294Z" fill="#C7B7B5"/>
<path d="M27.1263 78.5705C27.6236 79.3221 26.94 80.3285 27.2447 81.1069L27.4077 81.1071C27.4713 80.7141 27.2827 78.9552 27.4913 78.7883C27.5727 83.1624 27.6522 87.0289 28.715 91.3161C29.0566 92.9455 29.4136 94.727 30.03 96.2736C30.3084 97.0291 30.5622 97.8147 30.8766 98.5547C31.822 99.2352 32.1002 100.885 32.4625 101.949C32.4055 102.057 32.3605 102.172 32.2741 102.259C33.2174 104.677 35.2105 108.266 36.7558 110.379C37.4405 111.433 38.2202 112.405 38.9767 113.407C40.403 115.07 41.8058 116.784 43.3783 118.312C44.5111 119.412 45.7675 120.394 46.9325 121.462C47.1552 121.629 47.4035 121.866 47.6503 121.987C48.3238 122.575 50.8364 124.165 51.1932 124.621C52.8042 125.571 54.3816 126.559 56.0152 127.472C55.9594 127.61 55.9193 127.695 55.8285 127.815C54.8918 127.343 52.8875 125.918 52.1207 125.701L52.0011 125.53C50.4982 124.741 47.4027 122.504 46.1966 121.294C44.8508 120.506 39.4278 114.738 38.3706 113.214C38.3514 113.202 38.3302 113.193 38.3133 113.178C37.5283 112.492 35.2678 108.912 34.6681 107.867C33.6613 106.112 32.6822 104.335 31.8542 102.488C29.5692 97.39 27.8006 91.0141 27.2817 85.461C27.0672 83.1655 27.0678 80.8727 27.1263 78.5705Z" fill="#BA5927"/>
<path d="M30.8765 98.5547C31.822 99.2352 32.1001 100.885 32.4625 101.949C32.4054 102.057 32.3604 102.172 32.274 102.259C31.664 101.127 31.225 99.7883 30.8765 98.5547Z" fill="#B8AC9A"/>
<path d="M33.169 55.8925L33.2294 56.0423C33.1577 56.2017 33.0842 56.3602 33.009 56.5179C33.0693 56.6475 33.0209 56.6003 33.1586 56.6554C32.8887 57.1911 32.5698 57.7398 32.3859 58.3103C30.1523 62.8564 28.647 67.9903 27.9992 73.0143C27.7509 74.94 27.6767 76.8618 27.4912 78.7883C27.2826 78.9551 27.4712 80.714 27.4076 81.107L27.2447 81.1068C26.94 80.3284 27.6236 79.322 27.1262 78.5704C27.0284 77.0939 27.2872 75.4601 27.4823 73.9956C28.3236 67.6858 30.0703 61.4864 33.169 55.8925Z" fill="#D36F3F"/>
<path d="M113.315 121.684L113.452 121.723L113.805 121.468C113.981 121.531 113.951 121.557 114.03 121.717C113.932 121.865 113.868 121.911 113.862 122.092C113.141 122.841 112.179 123.334 111.394 124.009C111.04 124.551 110.622 125.122 109.987 125.352L110.017 125.152C109.276 125.43 107.907 126.694 107.234 126.675C105.65 127.519 102.005 129.735 100.406 130.046C99.3777 130.542 96.1534 131.864 95.1123 132.007C92.7631 133.007 86.8311 134.102 84.2358 134.144C83.6548 134.191 83.0814 134.231 82.4983 134.225L82.1948 134.226C81.7915 134.17 81.3501 134.209 80.9409 134.2C79.9456 134.179 78.9089 134.157 77.9261 133.993C77.5487 133.968 77.1664 133.981 76.7883 133.982C75.8793 133.878 74.9615 133.845 74.0503 133.76C71.1423 133.503 68.1687 132.85 65.3556 132.09C64.1884 131.774 63.037 131.32 61.8545 131.081L62.0409 130.998C62.2275 131.01 62.3878 131.018 62.5623 131.092C63.7628 131.602 65.0739 131.891 66.3398 132.199C69.2792 132.912 72.2333 133.51 75.2559 133.731C75.6215 133.758 76.0861 133.862 76.4456 133.823C77.1819 133.744 77.902 133.982 78.6495 133.872L78.6723 133.836C77.2337 133.627 75.747 133.655 74.2975 133.526C73.0514 133.409 71.8129 133.237 70.5818 133.012C69.3509 132.786 68.1322 132.507 66.9257 132.174C62.2887 130.919 57.8482 129.242 53.7093 126.778C53.2857 126.526 52.355 126.11 52.1206 125.702C52.8875 125.918 54.8917 127.343 55.8284 127.815C55.9192 127.695 55.9593 127.61 56.0151 127.473C57.1493 128.024 58.2776 128.602 59.4285 129.117C61.7201 130.038 63.9878 130.815 66.354 131.523C69.6906 132.304 72.9562 133.028 76.4011 133.142C76.9817 133.162 77.6025 133.222 78.1804 133.182C79.4134 133.239 80.639 133.209 81.8725 133.199C82.1661 133.139 82.4851 133.141 82.7844 133.122C83.8264 133.128 84.8584 133.039 85.8915 132.91C88.2551 132.765 92.5951 131.764 94.8764 131.041C95.8826 130.722 96.8466 130.244 97.8637 129.962L97.9276 129.945C98.2723 129.916 98.5889 129.87 98.9231 129.781C98.8422 129.854 98.7694 129.915 98.677 129.975C98.562 130.049 98.6136 130.007 98.5134 130.135C103.636 128.554 109.049 124.872 113.315 121.684Z" fill="#B8AC9A"/>
<path d="M56.0151 127.472C57.1493 128.024 58.2776 128.602 59.4286 129.117C61.7201 130.038 63.9878 130.814 66.354 131.523C69.6906 132.304 72.9562 133.028 76.401 133.142C76.9817 133.162 77.6024 133.222 78.1804 133.181C79.4134 133.239 80.639 133.209 81.8724 133.199C82.166 133.139 82.4851 133.141 82.7843 133.122C83.8263 133.128 84.8584 133.039 85.8915 132.91C88.2551 132.765 92.5951 131.763 94.8763 131.041C95.8826 130.722 96.8465 130.244 97.8637 129.962L97.9276 129.945C98.2723 129.916 98.5888 129.87 98.923 129.781C98.8421 129.854 98.7693 129.915 98.677 129.974C98.562 130.049 98.6135 130.006 98.5134 130.134C96.4791 131.046 94.3381 131.494 92.2504 132.217C90.9849 132.416 89.7434 132.759 88.4774 132.966C86.2863 133.325 84.1131 133.478 81.9023 133.618C78.5201 134.027 69.4065 133.172 66.2268 131.833C64.6928 131.579 61.0075 130.352 59.6809 129.577C58.3882 129.176 57.0103 128.467 55.8284 127.815C55.9192 127.695 55.9593 127.61 56.0151 127.472Z" fill="#D36F3F"/>
<path d="M84.5724 133.829C87.2717 133.547 89.9438 133.101 92.5887 132.492C93.1664 132.362 94.592 131.817 95.1125 132.007C92.7632 133.007 86.8312 134.102 84.2359 134.144C83.6549 134.191 83.0815 134.231 82.4984 134.225C82.6928 134.103 82.9213 134.01 83.1285 133.909C83.6091 133.867 84.0904 133.841 84.5724 133.829Z" fill="#7E9082"/>
<path d="M77.9261 133.993C79.5519 133.914 81.4845 133.907 83.1284 133.909C82.9212 134.01 82.6927 134.103 82.4983 134.225L82.1948 134.226C81.7916 134.17 81.3501 134.209 80.9409 134.2C79.9456 134.179 78.9089 134.157 77.9261 133.993Z" fill="#8F9793"/>
<path d="M107.234 126.675C107.713 126.315 108.272 126.019 108.78 125.698C109.654 125.139 110.525 124.576 111.394 124.009C111.04 124.551 110.622 125.122 109.987 125.352L110.017 125.152C109.276 125.43 107.907 126.694 107.234 126.675Z" fill="#06604B"/>
<path d="M130.569 67.1938L130.725 67.1238C130.992 67.6602 131.352 68.8822 131.754 69.2465C133.301 74.5412 133.187 82.0582 132.391 87.5016C131.58 93.0362 129.444 100.537 126.743 105.44C123.815 110.755 120.578 115.109 116.147 119.281C115.245 120.13 114.24 120.861 113.315 121.684C109.049 124.871 103.636 128.554 98.5134 130.135C98.6135 130.007 98.562 130.049 98.677 129.975C98.7693 129.915 98.8421 129.854 98.923 129.781C98.5888 129.87 98.2723 129.916 97.9276 129.945C99.2971 129.321 100.731 128.831 102.104 128.195C106.01 126.386 110.407 123.711 113.602 120.819C114.548 120.101 115.416 119.312 116.292 118.511C117.012 117.794 117.726 117.034 118.379 116.256C118.408 116.084 118.442 115.985 118.54 115.838C118.982 115.172 119.596 114.567 120.115 113.957C120.828 113.119 121.509 112.195 122.109 111.273C122.563 110.573 123.004 109.863 123.487 109.182C123.852 108.667 124.285 108.18 124.616 107.643C125.164 106.756 126.334 104.119 127.005 103.517C127.081 103.435 127.052 103.475 127.113 103.362C128.077 101.58 128.751 99.7332 129.376 97.8123C130.935 93.0133 131.74 88.2119 132.152 83.1946C132.302 81.3674 132.459 79.5883 132.386 77.7529C132.25 74.3174 131.577 70.4721 130.569 67.1938Z" fill="url(#paint6_linear_2_2)"/>
<path d="M118.38 116.256C118.408 116.084 118.442 115.985 118.54 115.838C118.982 115.172 119.596 114.567 120.115 113.957C120.828 113.119 121.509 112.195 122.109 111.273C122.564 110.573 123.004 109.863 123.487 109.182C123.852 108.667 124.285 108.18 124.616 107.643C125.164 106.755 126.334 104.118 127.005 103.517C125.971 106.56 120.777 114.295 118.38 116.256Z" fill="#B8AC9A"/>
<path d="M53.2639 34.9667C53.9988 34.6497 54.7187 34.2215 55.4303 33.8525C64.4778 29.16 75.11 26.7918 85.2937 27.8589C87.3956 28.0792 89.5269 28.3818 91.5483 29.0222C92.3202 29.2798 93.2223 29.4759 93.957 29.8036C94.4872 30.3675 95.7475 30.3061 96.2073 30.8145L96.1161 30.9058C93.1728 30.0822 90.1777 29.2073 87.147 28.7645C75.7739 27.1023 63.6675 29.6575 53.6839 35.2732C53.2859 35.4981 52.8956 35.7358 52.513 35.9862C50.765 37.0128 49.0045 38.1629 47.4206 39.4311C46.2164 40.4312 44.8128 41.4875 43.7891 42.6717C43.0469 43.4026 42.2898 44.1223 41.6012 44.9048L41.5839 45.3817C41.2327 45.9226 40.6405 46.3028 40.3095 46.8331L39.8003 46.9112C39.2636 47.5278 38.6983 48.134 38.228 48.8036C36.9172 50.3926 35.7858 52.1071 34.7541 53.8875C34.2955 54.6789 33.6925 55.976 33.1586 56.6554C33.0209 56.6003 33.0694 56.6475 33.0091 56.5179C33.0843 56.3602 33.1577 56.2017 33.2294 56.0423L33.1691 55.8925C33.5256 54.9921 34.1242 54.0773 34.6255 53.2445C37.0134 49.277 39.8972 45.8754 43.1981 42.6464C44.4803 41.392 45.7848 40.1447 47.1983 39.0372C49.1291 37.5243 51.2289 36.3218 53.2639 34.9667Z" fill="#E8894F"/>
<path d="M39.8003 46.9112C40.3764 46.2206 40.9767 45.5518 41.6013 44.9048L41.5839 45.3817C41.2327 45.9226 40.6405 46.3028 40.3095 46.8331L39.8003 46.9112Z" fill="#B8AC9A"/>
<path d="M36.7558 110.379L37.1741 110.651L37.2849 110.622C37.9303 111.495 38.5987 112.351 39.29 113.189C39.9813 114.026 40.6945 114.845 41.4299 115.644C42.1651 116.444 42.9212 117.223 43.6981 117.982C44.4752 118.741 45.272 119.478 46.0886 120.194C46.8303 120.847 47.5611 121.533 48.353 122.124C50.1483 123.45 51.977 124.781 53.9061 125.908C55.0242 126.561 56.2197 127.104 57.3858 127.665C61.2147 129.51 64.9277 131.001 69.1291 131.79C70.7394 132.092 72.3961 132.329 74.0237 132.515C75.0884 132.637 76.2469 132.637 77.2744 132.941C77.4961 133.006 78.027 133.04 78.1805 133.181C77.6025 133.222 76.9817 133.162 76.4011 133.142C72.9562 133.028 69.6906 132.304 66.3541 131.523C63.9878 130.815 61.7202 130.038 59.4286 129.117C58.2777 128.602 57.1494 128.024 56.0152 127.473C54.3816 126.559 52.8042 125.571 51.1931 124.621C50.8364 124.165 48.3238 122.575 47.6503 121.987C47.4034 121.866 47.1552 121.629 46.9325 121.462C45.7675 120.394 44.5111 119.412 43.3783 118.312C41.8058 116.784 40.403 115.07 38.9767 113.407C38.2202 112.405 37.4405 111.434 36.7558 110.379Z" fill="#B8AC9A"/>
<path d="M113.17 120.819C114.038 120.426 114.625 119.431 115.413 118.875L115.53 118.794C115.81 118.597 115.945 118.514 116.292 118.511C115.416 119.312 114.548 120.101 113.602 120.819C110.407 123.711 106.01 126.385 102.104 128.195C100.731 128.831 99.2972 129.321 97.9277 129.945L97.8638 129.962C96.8466 130.244 95.8827 130.722 94.8764 131.041C92.5952 131.763 88.2552 132.765 85.8916 132.91C84.8585 133.039 83.8264 133.128 82.7844 133.122C83.3888 132.913 83.9463 132.946 84.5699 132.874C84.2769 132.763 83.9881 132.848 83.6916 132.774C84.6816 132.646 85.6736 132.536 86.6677 132.445C87.6227 132.413 88.6574 132.094 89.607 131.926C94.4966 131.063 100.685 128.814 105.012 126.356C106.632 125.436 108.188 124.363 109.723 123.31C110.884 122.513 112.076 121.706 113.17 120.819Z" fill="#B8AC9A"/>
<path d="M38.228 48.8036L38.3806 48.9107C38.3225 49.1192 38.2566 49.3228 38.1861 49.5275C37.5222 50.4713 36.7628 51.3764 36.1501 52.3503C35.9762 52.6267 34.8069 54.6763 34.7195 54.7471L34.9478 54.0419L34.9017 54.0392C34.4095 54.7833 32.7958 58.006 32.3859 58.3103C32.5698 57.7399 32.8887 57.1911 33.1586 56.6555C33.6925 55.9761 34.2955 54.6789 34.7541 53.8875C35.7858 52.1072 36.9172 50.3927 38.228 48.8036Z" fill="#B8AC9A"/>
<path d="M47.4206 39.4311C49.0045 38.163 50.765 37.0128 52.513 35.9863C52.2225 36.5038 51.1744 37.0399 50.6348 37.313L50.7283 37.3886C50.9091 37.3319 51.0745 37.2677 51.2497 37.195C51.4098 37.1285 51.5237 37.0944 51.6972 37.0914C51.4128 37.3552 50.8494 37.4986 50.4969 37.7058C49.7658 38.1355 49.0562 38.6716 48.4109 39.22L48.3448 39.1647C48.4052 39.0241 48.4823 38.9367 48.5852 38.8246C48.3875 38.8136 47.6739 39.4278 47.4703 39.5722C47.2353 39.78 46.8928 40.0153 46.7503 40.2949C47.0139 40.0961 47.2652 39.9002 47.4991 39.6667L47.5031 39.7017L47.6708 39.666C47.1927 40.1035 46.6667 40.4789 46.1897 40.9149C45.5369 41.5113 44.9384 42.2211 44.2127 42.7264L43.7891 42.6717C44.8128 41.4875 46.2164 40.4313 47.4206 39.4311Z" fill="#B8AC9A"/>
<path d="M32.2741 102.259C32.3605 102.172 32.4055 102.057 32.4625 101.949C33.0755 103.561 34.4872 106.216 35.4111 107.68C36.0205 108.645 36.7936 109.598 37.2849 110.621L37.1741 110.651L36.7558 110.379C35.2105 108.266 33.2174 104.676 32.2741 102.259Z" fill="#CDC8A5"/>
<path d="M28.715 91.3161C29.3581 91.8511 29.9503 94.5931 30.0364 95.472C30.0622 95.7357 30.0469 96.0095 30.03 96.2736C29.4136 94.727 29.0565 92.9454 28.715 91.3161Z" fill="#CDC8A5"/>
<path d="M43.789 42.6717L44.2126 42.7264C43.6214 43.3557 43.0384 43.999 42.4255 44.6071C42.163 44.8673 41.8014 45.0934 41.5839 45.3817L41.6012 44.9048C42.2898 44.1223 43.0469 43.4026 43.789 42.6717Z" fill="#CDC8A5"/>
<path d="M39.8003 46.9112L40.3095 46.8331C39.6545 47.7834 38.7747 48.5354 38.1861 49.5275C38.2566 49.3228 38.3225 49.1192 38.3806 48.9106L38.228 48.8035C38.6983 48.134 39.2636 47.5278 39.8003 46.9112Z" fill="#CDC8A5"/>
<path d="M64.8244 45.4849C65.1608 45.0117 65.6101 45.152 65.9395 44.8096L65.8525 44.7624L65.3761 44.9059L65.3423 44.887C67.3705 43.6835 68.7986 44.0035 70.5509 43.1779C70.8237 43.0495 71.113 43.1998 71.4348 43.054C71.8925 42.847 72.2772 42.6251 72.7812 42.6599C72.8103 42.662 72.8392 42.6476 72.868 42.6512C72.9023 42.6556 72.9337 42.6729 72.9666 42.6837C72.9853 42.6687 73.0039 42.6535 73.023 42.639C74.0739 41.8337 76.0983 41.8782 77.3909 41.7193C77.8873 41.6584 78.3852 41.5504 78.8855 41.5326C79.6942 41.5039 80.5011 41.5923 81.3078 41.579C82.2109 41.5642 83.1047 41.4092 84.0117 41.5376C84.2883 41.5756 84.5604 41.6344 84.828 41.714C85.1658 41.8115 85.5731 41.7781 85.925 41.8206C86.7242 41.9168 87.5652 42.0578 88.3539 42.2214C90.7338 42.715 93.5778 43.519 95.812 44.5001C96.608 44.8495 97.3794 45.2829 98.1617 45.6642C98.1642 45.799 98.1811 45.7306 98.0871 45.862C98.3258 46.0646 98.4835 45.9154 98.6994 46.0535L102.538 48.5345C104.253 49.6368 106.549 51.436 107.92 52.9359C108.497 53.566 108.956 54.2617 109.501 54.911C110.215 55.762 110.953 56.5779 111.572 57.504C112.017 58.1684 112.328 58.9012 112.754 59.5779C113.323 60.4807 113.687 61.4448 114.215 62.3531C114.437 62.7367 115.01 63.1968 115.1 63.624C115.129 63.7613 115.052 63.9671 115.087 64.0849C115.246 64.6177 115.754 65.1035 115.898 65.6535C116.012 66.0862 115.867 66.4068 116.096 66.8415C116.233 67.1031 116.311 67.4681 116.271 67.761L116.215 67.851C116.239 67.8815 116.263 67.9113 116.286 67.9421C116.613 68.3823 116.854 69.1876 116.998 69.7263C117.201 70.4823 118.091 75.5005 117.973 76.0087C117.953 76.0965 117.933 76.1271 117.893 76.2141L117.903 76.5195C118.382 79.2555 118.196 82.1996 117.824 84.9341C116.98 91.1438 115.138 96.8208 111.51 101.984C111.374 102.18 111.236 102.374 111.097 102.568C110.957 102.761 110.816 102.953 110.673 103.143C110.53 103.334 110.385 103.523 110.238 103.711C110.091 103.898 109.943 104.085 109.793 104.27C109.643 104.455 109.491 104.638 109.337 104.821C109.183 105.003 109.028 105.183 108.871 105.363C108.714 105.542 108.555 105.72 108.395 105.896C108.234 106.072 108.072 106.247 107.909 106.42C107.745 106.593 107.58 106.765 107.413 106.935C107.246 107.105 107.077 107.273 106.907 107.44C106.737 107.607 106.565 107.772 106.392 107.936C106.219 108.1 106.044 108.262 105.868 108.422C105.692 108.582 105.514 108.741 105.335 108.898C105.156 109.055 104.975 109.211 104.793 109.364C104.611 109.518 104.427 109.67 104.242 109.82C104.057 109.97 103.871 110.119 103.683 110.265C103.495 110.412 103.306 110.557 103.115 110.7C102.925 110.843 102.733 110.984 102.54 111.124C102.346 111.263 102.152 111.401 101.956 111.537C101.76 111.673 101.563 111.807 101.365 111.939C101.167 112.071 100.967 112.201 100.766 112.33C100.566 112.458 100.364 112.584 100.161 112.709C99.9575 112.834 99.7532 112.956 99.5477 113.077C99.3423 113.198 99.1357 113.316 98.928 113.433C98.7204 113.55 98.5116 113.665 98.3017 113.778C98.0918 113.891 97.8809 114.002 97.6691 114.111C97.4571 114.22 97.2442 114.327 97.0303 114.432C96.8164 114.537 96.6014 114.639 96.3855 114.74C96.1697 114.841 95.9528 114.94 95.735 115.037C95.5173 115.134 95.2987 115.228 95.0792 115.321C94.8597 115.414 94.6392 115.504 94.418 115.593C94.1967 115.682 93.9747 115.768 93.7519 115.852C91.2836 116.781 87.957 117.6 85.3375 117.883C84.8841 117.932 83.9903 117.91 83.6114 118.114L83.6964 118.155C83.4252 118.302 82.9942 118.206 82.682 118.224C80.2258 118.367 77.7575 118.168 75.3136 117.874C74.7867 117.811 74.4359 118.097 73.9759 118.073C72.9948 118.022 71.55 117.534 70.6417 117.614L71.4298 117.917C73.948 118.367 76.4677 118.916 79.0366 118.956C79.6109 118.965 80.1844 118.894 80.7588 118.892C81.5641 118.89 82.3025 118.991 83.117 118.904C83.7631 118.834 84.6816 118.346 85.2936 118.476L85.3134 118.58C85.2716 118.589 85.228 118.592 85.1877 118.606C82.8309 119.444 80.2114 119.178 77.7506 119.198C76.4614 119.208 74.9577 119.319 73.6937 119.092C73.8789 118.934 74.4023 118.843 74.6491 118.838C74.6992 118.837 74.7494 118.838 74.7995 118.838C73.8433 118.413 72.6553 118.449 71.635 118.209C70.3456 117.905 69.0012 117.428 67.7414 117.006C66.5415 116.592 65.3682 116.114 64.2215 115.57C63.5386 115.238 62.8228 114.696 62.0967 114.507L62.0922 114.559C62.2586 114.716 62.4169 114.87 62.6259 114.968C63.01 115.147 63.7705 115.444 63.9664 115.812L63.899 115.89C63.0815 115.466 62.3305 114.921 61.5239 114.479C60.8695 114.12 60.0534 113.858 59.484 113.379L59.503 113.298C59.6392 113.3 59.6983 113.301 59.8151 113.378C60.0211 113.512 60.2417 113.603 60.4661 113.703C60.1447 113.446 59.5844 112.936 59.1697 112.943C59.2531 113.049 59.214 112.986 59.2744 113.142L59.1962 113.171C58.6419 112.748 57.9248 112.701 57.3378 112.329C55.967 111.461 54.2017 109.64 53.0362 108.432C52.7595 108.145 51.6237 106.693 51.3742 106.654L51.0667 106.605L51.2811 106.535C51.212 106.356 50.267 104.981 50.1217 104.822C49.84 104.515 49.4806 104.418 49.2698 104.022L49.3403 103.986C49.6019 104.088 49.8248 104.345 50.03 104.533L50.09 104.492C49.5543 103.264 47.6675 101.017 46.8587 99.7244C46.0051 98.3602 45.3748 96.7029 44.7136 95.2293L44.4734 95.3119L44.3437 95.239C44.2392 95.043 44.0825 94.8357 44.1189 94.6063L44.3378 94.591C44.3581 94.5623 44.3901 94.539 44.3989 94.5049C44.4403 94.3429 42.5337 89.0258 42.6307 88.0262C41.9318 85.0627 41.7957 82.1176 41.8629 79.0846C41.8886 77.9341 41.8934 76.794 42.1236 75.6627C42.3312 76.3729 41.8806 77.2727 42.0309 78.0082C42.0643 78.172 42.0298 78.1163 42.1561 78.2049C42.1798 78.1929 42.2053 78.1838 42.2273 78.1687C42.4061 78.0457 42.5768 77.732 42.6303 77.5221C42.78 76.9359 42.7137 76.2163 42.7645 75.6085C42.8395 74.713 42.9979 73.7598 43.2053 72.8854L43.2987 72.9054C43.5931 72.3648 43.7126 71.1293 43.874 70.4699C44.0803 69.6442 44.3121 68.8257 44.5695 68.0145C46.3168 62.5812 49.6154 57.3592 53.6561 53.3468C55.5661 51.4879 57.7709 49.4863 60.0776 48.1482C61.5873 47.1288 63.1969 46.2965 64.8244 45.4849Z" fill="#E2DFD9"/>
<path d="M42.6307 88.0263C41.9318 85.0629 41.7957 82.1177 41.8629 79.0847C41.8886 77.9343 41.8934 76.7941 42.1236 75.6629C42.3312 76.373 41.8806 77.2729 42.0309 78.0083C42.0643 78.1721 42.0298 78.1165 42.1561 78.2051C42.1798 78.193 42.2053 78.184 42.2273 78.1688C42.4061 78.0458 42.5768 77.7321 42.6303 77.5222C42.78 76.936 42.7137 76.2165 42.7645 75.6086C42.8395 74.7132 42.9979 73.7599 43.2053 72.8855L43.2987 72.9055C43.2293 73.3769 43.1673 73.8496 43.0632 74.3149L43.3236 74.3743C43.0467 76.6096 42.8856 78.8671 42.9857 81.121C43.1012 81.8079 43.0993 82.5346 43.1373 83.2304C43.4887 85.3696 43.7611 87.511 44.3217 89.6107C46.5061 97.7933 51.7429 105.652 58.6392 110.597C59.6248 111.304 60.6507 111.96 61.6649 112.625L61.7917 112.686C63.2765 113.403 64.6559 114.28 66.1812 114.939C68.939 116.13 71.8503 116.681 74.749 117.375L74.5709 117.669C77.5568 118.017 80.6007 118.334 83.6113 118.114L83.6963 118.155C83.4251 118.302 82.9941 118.206 82.682 118.224C80.2257 118.367 77.7574 118.168 75.3135 117.875C74.7867 117.811 74.4359 118.097 73.9759 118.073C72.9948 118.022 71.5499 117.535 70.6417 117.615L71.4298 117.917C73.9479 118.367 76.4676 118.916 79.0365 118.956C79.6109 118.965 80.1843 118.894 80.7587 118.892C81.564 118.89 82.3024 118.991 83.117 118.904C83.763 118.834 84.6815 118.346 85.2935 118.476L85.3134 118.58C85.2715 118.589 85.2279 118.592 85.1876 118.606C82.8309 119.444 80.2113 119.178 77.7506 119.198C76.4613 119.208 74.9576 119.32 73.6937 119.092C73.8788 118.935 74.4023 118.843 74.649 118.838C74.6992 118.837 74.7493 118.838 74.7995 118.838C73.8432 118.413 72.6552 118.449 71.6349 118.209C70.3456 117.905 69.0012 117.428 67.7413 117.006C66.5415 116.592 65.3682 116.114 64.2215 115.57C63.5385 115.239 62.8228 114.696 62.0967 114.507L62.0921 114.56C62.2585 114.716 62.4168 114.87 62.6259 114.968C63.0099 115.147 63.7704 115.444 63.9664 115.812L63.899 115.89C63.0815 115.466 62.3304 114.921 61.5239 114.479C60.8695 114.12 60.0534 113.858 59.484 113.379L59.5029 113.298C59.6392 113.3 59.6982 113.302 59.8151 113.378C60.021 113.513 60.2417 113.603 60.466 113.703C60.1446 113.446 59.5843 112.936 59.1696 112.943C59.2531 113.05 59.214 112.986 59.2743 113.142L59.1962 113.171C58.6418 112.748 57.9248 112.701 57.3378 112.329C55.967 111.461 54.2017 109.64 53.0362 108.432C52.7595 108.145 51.6237 106.694 51.3742 106.654L51.0667 106.605L51.2811 106.535C51.212 106.356 50.267 104.981 50.1217 104.823C49.84 104.515 49.4806 104.418 49.2698 104.022L49.3403 103.986C49.6018 104.088 49.8248 104.345 50.03 104.533L50.09 104.492C49.5543 103.264 47.6675 101.017 46.8587 99.7246C46.0051 98.3603 45.3748 96.703 44.7136 95.2294L44.4734 95.3121L44.3437 95.2391C44.2392 95.0432 44.0825 94.8358 44.1189 94.6064L44.3378 94.5911C44.3581 94.5624 44.3901 94.5391 44.3989 94.505C44.4403 94.343 42.5337 89.026 42.6307 88.0263Z" fill="#F5F3F4"/>
<path d="M42.6307 88.0262C43.451 90.2497 43.8295 92.5979 44.7154 94.8111C45.8306 97.5967 47.1706 99.9047 48.8649 102.371C53.3012 108.827 57.7766 112.426 64.8618 115.697C66.5366 116.471 69.6499 117.62 71.4298 117.917C73.9479 118.367 76.4676 118.916 79.0365 118.956C79.6109 118.965 80.1843 118.894 80.7587 118.892C81.564 118.89 82.3024 118.991 83.1169 118.904C83.763 118.834 84.6815 118.346 85.2935 118.476L85.3134 118.58C85.2715 118.589 85.2279 118.592 85.1876 118.606C82.8309 119.444 80.2113 119.178 77.7505 119.198C76.4613 119.208 74.9576 119.32 73.6937 119.092C73.8788 118.935 74.4023 118.843 74.649 118.838C74.6991 118.837 74.7493 118.838 74.7995 118.838C73.8432 118.413 72.6552 118.449 71.6349 118.209C70.3456 117.905 69.0012 117.428 67.7413 117.006C66.5414 116.592 65.3682 116.114 64.2215 115.57C63.5385 115.239 62.8227 114.696 62.0966 114.507L62.0921 114.56C62.2585 114.716 62.4168 114.87 62.6259 114.968C63.0099 115.147 63.7704 115.444 63.9663 115.812L63.899 115.89C63.0815 115.466 62.3304 114.921 61.5238 114.479C60.8695 114.12 60.0534 113.858 59.484 113.379L59.5029 113.298C59.6391 113.3 59.6982 113.302 59.8151 113.378C60.021 113.512 60.2416 113.603 60.466 113.703C60.1446 113.446 59.5843 112.936 59.1696 112.943C59.2531 113.05 59.214 112.986 59.2743 113.142L59.1962 113.171C58.6418 112.748 57.9248 112.701 57.3377 112.329C55.967 111.461 54.2017 109.64 53.0362 108.432C52.7595 108.145 51.6237 106.694 51.3742 106.654L51.0667 106.605L51.281 106.535C51.212 106.356 50.267 104.981 50.1217 104.822C49.8399 104.515 49.4806 104.418 49.2698 104.022L49.3402 103.986C49.6018 104.088 49.8248 104.345 50.0299 104.533L50.0899 104.492C49.5543 103.264 47.6674 101.017 46.8587 99.7245C46.0051 98.3603 45.3748 96.7029 44.7135 95.2293L44.4734 95.312L44.3437 95.239C44.2392 95.0431 44.0824 94.8358 44.1188 94.6064L44.3377 94.5911C44.3581 94.5623 44.3901 94.539 44.3988 94.505C44.4403 94.3429 42.5337 89.0259 42.6307 88.0262Z" fill="#E2DFD9"/>
<path d="M43.1374 83.2303C43.4888 85.3695 43.7611 87.5109 44.3217 89.6106C46.5061 97.7932 51.743 105.651 58.6392 110.597C59.6249 111.304 60.6508 111.96 61.665 112.625L61.7917 112.686C63.2766 113.403 64.6559 114.28 66.1813 114.939C68.9391 116.13 71.8503 116.681 74.7491 117.375L74.5709 117.669C73.9616 117.657 73.2538 117.434 72.6539 117.295C68.7828 116.404 64.8247 114.905 61.4583 112.781C60.0367 111.825 58.583 110.894 57.2569 109.808C57.0071 109.606 56.7598 109.4 56.5149 109.192C56.2701 108.984 56.0279 108.773 55.7883 108.559C55.5487 108.344 55.3117 108.127 55.0774 107.907C54.8431 107.687 54.6115 107.464 54.3827 107.239C54.1539 107.013 53.9279 106.784 53.7047 106.553C53.4815 106.322 53.2611 106.088 53.0436 105.851C52.8262 105.615 52.6117 105.376 52.4 105.134C52.1885 104.892 51.9799 104.647 51.7742 104.4C51.5687 104.153 51.3662 103.904 51.1667 103.652C50.9673 103.4 50.7709 103.145 50.5777 102.888C50.3844 102.632 50.1944 102.372 50.0075 102.111C49.8206 101.849 49.637 101.586 49.4566 101.32C49.2763 101.054 49.0992 100.786 48.9253 100.515C48.7515 100.245 48.581 99.9724 48.4139 99.6979C48.2468 99.4233 48.0831 99.1468 47.9228 98.8682C47.7625 98.5897 47.6056 98.3092 47.4521 98.0268C47.2986 97.7444 47.1487 97.4602 47.0022 97.1741C46.8558 96.8881 46.7128 96.6002 46.5735 96.3106C46.4341 96.021 46.2983 95.7297 46.166 95.4368C46.0337 95.1439 45.905 94.8494 45.78 94.5534C45.655 94.2573 45.5337 93.9598 45.416 93.6607C45.2982 93.3617 45.1842 93.0612 45.0738 92.7593C44.9635 92.4574 44.8568 92.1543 44.7539 91.8498C44.6511 91.5453 44.552 91.2396 44.4566 90.9327C44.3612 90.6258 44.2696 90.3177 44.1817 90.0085C44.0938 89.6994 44.0098 89.3892 43.9296 89.0781C43.8493 88.7668 43.773 88.4546 43.7005 88.1415C43.6279 87.8285 43.5591 87.5146 43.4942 87.1998C43.4295 86.885 43.3685 86.5694 43.3114 86.2531C43.2543 85.9368 43.2011 85.6199 43.1517 85.3023C43.1024 84.9847 43.057 84.6666 43.0155 84.3479C42.9739 84.0292 42.9363 83.71 42.9027 83.3904C43.0753 83.3513 43.0396 83.3568 43.1374 83.2303Z" fill="#F8CAB2"/>
<path d="M43.0633 74.3149L43.3237 74.3743C43.0468 76.6096 42.8857 78.8671 42.9858 81.121C43.1013 81.8079 43.0994 82.5346 43.1374 83.2304C43.0396 83.3569 43.0754 83.3514 42.9027 83.3905C42.784 82.6664 42.7774 81.9035 42.7451 81.1702C42.6594 78.8754 42.7283 76.5882 43.0633 74.3149Z" fill="#81FCCF"/>
<path d="M64.8243 45.485C65.1607 45.0117 65.6101 45.152 65.9395 44.8096L65.8525 44.7625L65.3761 44.9059L65.3423 44.887C67.3704 43.6835 68.7986 44.0035 70.5509 43.1779C70.8237 43.0495 71.1129 43.1998 71.4348 43.054C71.8925 42.847 72.2772 42.6251 72.7812 42.6599C72.8103 42.662 72.8392 42.6476 72.8679 42.6512C72.9023 42.6556 72.9337 42.6729 72.9665 42.6837C72.9853 42.6687 73.0039 42.6535 73.0229 42.639C74.0739 41.8337 76.0983 41.8782 77.3909 41.7193C77.8873 41.6584 78.3851 41.5504 78.8855 41.5326C79.6942 41.5039 80.5011 41.5923 81.3078 41.579C82.2109 41.5642 83.1047 41.4092 84.0117 41.5376C84.2883 41.5756 84.5603 41.6344 84.828 41.714C85.1658 41.8115 85.5731 41.7781 85.925 41.8206C86.7242 41.9168 87.5652 42.0578 88.3539 42.2214C90.7337 42.715 93.5778 43.519 95.812 44.5001C96.608 44.8495 97.3794 45.2829 98.1617 45.6642C98.1642 45.799 98.1811 45.7306 98.087 45.862C98.3258 46.0646 98.4834 45.9154 98.6994 46.0535L102.538 48.5345C104.253 49.6368 106.549 51.436 107.92 52.9359C108.497 53.566 108.956 54.2617 109.501 54.911C110.215 55.762 110.953 56.5779 111.572 57.504C112.017 58.1684 112.328 58.9012 112.754 59.5779C113.323 60.4807 113.687 61.4448 114.215 62.3531C114.437 62.7367 115.01 63.1968 115.1 63.624C115.129 63.7614 115.052 63.9671 115.087 64.085C115.246 64.6178 115.754 65.1036 115.898 65.6536C116.012 66.0862 115.867 66.4068 116.096 66.8415C116.233 67.1031 116.311 67.4681 116.271 67.761L116.215 67.8511C116.239 67.8815 116.263 67.9114 116.286 67.9421C116.613 68.3823 116.854 69.1876 116.998 69.7264C117.201 70.4823 118.09 75.5006 117.973 76.0087C117.953 76.0965 117.933 76.1271 117.893 76.2142C117.719 75.2678 117.649 74.2925 117.482 73.3404C115.878 64.1743 110.159 54.6873 102.486 49.3462C100.326 47.8429 97.9677 46.3621 95.5652 45.2739C95.2342 45.1273 94.9012 44.9855 94.5661 44.8485C94.231 44.7116 93.894 44.5795 93.5552 44.4525C93.2162 44.3253 92.8755 44.203 92.5331 44.0857C92.1906 43.9683 91.8465 43.856 91.5008 43.7487C91.1551 43.6414 90.808 43.5391 90.4592 43.4418C90.1106 43.3445 89.7606 43.2523 89.4092 43.1653C89.0579 43.0782 88.7054 42.9962 88.3517 42.9192C87.998 42.8423 87.6432 42.7706 87.2873 42.704C86.9316 42.6373 86.5749 42.5759 86.2173 42.5196C85.8597 42.4633 85.5014 42.4122 85.1423 42.3664C84.7833 42.3204 84.4236 42.2797 84.0634 42.2443C83.7032 42.2088 83.3425 42.1785 82.9814 42.1535C82.6202 42.1285 82.2588 42.1088 81.8972 42.0942C81.5355 42.0797 81.1737 42.0704 80.8117 42.0664C80.4497 42.0623 80.0878 42.0635 79.7259 42.0699C79.3639 42.0764 79.0022 42.0881 78.6406 42.1049C77.5548 42.1551 76.4778 42.2078 75.4051 42.3951C74.3054 42.5706 73.1262 42.7204 72.0626 43.0528C69.5425 43.6512 67.2223 44.512 64.8243 45.485Z" fill="#B8AC9A"/>
<path d="M75.4051 42.3952C76.4778 42.2078 77.5548 42.1552 78.6406 42.105C79.0022 42.0882 79.3639 42.0765 79.7259 42.07C80.0878 42.0636 80.4497 42.0624 80.8117 42.0664C81.1737 42.0705 81.5355 42.0798 81.8972 42.0943C82.2588 42.1088 82.6202 42.1286 82.9814 42.1536C83.3425 42.1786 83.7032 42.2089 84.0634 42.2444C84.4236 42.2798 84.7833 42.3205 85.1423 42.3664C85.5014 42.4123 85.8597 42.4634 86.2173 42.5197C86.5749 42.576 86.9316 42.6374 87.2873 42.7041C87.6431 42.7707 87.9979 42.8424 88.3517 42.9193C88.7053 42.9962 89.0578 43.0783 89.4092 43.1653C89.7605 43.2524 90.1105 43.3446 90.4592 43.4419C90.8079 43.5392 91.1551 43.6415 91.5007 43.7488C91.8465 43.8561 92.1906 43.9684 92.5331 44.0858C92.8755 44.2031 93.2162 44.3253 93.5551 44.4525C93.894 44.5796 94.231 44.7117 94.5661 44.8486C94.9012 44.9856 95.2342 45.1274 95.5651 45.2739C97.9676 46.3622 100.326 47.843 102.486 49.3463C110.159 54.6874 115.878 64.1744 117.482 73.3405C117.649 74.2925 117.719 75.2679 117.893 76.2143L117.903 76.5196C117.871 76.8174 117.852 77.1057 117.735 77.3851C117.589 76.6577 117.55 75.8768 117.459 75.1369C117.313 73.9411 117.102 72.7567 116.828 71.5836C116.767 71.332 116.704 71.081 116.639 70.8307C116.573 70.5804 116.505 70.3307 116.434 70.0818C116.364 69.8328 116.291 69.5846 116.215 69.3371C116.139 69.0896 116.061 68.8429 115.98 68.5971C115.9 68.3511 115.817 68.1061 115.731 67.8619C115.645 67.6178 115.557 67.3745 115.467 67.1321C115.376 66.8897 115.283 66.6482 115.187 66.4077C115.092 66.1672 114.994 65.9277 114.893 65.6893C114.793 65.4507 114.69 65.2132 114.585 64.9768C114.479 64.7404 114.372 64.5051 114.262 64.2708C114.152 64.0367 114.039 63.8036 113.925 63.5716C113.81 63.3397 113.693 63.109 113.573 62.8794C113.454 62.6498 113.332 62.4215 113.208 62.1944C113.084 61.9674 112.957 61.7417 112.829 61.5171C112.7 61.2926 112.569 61.0695 112.435 60.8477C112.302 60.6258 112.167 60.4054 112.029 60.1863C111.891 59.9672 111.751 59.7496 111.609 59.5333C111.467 59.3172 111.322 59.1024 111.176 58.8891C111.029 58.6758 110.881 58.464 110.73 58.2538C110.579 58.0436 110.426 57.8349 110.271 57.6277C110.116 57.4205 109.958 57.215 109.799 57.0111C109.64 56.8072 109.479 56.6048 109.315 56.4041C109.152 56.2035 108.986 56.0045 108.819 55.8072C108.651 55.6099 108.482 55.4144 108.31 55.2205C108.139 55.0267 107.966 54.8346 107.79 54.6443C107.615 54.4539 107.438 54.2655 107.258 54.0788C107.079 53.8921 106.898 53.7073 106.715 53.5243C106.532 53.3412 106.347 53.1601 106.161 52.9808C105.974 52.8015 105.786 52.6242 105.595 52.4488C105.405 52.2734 105.213 52.0999 105.019 51.9285C104.826 51.7569 104.63 51.5874 104.433 51.4199C104.236 51.2523 104.037 51.0868 103.836 50.9233C95.8622 44.4618 86.3161 41.6332 76.0945 42.7111C74.6014 42.8938 73.1595 43.1583 71.6903 43.4775L71.6337 43.3469C71.752 43.2819 71.8529 43.2177 71.9603 43.1346C71.9948 43.1078 72.0286 43.08 72.0626 43.0528C73.1262 42.7205 74.3054 42.5707 75.4051 42.3952Z" fill="#BA5927"/>
<path d="M117.903 76.5196C118.382 79.2557 118.196 82.1997 117.824 84.9343C116.979 91.1439 115.138 96.821 111.51 101.984C111.374 102.18 111.236 102.375 111.097 102.568C110.957 102.761 110.816 102.953 110.673 103.143C110.53 103.334 110.385 103.523 110.238 103.711C110.091 103.899 109.943 104.085 109.793 104.27C109.643 104.455 109.491 104.639 109.337 104.821C109.183 105.003 109.028 105.184 108.871 105.363C108.714 105.542 108.555 105.72 108.395 105.896C108.234 106.072 108.072 106.247 107.909 106.42C107.745 106.593 107.58 106.765 107.413 106.935C107.246 107.105 107.077 107.273 106.907 107.44C106.737 107.607 106.565 107.773 106.392 107.936C106.219 108.1 106.044 108.262 105.868 108.422C105.692 108.583 105.514 108.741 105.335 108.898C105.156 109.055 104.975 109.211 104.793 109.364C104.611 109.518 104.427 109.67 104.242 109.82C104.057 109.97 103.871 110.119 103.683 110.265C103.495 110.412 103.306 110.557 103.115 110.7C102.925 110.843 102.733 110.984 102.54 111.124C102.346 111.263 102.152 111.401 101.956 111.537C101.76 111.673 101.563 111.807 101.365 111.939C101.167 112.071 100.967 112.201 100.766 112.33C100.566 112.458 100.364 112.585 100.161 112.709C99.9575 112.834 99.7531 112.956 99.5476 113.077C99.3422 113.198 99.1356 113.317 98.9279 113.433C98.7203 113.55 98.5116 113.665 98.3017 113.778C98.0918 113.891 97.8809 114.002 97.669 114.111C97.457 114.22 97.2441 114.327 97.0303 114.432C96.8163 114.537 96.6014 114.64 96.3854 114.74C96.1696 114.841 95.9528 114.94 95.735 115.037C95.5172 115.134 95.2987 115.229 95.0792 115.321C94.8596 115.414 94.6392 115.505 94.4179 115.593C94.1967 115.682 93.9747 115.768 93.7518 115.853L93.412 115.738C98.196 114.122 102.503 111.265 106.147 107.805C113.133 101.17 116.928 92.8822 117.713 83.2911C117.873 81.331 117.672 79.4093 117.732 77.4599L117.735 77.385C117.852 77.1057 117.871 76.8174 117.903 76.5196Z" fill="#D36F3F"/>
<path d="M53.6561 53.3469C55.5661 51.4879 57.7709 49.4864 60.0777 48.1483L60.253 48.4164C58.973 49.3579 57.6877 50.2628 56.4686 51.2856C55.9056 51.7579 54.6248 53.0792 54.1314 53.3697C53.2138 54.3804 52.2372 55.3451 51.3769 56.4059C47.2597 61.4831 44.1194 67.8301 43.3236 74.3742L43.0633 74.3148C43.1674 73.8495 43.2294 73.3768 43.2988 72.9054C43.5931 72.3648 43.7127 71.1293 43.8741 70.47C44.0803 69.6442 44.3121 68.8257 44.5695 68.0145C46.3169 62.5812 49.6155 57.3592 53.6561 53.3469Z" fill="#E8894F"/>
<path d="M74.7491 117.375C76.323 117.743 78.1502 117.81 79.7698 117.83C84.889 117.892 88.5343 117.311 93.4121 115.738L93.7519 115.853C91.2837 116.781 87.9571 117.6 85.3376 117.883C84.8841 117.932 83.9904 117.91 83.6115 118.114C80.6009 118.334 77.557 118.017 74.571 117.669L74.7491 117.375Z" fill="#81FCCF"/>
<path d="M72.0626 43.0528C72.0286 43.08 71.9948 43.1078 71.9603 43.1346C71.8529 43.2177 71.752 43.2819 71.6337 43.3469L71.6903 43.4775C70.6806 43.8207 69.6253 44.0274 68.6155 44.371C65.7184 45.3564 62.8187 46.7444 60.2529 48.4164L60.0776 48.1483C61.5873 47.1289 63.1969 46.2966 64.8244 45.485C67.2223 44.5121 69.5425 43.6513 72.0626 43.0528Z" fill="#BA5927"/>
<path d="M77.6496 43.449L77.7543 43.3912L77.7083 43.4561C78.7535 43.3446 79.7455 43.2761 80.8005 43.3373C81.4313 43.3739 82.0599 43.4839 82.6901 43.5073C83.2921 43.5296 83.8904 43.4823 84.4936 43.5231C86.7397 43.6743 89.2115 44.1554 91.3483 44.8582C92.383 45.1986 93.3563 45.6229 94.3677 46.0151C95.2929 46.3739 96.2954 46.6023 97.1883 47.0439C97.9843 47.4373 98.7218 47.992 99.4829 48.452C99.8758 48.6895 100.376 48.7661 100.74 49.0179C101.196 49.3343 101.407 49.9798 101.871 50.2906C102.737 50.8711 103.669 51.6083 104.357 52.3965C104.613 52.6895 104.812 53.0311 105.069 53.3183C105.885 54.2292 106.832 55.0283 107.635 55.9523C108.392 56.8239 109.201 57.8915 109.844 58.8553C110.252 59.4681 110.591 60.1245 111.004 60.7372C111.754 61.8489 112.614 62.9414 113.266 64.11C113.763 65.0003 114.306 66.108 114.619 67.0778C115.199 68.8736 117.285 77.4608 116.873 78.903C116.848 78.8811 116.814 78.8664 116.798 78.8372C116.754 78.7585 116.802 78.212 116.799 78.0894C116.785 77.5885 116.697 77.0564 116.637 76.557C116.46 75.0927 114.718 66.7095 113.781 65.9695C113.786 66.14 113.811 66.1156 113.698 66.2658C113.594 66.2816 113.581 66.2886 113.459 66.2784C112.047 66.1603 111.525 64.2026 110.665 63.3528C110.548 63.2381 110.429 63.126 110.308 63.0164C110.292 63.1962 110.341 63.308 110.41 63.4736C110.56 63.8292 110.814 64.1622 110.989 64.5128C111.493 65.5195 111.943 66.5308 112.34 67.5845C112.673 68.4667 112.916 69.3558 113.208 70.2488C113.461 71.0253 113.771 71.7977 113.963 72.5908C114.264 73.828 114.417 75.0913 114.66 76.3374C114.661 76.3556 114.661 76.3739 114.664 76.3919C114.98 78.5849 114.947 80.8117 114.911 83.0217C114.753 81.7285 114.895 80.3575 114.831 79.0499C114.782 78.2024 114.701 77.3579 114.587 76.5166C114.474 75.6752 114.33 74.8393 114.154 74.0089C113.978 73.1784 113.771 72.3557 113.533 71.5408C113.295 70.7259 113.027 69.9211 112.729 69.1264C112.366 68.1537 112.004 67.1502 111.574 66.2059C111.102 65.1672 108.526 60.0155 107.579 59.5823C107.456 59.6377 107.332 59.6915 107.207 59.7436C107.184 59.7344 107.044 59.6812 107.024 59.6708C105.526 58.8914 104.07 57.1583 102.838 56.0144C101.886 55.1295 100.956 54.1936 99.9562 53.3636C96.9948 50.9048 93.5794 49.2298 89.9876 47.9134C86.5191 46.6422 82.0268 45.9815 78.3324 45.9286C77.0611 45.9104 75.7324 45.9639 74.4636 46.0578C72.6486 46.1922 70.6063 46.7372 68.8552 46.004L68.9152 45.9672L68.9144 46.0915C68.8944 45.9542 68.8793 45.8681 68.8211 45.74C68.0291 45.9997 67.0408 46.2086 66.3102 46.5998C65.9266 46.8053 64.7013 47.5545 64.3718 47.5751L64.3777 47.5181C65.1174 46.8314 66.7136 46.3342 67.6518 45.9804C68.409 45.695 69.1424 45.3511 69.9066 45.0803C71.6669 44.4565 73.7376 43.885 75.5715 43.5539C76.2522 43.4311 76.9543 43.5309 77.6496 43.449Z" fill="#B8AC9A"/>
<path d="M118.534 117.872L118.668 117.941C117.94 118.761 115.283 120.952 115.043 121.692C115.647 121.524 116.173 120.857 116.724 120.751L116.644 120.748L116.773 120.814C116.606 121.135 116.278 121.36 115.984 121.559C115.522 121.872 115.181 122.322 114.784 122.709C113.894 123.577 112.828 124.648 111.749 125.253L111.516 125.193C111.363 125.721 111.278 125.796 110.781 126.053C110.631 126.129 110.688 126.108 110.515 126.12L110.438 125.982C108.278 127.589 106.05 128.837 103.589 129.922C104.05 129.235 106.043 127.635 106.838 127.365C107.13 127.266 107.195 126.9 107.461 126.743C108.203 126.305 109.488 126.043 109.987 125.352C110.622 125.122 111.04 124.551 111.394 124.009C112.179 123.334 113.141 122.841 113.862 122.092C115.593 120.86 116.95 119.26 118.534 117.872Z" fill="url(#paint7_linear_2_2)"/>
<path d="M135.591 119.662C135.595 119.772 135.612 119.865 135.633 119.972L135.768 119.772L135.811 119.801C137.063 118.503 138.238 117.299 139.266 115.801C140.166 114.488 140.974 113.072 141.68 111.646C141.783 111.437 141.91 111.067 142.078 110.918C142.146 110.857 142.239 110.832 142.319 110.79C141.653 112.336 140.714 113.833 139.839 115.269C137.981 118.319 136.028 121.281 133.788 124.067C133.505 124.419 133.084 125.102 132.716 125.32C131.469 125.729 130.618 127.632 129.521 128.374C129.057 128.306 128.731 128.636 128.371 128.904C128.072 129.126 127.826 129.394 127.55 129.642L127.509 129.626L127.459 129.661C127.579 129.223 128.121 129.106 128.271 128.605C128.658 127.968 130.064 126.757 130.651 126.07C132.405 124.017 134.052 121.881 135.591 119.662Z" fill="url(#paint8_linear_2_2)"/>
<defs>
<linearGradient id="paint0_linear_2_2" x1="85.9967" y1="76.6104" x2="127.713" y2="28.8857" gradientUnits="userSpaceOnUse">
<stop stop-color="#E3DAD8"/>
<stop offset="1" stop-color="#FFFEFF"/>
</linearGradient>
<linearGradient id="paint1_linear_2_2" x1="33.8593" y1="134.54" x2="36.7932" y2="128.071" gradientUnits="userSpaceOnUse">
<stop stop-color="#A79289"/>
<stop offset="1" stop-color="#D0BABD"/>
</linearGradient>
<linearGradient id="paint2_linear_2_2" x1="51.4488" y1="128.216" x2="82.1185" y2="67.2438" gradientUnits="userSpaceOnUse">
<stop stop-color="#06392B"/>
<stop offset="1" stop-color="#00735E"/>
</linearGradient>
<linearGradient id="paint3_linear_2_2" x1="48.8112" y1="126.796" x2="48.3881" y2="127.412" gradientUnits="userSpaceOnUse">
<stop stop-color="#02664D"/>
<stop offset="1" stop-color="#097D5A"/>
</linearGradient>
<linearGradient id="paint4_linear_2_2" x1="32.5033" y1="109.599" x2="31.5333" y2="110.231" gradientUnits="userSpaceOnUse">
<stop stop-color="#01654F"/>
<stop offset="1" stop-color="#08805E"/>
</linearGradient>
<linearGradient id="paint5_linear_2_2" x1="76.5746" y1="90.8364" x2="117.353" y2="41.2107" gradientUnits="userSpaceOnUse">
<stop stop-color="#D6BDB9"/>
<stop offset="1" stop-color="#FFFDFE"/>
</linearGradient>
<linearGradient id="paint6_linear_2_2" x1="101.933" y1="97.1882" x2="131.147" y2="99.8384" gradientUnits="userSpaceOnUse">
<stop stop-color="#C47A49"/>
<stop offset="1" stop-color="#F6A36D"/>
</linearGradient>
<linearGradient id="paint7_linear_2_2" x1="113.779" y1="123.118" x2="113.198" y2="122.484" gradientUnits="userSpaceOnUse">
<stop stop-color="#098362"/>
<stop offset="1" stop-color="#016C53"/>
</linearGradient>
<linearGradient id="paint8_linear_2_2" x1="133.825" y1="123.654" x2="132.679" y2="122.773" gradientUnits="userSpaceOnUse">
<stop stop-color="#D3C2C0"/>
<stop offset="1" stop-color="#DFE1E2"/>
</linearGradient>
</defs>
</svg>
