<svg width="160" height="160" viewBox="0 0 160 160" fill="none" xmlns="http://www.w3.org/2000/svg">
<path d="M64.4856 137.998C62.7127 137.378 60.8472 136.903 59.047 136.358L46.1597 132.543L21.1225 125.07L11.9894 122.359C10.3843 121.896 8.68947 121.564 7.13829 120.942C6.55866 120.709 5.96821 120.312 5.53115 119.866C4.59837 118.914 4.15482 117.649 4.21032 116.327C4.27291 114.835 5.95149 109.952 6.48627 108.145L11.0806 92.382L31.3681 21.3578L33.9889 11.9224C34.5092 10.0502 34.8139 7.75115 35.8325 6.08411C36.0467 5.73365 36.3052 5.41371 36.6167 5.14482C37.1766 4.66184 38.3124 4.12111 39.083 4.194C41.1985 4.39409 43.1995 5.16662 45.2235 5.76717L54.5667 8.53415C68.8803 12.6093 83.1576 16.8077 97.3986 21.1295C97.2636 21.9822 96.9462 22.8353 96.6927 23.6597C96.2524 25.0735 95.8214 26.4901 95.3994 27.9095L93.3017 35.2858C92.9944 36.3839 92.7747 37.5376 92.3947 38.61L92.4486 38.8169C92.6344 38.9217 92.7945 38.9648 92.9973 39.0176C93.1186 39.0492 93.0714 39.034 93.1952 39.1009C93.5692 38.1469 93.797 37.1275 94.1175 36.1525C94.9122 36.3608 95.7336 36.5253 96.5014 36.8181C96.65 36.5312 96.777 36.2344 96.908 35.939C97.4827 34.5001 97.9259 32.9731 98.4644 31.5136C99.7881 27.9964 101.076 24.466 102.327 20.9225C103.633 17.2036 104.867 13.458 106.261 9.7711C106.863 9.98582 107.461 10.2112 108.055 10.4473C108.187 10.1844 108.299 9.90929 108.417 9.63982C109.051 8.01315 109.725 6.2674 110.617 4.76429C111.799 5.43754 112.918 6.26167 114.059 7.00325C116.244 8.40165 118.418 9.8156 120.582 11.2451C123.331 13.0641 126.176 14.7504 128.907 16.5883C129.078 16.6828 129.241 16.7436 129.424 16.8073C129.729 16.7941 129.98 16.5886 130.229 16.4273C130.8 15.9681 131.367 15.4707 131.97 15.0547C133.115 16.2339 134.159 18.3041 135.09 19.7194C136.213 21.4283 137.554 23.137 138.514 24.935L138.962 25.8364C139.616 25.6189 140.271 25.4058 140.928 25.1972C141.59 27.0911 142.024 29.0792 142.554 31.0142L145.072 39.8895C145.826 42.4998 146.565 45.1141 147.291 47.7323C147.622 48.9243 148.067 50.1365 148.266 51.3543C148.287 51.687 148.3 52.0234 148.339 52.3543C150.039 52.8078 153.04 53.5967 154.431 54.5448C154.559 54.6313 154.681 54.7248 154.799 54.8253C154.916 54.9259 155.028 55.0329 155.133 55.1462C155.238 55.2596 155.336 55.3786 155.427 55.5032C155.519 55.6279 155.602 55.7575 155.679 55.8918C156.656 57.5979 156.325 59.3586 155.803 61.1487L137.728 123.098L132.064 142.632L130.289 148.771C129.927 150.022 129.61 151.33 129.13 152.541C128.68 153.678 128.084 154.532 126.99 155.119C124.865 156.259 122.683 155.393 120.556 154.731C102.18 149.127 83.7733 143.628 65.3345 138.235L64.4856 137.998Z" fill="#51498C"/>
<path d="M110.617 4.7643C111.799 5.43755 112.918 6.26167 114.059 7.00325C116.244 8.40166 118.418 9.8156 120.582 11.2451C123.331 13.0641 126.176 14.7504 128.907 16.5883C129.078 16.6828 129.241 16.7436 129.424 16.8073C129.729 16.7941 129.98 16.5886 130.229 16.4273C130.8 15.9681 131.367 15.4707 131.97 15.0547C133.115 16.2339 134.159 18.3041 135.09 19.7194C136.213 21.4283 137.554 23.137 138.514 24.935L138.962 25.8364C139.616 25.6189 140.271 25.4058 140.928 25.1972C141.59 27.0911 142.024 29.0792 142.554 31.0142L145.072 39.8895C145.826 42.4998 146.565 45.1141 147.291 47.7323C147.622 48.9244 148.067 50.1365 148.266 51.3544C148.287 51.687 148.299 52.0234 148.339 52.3543C146.969 52.0836 145.587 51.627 144.245 51.2372L137.123 49.1297L114.52 42.2548C110.821 41.1292 107.113 40.0357 103.395 38.9742C101.284 38.3645 98.4787 37.6686 96.5013 36.8181C96.6499 36.5312 96.777 36.2344 96.9079 35.939C97.4826 34.5001 97.9259 32.9731 98.4643 31.5136C99.7881 27.9964 101.076 24.466 102.327 20.9225C103.633 17.2036 104.866 13.458 106.261 9.77111C106.863 9.98583 107.461 10.2112 108.055 10.4473C108.187 10.1844 108.299 9.90929 108.417 9.63983C109.051 8.01316 109.725 6.26741 110.617 4.7643Z" fill="#51498C"/>
<path d="M106.261 9.7711C106.863 9.98582 107.461 10.2112 108.055 10.4473C109.193 11.0896 110.742 11.4526 111.976 11.9376C110.097 15.2062 108.255 18.495 106.449 21.8041L98.2278 36.4323C97.7945 36.283 97.3108 36.154 96.908 35.939C97.4826 34.5001 97.9259 32.9731 98.4644 31.5136C99.7881 27.9964 101.076 24.466 102.327 20.9225C103.633 17.2036 104.867 13.458 106.261 9.7711Z" fill="#F1C454"/>
<path d="M138.962 25.8364C139.616 25.6189 140.271 25.4058 140.928 25.1972C141.59 27.0911 142.024 29.0792 142.554 31.0142L145.072 39.8895C145.826 42.4998 146.565 45.1141 147.291 47.7323C147.622 48.9243 148.067 50.1365 148.266 51.3543C147.47 51.2856 146.486 50.8767 145.709 50.6472C144.272 44.9639 142.462 39.3056 140.694 33.7173C140.186 32.1115 139.286 28.6026 138.447 27.3856C138.004 27.4887 137.612 27.618 137.197 27.8019L136.353 26.7951C137.21 26.4442 138.09 26.1473 138.962 25.8364Z" fill="#14DC92"/>
<path d="M110.617 4.7643C111.799 5.43755 112.918 6.26167 114.059 7.00325C116.244 8.40165 118.418 9.8156 120.582 11.2451C123.331 13.0641 126.176 14.7504 128.907 16.5883C128.375 17.1967 127.666 17.652 127.011 18.1187C124.326 16.0598 121.586 14.1532 118.8 12.2395C117.05 11.0374 115.343 9.81239 113.522 8.7152C113.068 9.45833 112.708 10.2502 112.286 11.0113C111.014 10.5281 109.728 10.0057 108.417 9.63983C109.051 8.01315 109.725 6.26741 110.617 4.7643Z" fill="#14DC92"/>
<path d="M130.229 16.4273C130.8 15.9681 131.368 15.4707 131.97 15.0547C133.115 16.2339 134.159 18.304 135.09 19.7194C136.213 21.4283 137.554 23.137 138.514 24.935L135.807 25.9869C133.65 23.0844 131.796 19.9409 129.727 16.9734C129.913 16.8059 130.068 16.6194 130.229 16.4273Z" fill="#14DC92"/>
<path d="M112.887 12.1124C115.531 13.7557 118.035 15.5698 120.545 17.4053C122.304 18.6694 124.045 19.9587 125.766 21.2733C123.571 22.9481 121.21 24.4706 118.949 26.0597C115.307 28.6234 111.69 31.2227 108.1 33.8576C106.258 35.1491 104.429 36.459 102.614 37.7875C101.424 37.5614 100.24 37.1062 99.0901 36.7281C103.739 28.5507 108.338 20.3455 112.887 12.1124Z" fill="#F1C454"/>
<path d="M137.094 34.7781C137.2 34.7762 137.212 34.7581 137.294 34.8111C137.468 34.9236 137.545 35.1325 137.618 35.3176C138.169 36.7158 138.522 38.2159 138.99 39.6472C140.112 42.9827 141.178 46.3361 142.188 49.7075C136.148 47.7995 130.052 46.0712 124.003 44.1901C120.408 43.1781 116.843 42.007 113.272 40.9105C121.177 38.7506 129.217 37.0326 137.094 34.7781Z" fill="#F1C454"/>
<path d="M128.326 20.7783C129.046 21.5112 129.611 22.5211 130.174 23.3822C131.325 25.1668 132.464 26.9591 133.592 28.7591C130.791 29.8784 127.87 30.8034 125.027 31.8125L108.334 37.7347C107.529 38.0301 106.769 38.3731 106.018 38.7886C105.273 38.5908 104.544 38.3805 103.815 38.1289C106.382 36.1851 109.005 34.3365 111.621 32.4609C114.518 30.3614 117.434 28.2866 120.367 26.2362C123.009 24.4042 125.577 22.4476 128.326 20.7783Z" fill="#F1C454"/>
<path d="M135.016 29.2945L135.166 29.3597C135.936 30.4461 136.514 32.5744 136.955 33.8636C134.476 34.6645 131.895 35.2008 129.371 35.8444C123.421 37.362 117.422 38.7811 111.514 40.4523C111.007 40.3066 110.504 40.1493 110.005 39.9805C109.12 39.7273 108.243 39.4208 107.365 39.1406C109.34 37.9992 112.677 37.1812 114.926 36.3769C121.598 33.9457 128.295 31.5849 135.016 29.2945Z" fill="#F1C454"/>
<path d="M137.669 28.4334C137.826 28.5305 137.871 28.5741 137.955 28.7469C138.252 29.3605 138.443 30.1017 138.664 30.7514C139.217 32.3938 139.744 34.0442 140.247 35.7025C141.763 40.5608 143.243 45.4301 144.688 50.3103L143.541 49.9939C143.295 49.8647 143.205 49.755 143.111 49.5017C142.21 47.0881 141.573 44.5554 140.784 42.1011C139.391 37.6937 137.853 33.3373 136.171 29.0319C136.662 28.8136 137.169 28.6281 137.669 28.4334Z" fill="#F1C454"/>
<path d="M113.829 10.0341C114.643 10.3829 116.168 11.6008 116.99 12.1684C120.131 14.3158 123.242 16.5052 126.324 18.7366C126.06 18.978 125.784 19.2073 125.512 19.4405C125.445 19.4883 125.377 19.5597 125.292 19.5655C125.13 19.5762 124.971 19.4884 124.838 19.4058C123.482 18.5642 122.179 17.4687 120.882 16.5262C118.377 14.7065 115.86 12.9382 113.269 11.2423L113.829 10.0341Z" fill="#F1C454"/>
<path d="M129.24 17.6427C130.137 18.6289 130.683 20.0117 131.395 21.1373C132.858 23.4505 134.43 25.7578 136.034 27.9764L134.583 28.5033L133.484 26.852C132.769 25.7144 132.017 24.6006 131.301 23.4642C130.477 22.1583 129.703 20.8264 128.742 19.6145C127.982 19.9066 127.334 20.3583 126.663 20.8086L126.042 20.2175C127.151 19.4164 128.189 18.5169 129.24 17.6427Z" fill="#F1C454"/>
<path d="M64.4856 137.998C62.7127 137.378 60.8472 136.903 59.047 136.358L46.1597 132.543L21.1225 125.07L11.9894 122.359C10.3843 121.896 8.68947 121.564 7.13829 120.942C6.55866 120.709 5.96821 120.312 5.53115 119.866C4.59837 118.914 4.15482 117.649 4.21032 116.327C4.27291 114.835 5.95149 109.952 6.48627 108.145L11.0806 92.382L31.3681 21.3578L33.9889 11.9224C34.5092 10.0502 34.8139 7.75115 35.8325 6.08411C36.0467 5.73365 36.3052 5.41371 36.6167 5.14482C37.1766 4.66184 38.3124 4.12111 39.083 4.194C41.1985 4.39409 43.1995 5.16662 45.2235 5.76717L54.5667 8.53415C68.8803 12.6093 83.1576 16.8077 97.3986 21.1295C97.2636 21.9822 96.9462 22.8353 96.6927 23.6597C96.2524 25.0735 95.8214 26.4901 95.3994 27.9095L93.3017 35.2858C92.9944 36.3839 92.7747 37.5376 92.3947 38.61C91.9531 39.3256 91.713 40.7556 91.4834 41.6004C90.932 43.6294 90.4059 45.6678 89.8337 47.6909C87.8597 46.3684 85.3425 45.8106 82.995 45.6923C84.1728 41.5337 85.375 37.3821 86.6016 33.2375C87.6038 29.8887 88.705 26.5331 89.5556 23.1433C87.8678 22.3809 86.0349 21.9915 84.2584 21.4859C81.6627 20.7463 79.0721 19.9889 76.4867 19.2136L45.555 10.0949C43.6603 9.52754 41.7427 9.01999 39.8541 8.43704C39.2425 9.88184 38.9075 11.4153 38.5017 12.9261C37.9935 14.8011 37.4729 16.6726 36.94 18.5406L30.9188 39.3461L16.2066 89.9206C13.5834 98.9335 11.0614 107.995 8.3084 116.969C10.5716 118.037 13.0944 118.472 15.4848 119.178L29.7189 123.441L48.3974 129.114L54.3849 130.916C55.6349 131.286 56.9114 131.73 58.2033 131.916C58.722 130.696 59.0358 129.387 59.3914 128.111C60.0247 125.838 60.6064 123.537 61.2874 121.279C63.5966 122.156 65.8988 122.81 68.3128 123.328C67.1642 128.251 65.5431 133.054 64.4856 137.998Z" fill="#14DC92"/>
<path d="M93.1951 39.1009C93.5691 38.1469 93.797 37.1275 94.1174 36.1525C94.9121 36.3608 95.7335 36.5253 96.5013 36.8181C98.4787 37.6686 101.284 38.3645 103.395 38.9742C107.113 40.0357 110.821 41.1292 114.52 42.2548L137.123 49.1297L144.245 51.2372C145.587 51.627 146.969 52.0836 148.339 52.3543C150.039 52.8078 153.04 53.5967 154.431 54.5448C154.559 54.6313 154.681 54.7248 154.799 54.8253C154.916 54.9259 155.027 55.0329 155.133 55.1462C155.238 55.2596 155.336 55.3786 155.427 55.5033C155.518 55.6279 155.602 55.7575 155.679 55.8918C156.656 57.5979 156.325 59.3586 155.803 61.1487L137.728 123.098L132.064 142.632L130.289 148.771C129.926 150.022 129.61 151.33 129.13 152.541C128.68 153.678 128.084 154.532 126.99 155.119C124.865 156.259 122.683 155.393 120.556 154.731C102.18 149.127 83.7732 143.628 65.3345 138.235C65.6103 136.909 66.032 135.587 66.4029 134.284C68.9359 135.19 71.612 135.839 74.196 136.601L89.3537 141.075L115.086 148.702C118.277 149.653 121.434 150.709 124.638 151.617C125.407 149.951 125.805 148.125 126.296 146.364C126.818 144.539 127.352 142.718 127.9 140.901L135.761 113.833L147.094 74.6339L150.658 62.3089C151.19 60.4876 151.878 58.7143 152.293 56.8617C150.512 56.1198 148.575 55.7286 146.723 55.1959L137.184 52.3693L102.971 42.077C101.187 41.5386 99.4107 40.9722 97.6216 40.4486C96.5371 40.1312 94.0223 39.6497 93.1951 39.1009Z" fill="#14DC92"/>
<path d="M93.0149 40.0954L133.315 52.2304C139.229 54.0101 145.234 55.5657 151.093 57.5134C149.482 62.6784 147.945 67.8649 146.481 73.0729L140.804 92.7906C135.318 112.018 129.727 131.216 124.032 150.383C122.574 149.884 121.07 149.482 119.594 149.04C116.738 148.178 113.876 147.337 111.009 146.516L97.0893 142.378C95.9777 141.98 94.7946 141.691 93.6607 141.355L87.0137 139.39L66.6754 133.374C67.671 130.129 68.4189 126.828 69.3435 123.566C70.6039 123.92 72.0779 124.391 73.3984 124.139C74.2592 123.975 75.0604 123.504 75.532 122.753C75.879 122.199 75.9882 121.536 75.811 120.905C75.2839 119.027 72.6532 118.066 71.0834 117.203C71.6154 114.746 72.3471 112.194 73.184 109.825C74.4828 110.357 75.9404 110.932 77.3737 110.727C78.1246 110.62 78.8229 110.298 79.277 109.672C79.6888 109.104 79.8662 108.403 79.7351 107.712C79.4532 106.228 77.8823 105.5 76.7284 104.762C76.1386 104.38 75.558 103.985 74.9865 103.577C75.7406 100.839 76.5243 98.1101 77.3378 95.3895C78.5951 96.1224 79.9438 96.8045 81.4445 96.5371C82.2432 96.395 83.0499 95.9843 83.5073 95.2937C83.802 94.849 83.9021 94.3273 83.7754 93.8076C83.3149 91.9184 80.4188 90.5246 78.8687 89.5879C79.7065 87.0898 80.3038 84.5154 81.1567 82.0154C82.577 82.5635 84.1682 83.2656 85.7256 82.997C86.4246 82.8764 87.0421 82.5354 87.4334 81.932C87.7754 81.4043 87.9207 80.8057 87.762 80.1889C87.2934 78.369 84.3117 76.7834 82.8006 75.8795C83.627 73.2832 84.3184 70.6634 85.0082 68.0284C86.447 68.602 88.1149 69.5898 89.7198 69.1915C90.4404 69.0126 91.0993 68.5829 91.4821 67.937C91.7987 67.4029 91.8635 66.7925 91.6821 66.2007C91.0923 64.2775 88.4518 63.0359 86.8284 62.145C87.3674 59.5303 88.227 56.9481 88.9974 54.3936C90.301 55.0953 91.6882 55.8837 93.2278 55.6762C94.0462 55.5659 94.8832 55.159 95.3823 54.485C95.7026 54.0523 95.8477 53.5293 95.7491 52.9962C95.3893 51.0526 92.2142 49.1834 90.6677 48.1834C91.4835 45.4964 92.1626 42.7726 93.0149 40.0954Z" fill="#82E478"/>
<path d="M117.158 67.6559C117.688 67.6345 118.15 67.6615 118.633 67.9053C118.695 67.9362 118.755 67.9702 118.813 68.0072C118.871 68.0442 118.928 68.0842 118.982 68.127C119.036 68.1698 119.088 68.2152 119.138 68.2632C119.187 68.3114 119.234 68.3619 119.279 68.4148C119.323 68.4676 119.365 68.5226 119.404 68.5798C119.443 68.637 119.478 68.696 119.511 68.7567C119.544 68.8175 119.574 68.8799 119.6 68.9437C119.627 69.0076 119.65 69.0726 119.669 69.1387C119.948 70.0353 119.64 70.8034 119.21 71.5784C122.867 73.4162 126.009 75.5689 127.96 79.2892C130.084 83.3376 129.868 87.2157 128.527 91.4584C129.908 91.9385 131.911 92.0525 132.924 93.2303C133.114 93.4506 133.246 93.7303 133.195 94.0273C133.119 94.4698 132.645 94.9557 132.272 95.1739C131.597 95.5682 130.597 95.1485 129.924 94.9457C129.392 95.5675 128.837 96.1414 128.101 96.5215C127.349 96.9103 126.553 97.021 125.719 96.972C124.246 96.8849 122.752 96.3681 121.337 95.9678C118.631 95.1757 115.933 94.358 113.242 93.5148C110.241 92.5846 107.231 91.6821 104.213 90.8073C102.217 90.2168 99.9523 89.8031 98.1573 88.7306C96.6359 87.8217 96.0762 86.3871 95.6523 84.7482C95.5771 84.7335 95.5022 84.7174 95.4278 84.6998C94.6901 84.5301 93.529 84.3303 93.1165 83.614C92.9415 83.3101 92.936 82.9406 93.0443 82.6131C93.0611 82.5614 93.0804 82.5107 93.1021 82.4609C93.1239 82.4111 93.1481 82.3625 93.1746 82.315C93.2012 82.2676 93.23 82.2216 93.2612 82.177C93.2922 82.1324 93.3254 82.0895 93.3607 82.0482C93.396 82.0069 93.4333 81.9674 93.4726 81.9298C93.5118 81.8921 93.5527 81.8565 93.5954 81.8229C93.6381 81.7893 93.6824 81.7578 93.7282 81.7286C93.7741 81.6993 93.8212 81.6724 93.8696 81.6478C94.8487 81.1556 96.8976 82.1014 97.8474 82.4398L97.8629 82.3156C98.3368 78.7728 100.786 75.6498 103.569 73.5587C107.113 70.8961 111.24 70.1257 115.574 70.7406C115.515 70.0515 115.408 69.3693 115.728 68.7203C116.024 68.119 116.564 67.874 117.158 67.6559Z" fill="#51498C"/>
<path d="M117.48 72.0762C117.835 72.1556 118.194 72.2929 118.539 72.4089C118.656 72.4482 118.773 72.4891 118.89 72.5314C119.006 72.5736 119.122 72.6174 119.237 72.6626C119.352 72.7077 119.467 72.7543 119.581 72.8023C119.695 72.8503 119.809 72.8997 119.922 72.9504C120.035 73.0013 120.147 73.0534 120.258 73.107C120.37 73.1605 120.481 73.2155 120.591 73.2718C120.701 73.3281 120.811 73.3857 120.92 73.4448C121.029 73.5039 121.137 73.5642 121.244 73.6259C121.351 73.6876 121.458 73.7506 121.564 73.815C121.669 73.8792 121.774 73.9448 121.878 74.0117C121.983 74.0786 122.086 74.1469 122.188 74.2164C122.291 74.2858 122.392 74.3566 122.493 74.4285C122.594 74.5005 122.694 74.5737 122.792 74.6481C122.891 74.7226 122.989 74.7982 123.086 74.8751C123.183 74.952 123.28 75.0301 123.375 75.1093C123.47 75.1886 123.564 75.269 123.657 75.3506C123.75 75.4321 123.842 75.5148 123.933 75.5987C124.024 75.6826 124.114 75.7675 124.203 75.8535C124.292 75.9396 124.38 76.0267 124.467 76.1149C124.554 76.2033 124.639 76.2926 124.724 76.3829C124.809 76.4733 124.892 76.5647 124.974 76.6571C125.057 76.7495 125.138 76.843 125.218 76.9374C125.298 77.0318 125.377 77.1272 125.455 77.2237C125.532 77.3201 125.609 77.4174 125.684 77.5157C125.759 77.614 125.833 77.7131 125.906 77.8132C125.979 77.9133 126.051 78.0143 126.121 78.1162C126.191 78.2181 126.26 78.3208 126.328 78.4243C126.396 78.528 126.462 78.6324 126.528 78.7376C126.593 78.8428 126.657 78.9488 126.719 79.0556C126.782 79.1624 126.843 79.2701 126.903 79.3784C126.963 79.4866 127.021 79.5956 127.079 79.7054C127.136 79.8152 127.192 79.9257 127.246 80.0368C129.159 83.921 128.938 87.2418 127.592 91.2471C126.829 90.9916 126.062 90.7536 125.289 90.5331C121.304 89.1757 117.159 88.2685 113.204 86.8201C113.636 84.9034 114.327 83.0153 114.896 81.1334C115.817 78.1315 116.679 75.1125 117.48 72.0762Z" fill="#14DC92"/>
<path d="M112.113 71.3598C113.665 71.2056 115.281 71.5828 116.786 71.9317C115.28 76.8289 113.878 81.7612 112.436 86.6779C110.171 85.8917 107.833 85.2682 105.531 84.5968C103.24 84.0335 100.87 83.3834 98.6438 82.6043C99.341 80.5714 100.053 78.6206 101.404 76.9107C104.106 73.4929 107.87 71.8401 112.113 71.3598Z" fill="#14DC92"/>
<path d="M111.717 72.3773C112.112 72.3603 112.511 72.3556 112.898 72.4525C113.087 72.4997 113.174 72.5384 113.28 72.7059L113.208 72.8753C112.619 73.3106 111.831 73.3267 111.135 73.4765C107.659 74.2256 105.069 76.324 103.168 79.2543C103.02 79.4182 102.895 79.5562 102.675 79.6259C102.463 79.6932 102.311 79.6411 102.12 79.5556C102.056 79.4629 102.006 79.3829 101.993 79.2682C101.882 78.3101 102.873 77.12 103.45 76.4345C105.561 73.9261 108.491 72.6609 111.717 72.3773Z" fill="#51498C"/>
<path d="M96.6884 85.0231C98.5482 85.5414 100.378 86.1648 102.226 86.7234L114.756 90.4629L123.442 93.0107C125.286 93.5568 127.15 94.0718 128.952 94.7436C128.721 94.9992 128.479 95.2151 128.211 95.4315C127.593 95.8153 126.886 96.062 126.156 96.0948C124.386 96.1745 119.445 94.439 117.561 93.8678L108.419 91.1043L103.635 89.6671C102.448 89.3176 101.238 89.0034 100.077 88.5731C99.3496 88.3034 98.6987 88.0476 98.1174 87.519C97.4784 86.9381 96.7379 85.9056 96.6884 85.0231Z" fill="#14DC92"/>
<path d="M94.2148 82.3081C96.1842 82.9426 98.1943 83.4845 100.18 84.0676L111.356 87.376L123.423 90.9864C125.622 91.6315 127.805 92.3014 130.03 92.857C130.687 93.0209 131.693 93.1728 132.069 93.7992C132.109 94.0628 132.024 94.1982 131.905 94.4218C129.012 94.1268 125.98 92.7473 123.194 91.8974L107.072 87.1184L98.1889 84.5176C97.0393 84.1864 95.6661 83.981 94.5857 83.5068C94.294 83.3787 94.0832 83.2311 93.9579 82.9307C93.9523 82.6779 94.0854 82.5128 94.2148 82.3081Z" fill="#F1EA5B"/>
<path d="M117.206 68.5811C117.24 68.5784 117.274 68.5745 117.308 68.5732C117.735 68.559 118.172 68.6582 118.492 68.9556C118.747 69.1918 118.861 69.5123 118.853 69.8559C118.839 70.457 118.512 70.8125 118.096 71.2056C118.021 71.2037 117.946 71.2025 117.872 71.1976C117.376 71.1653 116.901 71.024 116.579 70.6204C116.382 70.3739 116.307 70.0743 116.35 69.7632C116.426 69.2109 116.791 68.9043 117.206 68.5811Z" fill="#F1C454"/>
<path d="M40.5412 9.64375C46.5907 11.4612 52.6564 13.2227 58.7384 14.9283C64.7432 16.6616 70.7344 18.4407 76.7122 20.2656C79.0007 20.9678 81.2977 21.6413 83.6031 22.2861C85.1995 22.7397 86.8432 23.1348 88.3879 23.7428C87.5515 25.7876 87.0865 28.0825 86.4656 30.2059C84.9696 35.3229 83.5547 40.4794 81.9823 45.5714C80.9806 45.505 79.9525 45.4356 78.9487 45.4759C77.9826 45.5145 76.9809 45.7151 76.019 45.5656C74.7581 45.3697 73.4936 44.8948 72.2722 44.5248L66.4987 42.8092L44.6048 36.3867L39.2309 34.8358C38.5464 34.6323 37.8025 34.2773 37.1065 34.1739C36.9051 34.1439 36.8062 34.1556 36.6415 34.2703L36.6233 34.4775C36.8305 34.842 37.2465 34.9998 37.6264 35.1311C38.5934 35.4648 39.6039 35.6306 40.5861 35.9078C42.5097 36.4504 44.4209 37.0476 46.3362 37.6194L65.3675 43.247C68.7937 44.2416 72.2113 45.2651 75.6201 46.3176C75.2256 46.6814 74.8245 47.0412 74.6229 47.5522C74.4131 48.0844 74.4568 48.6136 74.6875 49.1318C75.1287 50.1239 76.2284 51.0151 77.2495 51.3661C78.0003 51.6242 78.464 51.5418 79.1532 51.1858C79.5361 51.2773 79.9171 51.3915 80.2971 51.4947L77.9211 59.6203C76.8242 59.6064 75.662 59.6554 74.5815 59.4668C73.0036 59.1912 70.9659 58.4089 69.374 57.9243L58.3903 54.595L34.4081 47.4825C34.0183 47.3708 33.4372 47.1831 33.0626 47.3892L33.0373 47.5236C33.324 47.8754 33.8545 48.0508 34.2761 48.1947C38.7317 49.7159 43.3387 50.8453 47.8509 52.1879L72.9609 59.7323C72.5992 59.8934 72.2053 60.0481 71.8909 60.2917C71.4126 60.6625 71.0622 61.1764 71.0003 61.7876C70.9226 62.5528 71.2731 63.3047 71.7648 63.8714C72.9504 65.2378 74.4817 65.3293 76.1604 65.4229C75.5545 68.1431 74.6001 70.8537 73.7572 73.5136C73.1943 73.5528 72.5795 73.6562 72.0261 73.5396C71.9184 73.4596 71.8339 73.4 71.7642 73.2829C71.5562 72.934 71.4093 72.8436 71.0306 72.6962C69.4203 72.0693 67.6208 71.6662 65.96 71.1823C63.0061 70.3221 60.0585 69.4411 57.117 68.5393L40.5687 63.5354C37.2848 62.5372 34.003 61.4693 30.6962 60.5556C30.3042 60.4472 29.7908 60.2654 29.4112 60.4311C29.297 60.6076 29.2789 60.6028 29.3114 60.8073C30.1058 61.4395 31.4595 61.5454 32.4159 61.7939C33.0436 61.9568 33.662 62.1575 34.2815 62.3487L58.559 69.7187C62.6367 70.9511 66.8393 71.9603 70.8148 73.4898C69.7159 73.5362 68.3103 73.6517 67.3737 74.2775C66.9693 74.5478 66.6711 74.9268 66.5973 75.4162C66.4992 76.0662 66.7811 76.7898 67.1834 77.2914C67.885 78.1662 69.6214 79.2235 70.7606 79.2962C71.4151 79.3379 71.1128 79.0396 71.4464 78.7323C71.7554 78.7195 72.082 78.8682 72.3729 78.9648C71.6167 81.5907 70.9443 84.2392 70.1903 86.8649C67.3553 85.8271 64.4215 84.9796 61.5345 84.0961L48.9317 80.2531L33.2569 75.4917C30.9259 74.7826 28.6051 73.9834 26.2581 73.3357C26.0094 73.2671 25.7933 73.1931 25.5353 73.2537C25.3401 73.3937 25.3187 73.4911 25.2486 73.71C25.3612 73.9253 25.6922 73.9629 25.9223 74.0296C32.4388 75.9408 38.9404 77.9012 45.4272 79.9107C51.4932 81.7018 57.5381 83.5616 63.5618 85.4901C64.5247 85.8045 68.4064 86.899 68.952 87.2395C68.9915 87.264 69.0298 87.2901 69.0687 87.3156C67.6064 87.0735 65.61 86.7612 64.2318 87.4879C63.7408 87.7468 63.4022 88.1756 63.2667 88.714C63.0961 89.3921 63.2426 90.1023 63.6168 90.6857C64.5889 92.2012 66.8179 92.5373 68.4376 92.924C68.1578 94.0398 67.7809 95.1445 67.4558 96.2488C66.9654 97.941 66.4902 99.6374 66.0301 101.338C64.1526 101.314 62.1058 100.755 60.2912 101.475C59.7756 101.68 59.2992 102.011 59.0925 102.545C58.7856 103.339 59.1697 104.133 59.4983 104.847C54.3069 103.121 49.0444 101.574 43.8087 99.9871C37.917 98.3499 32.1173 96.3737 26.2584 94.6228C25.1025 94.2773 23.9406 93.9451 22.7917 93.5771C22.1081 93.3582 21.4095 93.056 20.7081 92.9109C20.42 92.8512 20.1273 92.8107 19.8684 92.9759C19.8278 93.0696 19.7647 93.1271 19.8197 93.2267C19.9589 93.4782 20.3464 93.6123 20.6005 93.7034C21.5983 94.0606 22.6926 94.2673 23.7164 94.5504C25.1592 94.9496 26.5883 95.4375 28.0172 95.8853L52.5364 103.431C56.4529 104.65 60.4681 105.676 64.2303 107.326C63.7034 109.174 63.1578 111.016 62.5934 112.853C60.1972 111.989 57.7078 111.296 55.2723 110.547L42.037 106.494L27.0087 101.941L21.6394 100.341C20.6361 100.043 19.6436 99.6917 18.6298 99.4298C18.4061 99.3721 18.1561 99.3009 17.9312 99.3787C17.875 99.5593 17.845 99.6546 17.8936 99.8401C18.5826 100.38 23.8547 101.779 25.0159 102.133L50.0783 109.733C52.1079 110.354 54.1408 110.964 56.1769 111.564C58.2669 112.167 60.4011 112.712 62.4064 113.564L62.0614 114.745C61.1278 114.643 60.1393 114.828 59.2179 114.667C58.6576 114.57 58.2111 114.152 57.6186 114.117C56.8911 114.074 56.0723 114.334 55.5359 114.835C55.1467 115.199 55.0272 115.627 55.0331 116.152C55.0419 116.929 55.4934 117.364 56.0015 117.884C52.5014 116.853 49.0384 115.693 45.5509 114.617L25.9233 108.678C23.917 108.076 21.9023 107.492 19.9055 106.86C18.7001 106.478 17.4376 105.891 16.1867 105.724C16.0028 105.814 16.0047 105.858 15.9112 106.044C16.0069 106.328 16.1645 106.417 16.4366 106.528C17.4433 106.94 18.6075 107.136 19.6539 107.452L25.8319 109.38L48.164 116.178C49.7572 116.68 51.3458 117.199 52.9442 117.684C54.4603 118.144 56.0379 118.544 57.4761 119.217C58.4604 119.677 59.3878 120.328 60.3048 120.91C59.9715 122.567 59.4043 124.17 58.8826 125.775C56.3395 124.747 53.5753 124.106 50.9431 123.327L38.6517 119.587L22.7839 114.751L17.6987 113.207C16.7661 112.925 15.8345 112.571 14.8873 112.349C14.6458 112.293 14.2763 112.199 14.0516 112.337L14.038 112.524C14.2354 112.901 14.6156 113.064 15.0026 113.2C16.5089 113.732 18.1142 114.089 19.6511 114.534L26.984 116.729L58.7361 126.468L57.4986 130.952C55.6447 130.129 53.6422 129.7 51.7009 129.136L42.7883 126.48L9.48779 116.475L30.892 42.9494L37.2842 20.9458L39.1214 14.2935C39.5498 12.7305 39.9362 11.1503 40.5412 9.64375Z" fill="#82E478"/>
<path d="M21.7331 86.2048C23.6262 86.5321 25.4961 87.2736 27.3236 87.8522C29.6726 88.5957 32.0478 89.2721 34.4087 89.9784L54.7214 96.1637C57.1758 96.9148 59.6697 97.5689 62.1112 98.354C62.9517 98.6243 64.2192 98.8959 64.8834 99.475C64.9923 99.732 64.9401 99.7993 64.8739 100.064C64.1339 100.003 62.2828 99.2937 61.4651 99.039L52.9048 96.3875L23.1572 87.3818C22.6991 87.2406 22.2373 87.0945 21.8245 86.8457C21.6923 86.6261 21.7317 86.4578 21.7331 86.2048Z" fill="#51498C"/>
<path d="M31.1231 53.6123C32.081 53.7948 33.0663 54.2014 34.007 54.485L39.6312 56.134L62.0882 62.8776C63.4993 63.3031 72.8891 65.9511 73.2997 66.2739C73.4366 66.5345 73.3812 66.5925 73.318 66.8717C72.6433 66.7834 71.9001 66.5115 71.2426 66.3242L67.1274 65.1248L53.1165 60.964L37.4807 56.2687L33.6159 55.0939C32.8048 54.8479 31.9341 54.6393 31.1642 54.2823C31.0402 54.0792 31.1013 53.8386 31.1231 53.6123Z" fill="#51498C"/>
<path d="M27.3729 66.6843C28.8937 66.935 30.4684 67.5625 31.9515 68.0112L40.9576 70.7254L60.6604 76.672C63.5278 77.5332 66.4128 78.3245 69.2696 79.2197C69.5675 79.3129 70.0585 79.487 70.2531 79.7425C70.4101 79.9484 70.3254 80.0881 70.2765 80.3175C68.945 80.2512 67.545 79.5498 66.2745 79.1453L60.92 77.4775L39.1376 70.8975L32.1387 68.7936C30.95 68.4459 28.2264 67.9597 27.2987 67.3223C27.2297 67.0954 27.3103 66.9034 27.3729 66.6843Z" fill="#51498C"/>
<path d="M23.6503 79.6332C25.4535 80.0298 27.2717 80.7242 29.038 81.2715L38.2672 84.0528L57.8241 89.969C60.6872 90.8385 63.5909 91.626 66.4347 92.5485C66.6005 92.6023 66.6842 92.6706 66.8005 92.8034C66.9005 93.0496 66.8453 93.2167 66.7874 93.4631C65.3581 93.1081 63.9619 92.6073 62.555 92.1723L55.0147 89.8637L29.6689 82.1521C28.448 81.7842 24.2655 80.8207 23.5705 80.2459C23.508 79.9876 23.5713 79.8828 23.6503 79.6332Z" fill="#51498C"/>
<path d="M42.6855 14.497C43.7044 15.0306 45.0419 15.2749 46.1542 15.5954L54.0139 17.8012L76.6167 24.4284C78.207 24.8851 82.6697 25.8559 83.835 26.6687C83.8811 26.8961 83.7825 27.0053 83.6883 27.21C82.414 27.0458 81.2111 26.5819 79.9872 26.2094L75.1487 24.7856C68.2076 22.7483 61.2916 20.5948 54.325 18.6481C52.715 18.1981 43.1514 15.6806 42.4152 15.0883L42.6855 14.497Z" fill="#51498C"/>
<path d="M34.9871 40.5928C38.6674 41.7509 42.3917 42.7976 46.0915 43.8939L67.3807 50.2128L73.7148 52.0914C74.6315 52.3576 75.5763 52.5486 76.4829 52.8459C76.7552 52.9353 77.0084 53.0223 77.2276 53.2131C77.2402 53.4695 77.1634 53.5667 77.0498 53.7931C75.3776 53.2064 73.627 52.768 71.9227 52.2767C68.9262 51.4292 65.9384 50.5519 62.9595 49.6447C57.2018 47.8871 51.4315 46.1717 45.6485 44.4984C41.9918 43.4203 38.3478 42.2845 34.6598 41.3176L34.9871 40.5928Z" fill="#51498C"/>
<path d="M40.6527 21.1633L77.5163 31.9495C78.7318 32.3133 81.144 32.6075 82.0723 33.3228C82.1488 33.5689 82.0874 33.7009 82.0313 33.9492C80.5362 33.6434 79.1124 33.1201 77.6546 32.6797L70.8391 30.6751L46.507 23.6C45.6323 23.3465 41.0941 22.1572 40.6557 21.7783C40.5527 21.5209 40.6001 21.43 40.6527 21.1633Z" fill="#51498C"/>
<path d="M38.7192 27.6928C39.7542 27.8809 40.8166 28.2784 41.8264 28.5769L47.8277 30.3398L67.9248 36.2411C69.9763 36.8547 72.0317 37.4549 74.0911 38.0415C75.4016 38.4047 76.6923 38.7942 77.9933 39.1823C78.3628 39.2926 78.7522 39.3487 79.1166 39.4748C79.3164 39.544 79.6092 39.659 79.7461 39.8297C79.9148 40.0401 79.8473 40.2009 79.8234 40.4497C78.9692 40.4648 75.8492 39.3106 74.8772 39.017L67.9206 36.9808L47.1086 30.8629L42.1181 29.3947C41.1885 29.1311 40.1353 28.9595 39.2663 28.5448C39.1491 28.4889 38.9928 28.419 38.8991 28.3267C38.7006 28.1309 38.7381 27.9533 38.7192 27.6928Z" fill="#51498C"/>
<path d="M69.5672 93.0012C72.0042 93.366 74.1471 93.9695 76.4589 94.7934C75.5448 97.5251 74.8084 100.355 74.0065 103.122C71.6542 102.229 69.5262 101.78 67.0693 101.372C67.705 99.3746 68.2193 97.3249 68.8203 95.3139C69.0457 94.5596 69.2206 93.705 69.5672 93.0012Z" fill="#14DC92"/>
<path d="M81.307 51.6117C83.6903 51.7547 86.0773 52.5004 88.1801 53.607C87.8271 54.8234 86.207 60.9879 85.8337 61.489C83.5918 60.5804 81.3223 60.0351 78.9126 59.8222L80.4048 54.6722C80.7079 53.6589 81.0688 52.6412 81.307 51.6117Z" fill="#14DC92"/>
<path d="M77.2419 65.6931C79.7226 65.7279 81.9949 66.39 84.2388 67.3954C83.4107 70.0323 82.6513 72.6888 81.9607 75.365C79.6748 74.3868 77.4491 73.6976 74.9618 73.4406C75.6202 70.824 76.4124 68.259 77.2419 65.6931Z" fill="#14DC92"/>
<path d="M73.4944 79.1101C75.8559 79.3625 78.1525 80.2479 80.3767 81.0395C79.4772 83.6514 78.8247 86.396 78.0855 89.0595C75.8245 88.1389 73.6533 87.3789 71.2227 87.0014C71.8788 84.3419 72.636 81.7115 73.4944 79.1101Z" fill="#14DC92"/>
<path d="M65.2053 107.646C67.6728 107.701 69.8917 108.461 72.1802 109.305C71.5433 111.801 70.8144 114.279 70.108 116.757C67.9234 115.75 65.4894 115.3 63.1272 114.936C63.745 112.482 64.4875 110.071 65.2053 107.646Z" fill="#14DC92"/>
<path d="M62.8659 115.829C65.2687 116.41 67.5855 116.78 69.9129 117.671L68.5341 122.45C66.1768 121.845 63.8652 121.178 61.5577 120.407C61.9963 118.881 62.397 117.347 62.8659 115.829Z" fill="#14DC92"/>
<path d="M66.7254 102.327C69.0762 102.439 71.584 103.092 73.6867 104.148C73.2651 105.56 72.8693 106.98 72.4993 108.407C70.2557 107.446 67.909 106.963 65.4929 106.693C65.8825 105.232 66.2933 103.776 66.7254 102.327Z" fill="#14DC92"/>
<path d="M82.7804 46.6858C85.2737 46.8295 87.3148 47.5009 89.5253 48.6178C89.176 49.9409 88.8613 51.2944 88.3898 52.58C86.2665 51.4298 83.9534 51.0169 81.5934 50.6744C81.9604 49.3362 82.356 48.0067 82.7804 46.6858Z" fill="#14DC92"/>
<path d="M70.9973 87.9234C73.3878 88.2272 75.5894 88.984 77.7583 90.0117C77.2934 91.2475 77.0484 92.5479 76.6097 93.7915C74.3605 92.9087 72.13 92.4789 69.7802 91.9857C70.115 90.6128 70.5567 89.2651 70.9973 87.9234Z" fill="#14DC92"/>
<path d="M78.6707 60.7747C81.0717 60.7776 83.4473 61.5464 85.6278 62.4918C85.3487 63.7832 84.9392 65.0461 84.5537 66.3087C82.2792 65.2418 79.9775 64.9645 77.5214 64.6647C77.8856 63.3625 78.2688 62.0658 78.6707 60.7747Z" fill="#14DC92"/>
<path d="M74.9159 74.2637C77.2765 74.7676 79.4962 75.3073 81.6641 76.4218C81.2704 77.6003 81.1954 79.022 80.5238 80.0825C78.256 79.217 76.0357 78.6089 73.6521 78.1521C74.0201 76.8293 74.3668 75.5273 74.9159 74.2637Z" fill="#14DC92"/>
<path d="M80.213 46.5922C80.6914 46.5484 81.1862 46.5669 81.667 46.564C81.2608 47.8456 80.9114 49.1514 80.5355 50.4423L79.1164 49.9361C78.1902 49.459 77.5994 48.9222 76.9481 48.1097C77.823 47.0297 78.898 46.7453 80.213 46.5922Z" fill="#82E478"/>
<path d="M74.5873 104.629C75.5028 105.18 76.2997 105.813 77.0928 106.529C77.1608 106.955 77.2523 107.413 77.0916 107.83C76.8841 108.368 76.3766 108.55 75.8897 108.766C75.008 109.055 74.3323 109.095 73.4325 108.852C73.7812 107.434 74.1662 106.027 74.5873 104.629Z" fill="#82E478"/>
<path d="M70.8004 118.226C71.799 118.675 72.7618 119.375 73.171 120.429C73.3045 120.772 73.3609 121.162 73.191 121.504C72.9434 122.002 72.3518 122.201 71.8637 122.38C71.1185 122.58 70.3588 122.599 69.5923 122.625L70.8004 118.226Z" fill="#82E478"/>
<path d="M82.5543 77.0451C83.4104 77.412 84.1726 77.9172 84.8787 78.5206C84.9723 79.0357 85.2339 79.6609 85.0971 80.1775C84.9661 80.6729 84.4284 80.8987 84.0187 81.1262C83.9256 81.1597 83.8704 81.1823 83.7793 81.2062C82.9634 81.4193 82.1971 81.0139 81.5096 80.6273C81.8853 79.4413 82.2335 78.2472 82.5543 77.0451Z" fill="#82E478"/>
<path d="M61.147 115.738C61.321 115.734 61.473 115.764 61.6432 115.797L61.6893 115.879C61.4565 117.254 61.007 118.616 60.6034 119.948C60.1773 119.732 59.7663 119.471 59.3541 119.229C58.7932 118.875 58.237 118.529 57.7246 118.105C58.4851 117.448 58.7121 116.878 58.8648 115.912C59.6226 115.833 60.3868 115.793 61.147 115.738Z" fill="#82E478"/>
<path d="M86.5871 63.2281C87.5889 63.7153 88.4401 64.3723 89.3049 65.0626C89.2035 65.5125 89.2457 66.0828 89.0285 66.4929C88.8625 66.8064 88.5542 66.8811 88.2401 66.9804C87.2049 67.1882 86.4567 67.1036 85.4567 66.8307L86.5871 63.2281Z" fill="#82E478"/>
<path d="M90.4708 49.3148C90.6911 49.4382 90.9058 49.5706 91.1148 49.7122C91.3238 49.8538 91.5264 50.004 91.7228 50.1628C91.919 50.3216 92.1082 50.4885 92.2903 50.6634C92.4724 50.8383 92.6467 51.0206 92.8134 51.2103C92.7895 51.7195 92.9987 52.5017 92.7276 52.9445C92.5495 53.2356 92.1948 53.3279 91.8909 53.4225C91.0223 53.4443 90.1976 53.3818 89.3472 53.2023C89.7061 51.902 90.0807 50.6062 90.4708 49.3148Z" fill="#82E478"/>
<path d="M78.6286 90.5745C79.5523 91.0289 80.2308 91.9179 81.1195 92.46C81.0961 92.8845 81.1153 93.4012 80.9428 93.7942C80.7455 94.2436 80.428 94.3746 79.9905 94.5468C79.0886 94.7675 78.4562 94.6603 77.625 94.2689C77.9155 93.0214 78.2242 91.7907 78.6286 90.5745Z" fill="#82E478"/>
<path d="M72.9429 74.4073C73.1451 74.3843 73.2769 74.352 73.4663 74.4431C73.5068 75.2432 72.8249 77.1018 72.5774 77.9629C72.033 77.7339 71.4905 77.5004 70.9499 77.2626C70.9143 77.2412 70.8782 77.2201 70.8429 77.1982C70.4466 76.9532 69.7257 76.4357 69.6623 75.9406C69.6335 75.7171 69.6958 75.5307 69.8368 75.3581C70.479 74.5712 72.0101 74.4962 72.9429 74.4073Z" fill="#82E478"/>
<path d="M68.3361 88.1565C68.8118 88.1135 69.3025 88.1296 69.7803 88.1256C69.5125 89.1909 69.2928 90.7671 68.5771 91.6121C68.3339 91.6949 68.2796 91.6365 68.0446 91.5496C67.7406 91.3906 67.4296 91.2051 67.1528 91.0025C66.7246 90.6893 66.2962 90.214 66.2181 89.6698C66.176 89.3764 66.2437 89.0849 66.4289 88.8506C66.881 88.2785 67.6665 88.2198 68.3361 88.1565Z" fill="#82E478"/>
<path d="M76.3787 60.7333C76.7315 60.6861 77.1084 60.7058 77.4649 60.6997L76.4114 64.4317L75.4548 63.967C75.2201 63.83 74.9779 63.6912 74.7564 63.5336C74.3579 63.2501 73.9385 62.8483 73.8615 62.3406C73.8181 62.0547 73.9032 61.7783 74.084 61.555C74.6114 60.9036 75.6076 60.8265 76.3787 60.7333Z" fill="#82E478"/>
<path d="M62.9561 102.351C63.8666 102.309 64.7802 102.337 65.6913 102.349L64.7034 105.847L64.6044 105.894C63.8656 105.617 63.1774 105.233 62.6608 104.62C62.3672 104.271 62.1483 103.812 62.2158 103.345C62.2853 102.864 62.5875 102.627 62.9561 102.351Z" fill="#82E478"/>
<path d="M93.6948 51.6842C93.9607 51.7928 94.1606 51.989 94.3479 52.204C94.6225 52.5189 94.7464 52.8947 94.6967 53.3103C94.6429 53.7608 94.3748 54.1672 94.0083 54.4273C93.4712 54.8086 92.9401 54.8003 92.3129 54.7064L91.2914 54.4022C92.0209 54.3879 92.7869 54.3709 93.4434 54.0111C93.7665 53.834 94.0326 53.5676 94.12 53.2006C94.2559 52.6284 93.9718 52.1561 93.6948 51.6842Z" fill="#82E478"/>
<path d="M81.8581 92.8935C81.9162 92.9193 81.9729 92.9501 82.0282 92.9812C82.3721 93.175 82.7084 93.482 82.7968 93.8821C82.871 94.2181 82.757 94.5685 82.5604 94.842C82.1704 95.3842 81.6674 95.5463 81.0335 95.6459C80.8462 95.6426 80.7025 95.6337 80.5203 95.5806C80.7171 95.1521 81.8564 95.0693 82.1548 94.1317C82.3035 93.6642 82.0771 93.2917 81.8581 92.8935Z" fill="#82E478"/>
<path d="M90.0003 65.4965C90.1553 65.5639 90.2594 65.6492 90.3801 65.7648C90.6397 66.0135 90.8814 66.2942 90.8744 66.6743C90.8676 67.045 90.6344 67.3979 90.3764 67.6476C89.8056 68.2001 89.2386 68.2875 88.4853 68.2854C88.337 68.2386 88.2544 68.2145 88.1512 68.095C88.4125 67.8317 89.2422 67.7675 89.6066 67.5851C89.9437 67.4165 90.2012 67.1678 90.305 66.7979C90.4391 66.3207 90.2123 65.9068 90.0003 65.4965Z" fill="#82E478"/>
<path d="M78.0404 107.094C78.1457 107.135 78.1674 107.139 78.2737 107.211C78.5569 107.404 78.8899 107.802 78.8966 108.16C78.903 108.501 78.6637 108.848 78.4376 109.085C77.848 109.704 77.2009 109.843 76.3871 109.862C76.2905 109.854 76.2204 109.827 76.1298 109.795C76.3705 109.492 77.2891 109.256 77.6709 108.983C78.0021 108.746 78.3257 108.407 78.3804 107.985C78.4288 107.61 78.2459 107.384 78.0404 107.094Z" fill="#82E478"/>
<path d="M74.0973 120.28C74.1259 120.295 74.1556 120.307 74.1831 120.324C74.4897 120.508 74.8122 120.869 74.8939 121.223C74.9748 121.575 74.847 121.907 74.657 122.201C74.2147 122.884 73.5886 123.124 72.8307 123.268C72.7075 123.277 72.5956 123.265 72.4728 123.253C72.5126 123.091 73.9334 122.478 74.2451 121.729C74.4672 121.197 74.2953 120.781 74.0973 120.28Z" fill="#82E478"/>
<path d="M72.9975 60.7565L73.0992 60.7582L73.1395 60.8453C72.8097 61.1525 72.3828 61.5523 72.3167 62.0236C72.1333 63.3325 73.96 63.705 74.4453 64.367L74.3529 64.449C73.4561 64.1632 72.4756 63.5675 72.0248 62.7072C71.8522 62.3775 71.7892 62.0162 71.9228 61.6611C72.1103 61.1626 72.554 60.9757 72.9975 60.7565Z" fill="#82E478"/>
<path d="M65.5141 87.9681L65.7515 87.9948L65.7491 88.0756C65.5909 88.1688 65.4343 88.2649 65.2794 88.3637C64.9407 88.582 64.5093 88.8936 64.4598 89.3298C64.3718 90.1056 65.7113 90.8334 66.148 91.3725C66.1629 91.3909 66.1771 91.4098 66.1916 91.4284C66.0068 91.3906 65.8401 91.3181 65.6712 91.2356C65.0201 90.9175 64.3712 90.3892 64.1469 89.6736C64.0421 89.3392 64.0626 88.9995 64.243 88.6956C64.5207 88.2278 65.0263 88.1015 65.5141 87.9681Z" fill="#82E478"/>
<path d="M61.2798 102.034L61.3841 102.059C61.3357 102.352 60.6068 102.573 60.4543 102.917C60.036 103.861 61.266 104.325 61.5255 105.023L61.3777 105.011C60.7779 104.676 60.0951 104.222 59.8638 103.535C59.7812 103.29 59.7855 103.032 59.9104 102.802C60.176 102.312 60.7827 102.163 61.2798 102.034Z" fill="#82E478"/>
<path d="M86.3008 79.5714C86.5433 79.8117 86.7663 80.2175 86.8105 80.5578C86.8516 80.8742 86.7502 81.1642 86.5464 81.4057C86.1025 81.9318 85.5685 82.0137 84.9264 82.0586L84.7147 82.004L84.6802 81.9181C84.9702 81.6356 85.6235 81.4781 86.018 81.3195C86.3867 80.7037 86.3871 80.2575 86.3008 79.5714Z" fill="#82E478"/>
<path d="M76.0521 47.1011L76.1272 47.1581C76.0286 47.3294 75.9164 47.5101 75.8706 47.704C75.5464 49.0795 76.8495 49.4701 77.3983 50.3526L77.2792 50.4094C76.7827 50.1217 76.3249 49.8026 75.9361 49.3769C75.6169 49.0272 75.3427 48.5828 75.3874 48.0906C75.4285 47.6383 75.7186 47.3712 76.0521 47.1011Z" fill="#82E478"/>
<path d="M56.9956 115.01L57.3428 115.011L57.4122 115.089C57.0891 115.389 56.7652 115.623 56.5661 116.032C56.3655 116.446 56.54 116.844 56.6909 117.242C56.3645 117.075 56.0898 116.867 55.957 116.51C55.8653 116.264 55.8964 116.012 56.0041 115.777C56.2138 115.318 56.5486 115.19 56.9956 115.01Z" fill="#82E478"/>
</svg>
