<svg width="72" height="72" viewBox="0 0 72 72" fill="none" xmlns="http://www.w3.org/2000/svg">
<path d="M9 58.8L27.9 39.9C26.7 38.4 25.75 36.675 25.05 34.725C24.35 32.775 24 30.7 24 28.5C24 23.05 25.8875 18.4375 29.6625 14.6625C33.4375 10.8875 38.05 9 43.5 9C48.95 9 53.5625 10.8875 57.3375 14.6625C61.1125 18.4375 63 23.05 63 28.5C63 33.95 61.1125 38.5625 57.3375 42.3375C53.5625 46.1125 48.95 48 43.5 48C41.3 48 39.225 47.65 37.275 46.95C35.325 46.25 33.6 45.3 32.1 44.1L13.2 63L9 58.8ZM30 28.5C30 32.25 31.3125 35.4375 33.9375 38.0625C36.5625 40.6875 39.75 42 43.5 42C47.25 42 50.4375 40.6875 53.0625 38.0625C55.6875 35.4375 57 32.25 57 28.5C57 24.75 55.6875 21.5625 53.0625 18.9375C50.4375 16.3125 47.25 15 43.5 15C39.75 15 36.5625 16.3125 33.9375 18.9375C31.3125 21.5625 30 24.75 30 28.5Z" fill="#54478C"/>
</svg>
