<svg width="50" height="50" viewBox="0 0 50 50" fill="none" xmlns="http://www.w3.org/2000/svg">
<path d="M48.3078 10.5125C46.7047 11.239 44.8437 11.7703 42.8953 12.014L42.8 12.0234C44.7813 10.8187 46.2719 8.97341 46.9984 6.78279L47.0187 6.71404C45.2625 7.75623 43.2203 8.55623 41.05 9.00154L40.9219 9.02341C39.1672 7.14998 36.6766 5.98279 33.9141 5.98279C28.6156 5.98279 24.3203 10.2781 24.3203 15.5765C24.3203 16.3515 24.4125 17.1062 24.5859 17.8281L24.5734 17.7625C16.5844 17.3656 9.55313 13.575 4.84063 7.8156L4.80156 7.76716C3.98594 9.13123 3.50313 10.7765 3.50313 12.5359C3.50313 12.5562 3.50313 12.5765 3.50313 12.5969V12.5937C3.50313 12.5937 3.50313 12.5984 3.50313 12.6015C3.50313 15.914 5.18281 18.8344 7.73594 20.5594L7.77031 20.5812C6.16719 20.5281 4.67813 20.089 3.37813 19.3547L3.42656 19.3797V19.4969V19.5C3.42656 24.1265 6.7 27.9906 11.0578 28.8968L11.1203 28.9078C10.3641 29.1187 9.49531 29.239 8.59844 29.239C7.96406 29.239 7.34531 29.1781 6.74531 29.0625L6.80625 29.0719C8.07656 32.914 11.6 35.6531 15.7734 35.7344H15.7828C12.5453 38.2937 8.40625 39.839 3.90469 39.839C3.89688 39.839 3.89062 39.839 3.88281 39.839H3.88438C3.07969 39.8375 2.2875 39.7906 1.50781 39.7L1.60313 39.7093C5.76406 42.4109 10.8531 44.0172 16.3188 44.0172C16.3266 44.0172 16.3328 44.0172 16.3406 44.0172H16.3391C16.3969 44.0172 16.4672 44.0172 16.5359 44.0172C31.5016 44.0172 43.6344 31.8844 43.6344 16.9187C43.6344 16.8578 43.6344 16.7984 43.6344 16.7375V16.7469C43.6344 16.3375 43.6344 15.9281 43.6047 15.5187C45.4953 14.1469 47.0875 12.5015 48.3578 10.6187L48.4016 10.55L48.3078 10.5125Z" fill="black"/>
</svg>
